<?xml version="1.0" encoding="UTF-8" standalone="no"?>
<!DOCTYPE svg PUBLIC "-//W3C//DTD SVG 1.1//EN" "http://www.w3.org/Graphics/SVG/1.1/DTD/svg11.dtd">
<svg version="1.1" xmlns="http://www.w3.org/2000/svg" xmlns:xlink="http://www.w3.org/1999/xlink" preserveAspectRatio="xMidYMid meet" viewBox="0 0 640 640" width="640" height="640"><defs><path d="M391.55 104.74C397.42 104.58 403.31 104.67 409.19 104.61C409.28 116.57 409.23 128.53 409.21 140.5C415.1 140.67 421.02 140.18 426.89 140.75C427.49 146.59 426.94 152.49 427.16 158.35C418.8 158.35 410.44 158.35 402.08 158.35C398.49 158.41 394.89 158.15 391.31 158.56C387.8 158.99 384.26 158.69 380.74 158.77C378.37 158.71 375.93 159.07 373.62 158.39C379.48 157.89 385.35 158.43 391.22 158.09C391.46 146.22 391.22 134.35 391.33 122.49C391.52 116.58 391.06 110.61 391.55 104.74Z" id="a5C1xTIIMM"></path><path d="M409.31 284.11C409.36 290.11 409.3 296.11 409.35 302.1C409.31 308.08 409.34 314.06 409.33 320.04C403.5 320.21 397.66 320.13 391.84 320.08C390.87 326 392.3 331.94 391.75 337.87C385.63 337.87 379.51 337.88 373.4 337.87C373.36 326.04 373.54 314.2 373.31 302.38C367.46 302.03 361.62 302.5 355.78 302.13C357.32 301.75 358.92 301.64 360.5 301.85C364.82 302.33 369.17 301.83 373.5 301.62C373.41 295.79 373.48 289.96 373.46 284.13C385.41 284.1 397.36 284.13 409.31 284.11Z" id="bxPbQbS9c"></path><path d="M445.09 284.22C445.1 290.19 444.97 296.16 445.16 302.13C451.08 302.09 456.99 302.12 462.91 302.11C463.17 308.07 462.72 314.04 463.2 319.99C457.16 319.98 451.12 320.01 445.07 319.97C445.07 314.03 445.07 308.1 445.07 302.16C439.13 302.05 433.2 302.14 427.26 302.11C427.11 296.12 427.23 290.13 427.19 284.14C433.16 284.24 439.13 284.1 445.09 284.22Z" id="b13z2yBlLJ"></path><path d="M534.64 284.1C534.57 290.01 534.61 295.94 534.6 301.86C540.65 302.29 546.73 301.78 552.78 302.16C552.44 307.91 553.02 313.69 552.48 319.42C552.45 319.61 552.39 319.98 552.37 320.17C540.5 320.02 528.64 320.25 516.79 320.05C516.78 320 516.77 319.57 516.77 319.51C516.69 313.72 516.77 307.92 516.73 302.12C516.74 296.12 516.76 290.11 516.73 284.11C522.7 284.11 528.67 284.14 534.64 284.1Z" id="d2OXmhHGVB"></path><path d="M471.43 105.22C486.56 105.09 501.69 105.35 516.82 105.11C517.01 117.08 516.78 129.05 516.93 141.02C510.88 141.13 504.82 141.11 498.77 141.04C498.79 135.09 498.79 129.13 498.78 123.17C492.8 123.15 486.84 123.17 480.87 123.17C474.94 123.15 469.02 123.18 463.1 123.15C462.96 129.11 463.11 135.06 463.02 141.02C462.87 146.99 463.06 152.94 462.91 158.91C451 158.91 439.09 158.9 427.18 158.91C426.96 153.05 427.51 147.15 426.91 141.31C421.04 140.74 415.12 141.23 409.23 141.06C409.25 129.09 409.3 117.13 409.22 105.17C429.96 105.26 450.7 105.14 471.43 105.22Z" id="d4lH4PnAq"></path><path d="M552.49 266.26C558.53 266.26 564.56 266.27 570.61 266.25C570.6 278.25 570.61 290.25 570.6 302.24C564.66 302.2 558.72 302.36 552.78 302.16C546.73 301.78 540.65 302.29 534.6 301.86C534.61 295.94 534.57 290.01 534.64 284.1C534.67 278.15 534.52 272.19 534.67 266.25C540.6 266.28 546.55 266.26 552.49 266.26Z" id="a1Nc1gerp0"></path><path d="M498.76 284.13C498.84 289.7 498.72 295.28 498.83 300.86C498.75 301.09 498.6 301.57 498.52 301.81C497.65 302.31 496.62 302.1 495.69 302.13C490.76 302.09 485.85 302.12 480.93 302.12C480.92 308.06 480.96 314.01 480.91 319.97C475 320.02 469.1 319.98 463.2 319.99C462.72 314.04 463.17 308.07 462.91 302.11C468.9 302.1 474.9 302.14 480.89 302.09C480.98 296.12 480.92 290.15 480.93 284.18C486.87 284.14 492.82 284.23 498.76 284.13Z" id="a5lXD4jSC7"></path><path d="M391.35 123.05C391.24 134.91 391.48 146.78 391.24 158.65C385.37 158.99 379.5 158.45 373.64 158.95C373.62 158.95 373.45 158.96 373.43 158.96C373.47 147.07 373.47 135.17 373.43 123.28C379.4 123.09 385.38 123.14 391.35 123.05Z" id="j24Npe7W8g"></path><path d="M355.78 302.13C361.62 302.5 367.46 302.03 373.31 302.38C373.54 314.2 373.36 326.04 373.4 337.87C367.48 337.88 361.56 337.87 355.65 337.87C355.54 325.95 355.66 314.04 355.58 302.12C355.62 302.12 355.76 302.13 355.78 302.13Z" id="cb77czZbi"></path><path d="M463.1 123.15C469.02 123.18 474.94 123.15 480.87 123.17C480.94 129.11 480.95 135.06 480.88 141C474.93 141.02 468.97 140.99 463.02 141.02C463.11 135.06 462.96 129.11 463.1 123.15Z" id="d1VrGIgzb3"></path><path d="M230.38 158.91C230.23 164.89 230.32 170.89 230.35 176.88C224.35 176.87 218.35 176.9 212.36 176.86C212.47 170.92 212.14 164.97 212.5 159.04C218.44 158.7 224.42 159.01 230.38 158.91Z" id="axcE85xPV"></path><path d="M319.9 248.32C320.36 252.68 320.06 257.08 320.17 261.46C320.2 263.07 320.09 264.67 319.87 266.26C313.9 266.25 307.93 266.26 301.97 266.26C301.84 260.28 301.91 254.29 301.94 248.31C307.93 248.21 313.91 248.21 319.9 248.32Z" id="b1v2DEOXnB"></path><path d="M570.67 248.32C570.57 254.3 570.74 260.28 570.61 266.25C564.56 266.27 558.53 266.26 552.49 266.26C552.54 260.27 552.57 254.27 552.48 248.27C558.54 248.26 564.61 248.19 570.67 248.32Z" id="bXFvbXfKV"></path><path d="M140.56 337.98C140.52 343.74 140.61 349.51 140.52 355.27C134.68 355.39 128.83 355.24 122.97 355.33C122.79 349.51 122.85 343.69 122.9 337.87C128.79 337.94 134.68 337.75 140.56 337.98Z" id="a3vBXQBmmv"></path><path d="M391.75 337.87C391.21 343.63 392.08 349.39 391.64 355.15C386.47 355.35 381.3 355.23 376.13 355.2C375.31 355.19 374.49 355.22 373.77 355.65C373.75 355.65 373.57 355.64 373.55 355.64C373.32 349.72 373.52 343.79 373.4 337.87C379.51 337.88 385.63 337.87 391.75 337.87Z" id="a8TRZs46k"></path><path d="M498.78 123.17C498.79 129.13 498.79 135.09 498.77 141.04C492.81 140.96 486.85 141.03 480.88 141C480.95 135.06 480.94 129.11 480.87 123.17C486.84 123.17 492.8 123.15 498.78 123.17Z" id="d5wg07hbfA"></path><path d="M248.1 158.81C248.18 164.8 248.11 170.79 248.16 176.78C242.21 176.81 236.26 176.78 230.32 176.8C230.3 170.8 230.2 164.81 230.35 158.82C236.26 158.81 242.18 158.84 248.1 158.81Z" id="a98nGT9KF"></path><path d="M284.53 248.4C290.33 248.2 296.14 248.39 301.94 248.31C301.91 254.29 301.84 260.28 301.97 266.26C295.98 266.26 289.99 266.28 284 266.25C283.98 260.31 284.02 254.37 283.97 248.43C284.11 248.43 284.39 248.41 284.53 248.4Z" id="b5UqafABit"></path><path d="M552.48 248.27C552.57 254.27 552.54 260.27 552.49 266.26C546.55 266.26 540.6 266.28 534.67 266.25C534.6 260.27 534.57 254.3 534.61 248.33C540.57 248.29 546.52 248.38 552.48 248.27Z" id="c1TjG33hf3"></path><path d="M122.9 337.87C122.85 343.69 122.79 349.51 122.97 355.33C122.95 355.49 122.89 355.8 122.86 355.96C117.51 355.98 112.14 355.95 106.79 355.98C106.18 355.85 104.68 356.26 104.98 355.12C104.9 349.37 104.97 343.62 104.96 337.88C110.94 337.87 116.92 337.88 122.9 337.87Z" id="ajuTCgs4I"></path><path d="M373.4 337.87C373.52 343.79 373.32 349.72 373.55 355.64C373.55 355.66 373.55 355.76 373.55 355.77C367.58 356.16 361.58 355.96 355.6 355.88C355.64 349.88 355.57 343.87 355.65 337.87C361.56 337.87 367.48 337.88 373.4 337.87Z" id="b1i0yOCqp3"></path><path d="M230.86 373.81C230.51 379.73 231.01 385.67 230.62 391.58C224.72 391.99 218.78 391.58 212.87 391.77C212.81 397.63 212.79 403.48 212.89 409.33C206.91 409.9 200.89 409.43 194.89 409.59C194.89 415.55 194.95 421.51 194.86 427.47C188.86 427.54 182.86 427.51 176.87 427.49C176.37 421.4 176.88 415.28 176.53 409.19C182.49 409.26 188.45 409.11 194.4 409.12C194.49 403.3 194.29 397.48 194.48 391.66C200.58 391.59 206.67 391.68 212.76 391.61C212.69 385.68 212.92 379.73 212.64 373.8C218.71 373.78 224.79 373.77 230.86 373.81Z" id="cRNCFzL2f"></path><path d="M302.04 373.32C308 373.28 313.97 373.16 319.93 373.38C313.92 373.97 307.81 373.47 301.76 373.64C302.77 375.63 302.29 377.9 302.38 380.04C302.26 383.81 302.62 387.59 302.16 391.34C296.3 391.28 290.44 391.34 284.58 391.31C284.32 397.21 284.77 403.12 284.37 409.01C278.3 409.35 272.21 409.09 266.13 409.13C265.97 403.17 266.18 397.22 266 391.27C267.24 390.93 268.52 390.78 269.8 390.84C274.54 390.94 279.28 390.75 284.02 390.77C284.09 384.99 283.97 379.2 284.07 373.42C284.08 373.42 284.1 373.42 284.13 373.42C292.09 373.44 298.06 373.41 302.04 373.32Z" id="lVrwNssF2"></path><path d="M499.03 373.81C498.84 379.79 499.07 385.76 498.91 391.74C493.12 391.69 487.34 391.84 481.57 391.66C480.72 393.8 481.15 396.13 481.07 398.37C481.02 402.11 481.19 405.86 480.96 409.6C475.03 409.62 469.08 409.46 463.15 409.69C463.13 415.64 463.28 421.6 463.08 427.54C457.1 427.48 451.13 427.49 445.15 427.54C444.99 421.49 445.11 415.44 445.01 409.4C451.01 408.97 457.03 409.3 463.03 409.07C463.11 403.27 462.93 397.47 463 391.67C465.77 390.98 468.63 391.37 471.44 391.29C474.61 391.22 477.78 391.27 480.95 391.11C480.94 385.34 480.89 379.58 480.83 373.82C486.89 373.75 492.97 373.77 499.03 373.81Z" id="b3Nu1eGJxO"></path><path d="M570.27 372.97C570.31 372.97 570.63 372.98 570.67 372.98C570.48 378.95 570.69 384.93 570.56 390.9C564.82 391 559.07 390.78 553.34 391C553.15 391.09 552.78 391.27 552.59 391.37C552.5 397.14 552.67 402.92 552.53 408.69C546.6 408.82 540.66 408.77 534.73 408.72C534.73 408.66 534.71 408.21 534.71 408.15C534.5 402.32 534.62 396.48 534.6 390.64C540.51 390.33 546.44 390.44 552.37 390.43C552.33 384.66 552.51 378.88 552.49 373.11C552.49 373.1 552.49 373.04 552.49 372.94C560.39 372.94 566.32 372.95 570.27 372.97Z" id="j2LJPaZV2G"></path><path d="M373.71 427.01C379.59 426.8 385.5 426.96 391.39 426.84C391.11 432.89 392.24 438.97 391.52 444.97C385.57 445.61 379.5 444.87 373.52 445.34C373.35 451.04 374.22 456.72 373.81 462.42C373.66 462.58 373.36 462.9 373.2 463.06C367.33 463.2 361.46 463.08 355.58 463.1C355.5 457.12 355.5 451.14 355.58 445.15C357.46 445.17 359.35 444.99 361.23 444.81C365.26 444.71 369.3 444.81 373.35 444.74C373.38 438.84 373.41 432.94 373.34 427.04C373.43 427.03 373.61 427.01 373.71 427.01Z" id="a3WQ12cDZw"></path><path d="M516.74 426.91C516.9 433.11 516.66 439.3 516.86 445.5C510.83 445.1 504.78 445.63 498.76 445.21C498.89 439.15 498.58 433.08 498.84 427.03C504.8 427.09 510.78 427.11 516.74 426.91Z" id="l2IvvaSYit"></path><path d="M123.31 427.18C123.24 433.13 123.32 439.08 123.36 445.04C117.36 445.46 111.34 444.97 105.35 445.3C105.36 451.24 105.58 457.18 105.34 463.12C99.2 463.08 93.06 463.12 86.92 463.1C87.29 457.13 86.79 451.14 87.22 445.18C89.01 445.12 90.79 444.97 92.58 444.82C96.64 444.67 100.7 444.81 104.76 444.76C105.5 438.86 104.55 432.88 105.27 426.97C111.27 427.1 117.33 426.49 123.31 427.18Z" id="bGqPi37dv"></path><path d="M231.69 426.7C237.11 426.73 242.53 426.52 247.94 426.69C248.11 426.87 248.44 427.22 248.61 427.4C248.65 433.2 248.85 439.04 248.5 444.83C242.46 445.12 236.41 444.91 230.37 444.92C230.27 439.47 230.33 434.01 230.3 428.56C230.15 427.65 230.52 426.45 231.69 426.7Z" id="bNanJrdUg"></path><path d="M159.05 445.02C159.1 451.12 159.23 457.23 159.05 463.34C153 462.95 146.93 463.42 140.88 463.06C140.61 457.06 140.97 451.06 140.67 445.06C146.8 444.98 152.92 444.8 159.05 445.02Z" id="csaSATKlH"></path><path d="M427.24 445.03C427.33 451.04 427.25 457.07 427.38 463.09C421.33 463.15 415.24 463.49 409.22 462.91C409.43 457.03 409.34 451.14 409.26 445.26C415.23 444.73 421.25 444.92 427.24 445.03Z" id="gxEYtio7O"></path><path d="M122.55 480.88C122.75 480.9 123.15 480.94 123.35 480.96C123.14 486.98 123.56 493.02 123.21 499.04C117.19 498.72 111.15 499.23 105.12 498.89C104.97 492.86 104.98 486.84 105.13 480.82C105.13 480.82 105.13 480.79 105.13 480.75C112.88 480.63 118.68 480.67 122.55 480.88Z" id="c2z1SZwaX3"></path><path d="M194.58 480.69C195.09 482.88 194.89 485.14 194.9 487.37C194.88 491.18 194.95 494.99 194.87 498.8C188.78 499.31 182.66 498.72 176.56 499.11C176.74 492.99 176.18 486.83 176.85 480.75C182.75 480.74 188.67 480.8 194.58 480.69Z" id="degdG7mzk"></path><path d="M391.38 480.68C391.52 486.73 391.58 492.8 391.56 498.87C385.51 499.1 379.46 499.07 373.41 498.86C373.56 492.84 373.32 486.82 373.54 480.81C379.48 480.65 385.43 480.87 391.38 480.68Z" id="aVBweLUnX"></path><path d="M463.15 480.71C463.15 480.71 463.15 480.74 463.15 480.74C462.92 486.8 463.19 492.86 463.02 498.91C457.05 499.08 451.07 498.96 445.08 498.98C445.1 492.91 444.99 486.84 445.08 480.77C451.11 480.72 457.13 480.8 463.15 480.71Z" id="a406g3XHYC"></path><path d="M158.8 140.97C158.67 152.23 158.78 163.49 158.74 174.75C158.89 175.39 158.57 176.77 159.56 176.79C165.24 177.17 170.94 176.65 176.61 177.05C176.61 182.98 176.58 188.9 176.6 194.83C164.71 195.07 152.81 194.56 140.94 195.07C140.92 195.07 140.7 195.09 140.67 195.09C135.95 195.23 131.22 195.08 126.5 195.16C125.24 195.2 124.01 195.05 122.8 194.74C128.27 194.61 133.73 194.78 139.2 194.68C140.17 194.79 141.02 194.31 140.76 193.23C140.79 181.76 140.8 170.29 140.71 158.82C140.6 153.01 140.82 147.19 140.59 141.38C141.45 141.11 142.34 140.94 143.26 140.99C148.44 141.08 153.62 140.83 158.8 140.97Z" id="d1S65kk3lz"></path><path d="M194.44 284.17C194.5 289.91 194.3 295.67 194.52 301.4C194.66 301.56 194.94 301.88 195.08 302.04C200.88 302.24 206.69 302.05 212.49 302.11C212.39 308.07 212.44 314.03 212.53 319.99C206.49 319.99 200.45 319.99 194.42 319.99C188.58 320.02 182.75 319.93 176.91 320.05C176.15 314.09 176.81 308.07 176.54 302.09C170.76 302.16 164.97 302.04 159.19 302.16C159.18 302 159.17 301.66 159.15 301.5C158.87 295.75 159.14 289.99 159 284.24C170.82 284.29 182.63 284.13 194.44 284.17Z" id="k1u44JRvYQ"></path><path d="M140.73 284.21C140.74 290.04 140.68 295.86 140.78 301.69C140.78 301.74 140.77 302.19 140.77 302.25C140.66 308.04 140.84 313.85 140.67 319.64C140.44 325.75 140.61 331.86 140.56 337.98C134.68 337.75 128.79 337.94 122.9 337.87C122.85 326.02 122.87 314.17 122.92 302.32C116.93 301.98 110.94 302.33 104.96 302.12C110.91 301.79 116.92 302.48 122.83 301.73C122.78 295.89 122.87 290.05 122.79 284.21C128.76 284.46 134.75 284.23 140.73 284.21Z" id="doHBRn4ez"></path><path d="M320.18 302.16C314.27 302.36 308.33 302.21 302.41 302.24C302.29 308.17 302.29 314.1 302.41 320.03C296.41 319.95 290.41 319.97 284.4 320.02C284.42 314.12 284.34 308.21 284.45 302.31C284.45 302.21 284.46 302.02 284.46 301.92C296.36 302.09 308.28 302.03 320.18 302.16Z" id="b5DNgOhMpY"></path><path d="M266.52 140.98C266.53 152.94 266.56 164.9 266.5 176.86C260.4 176.87 254.29 176.87 248.19 176.86C248.13 170.87 248.21 164.88 248.13 158.9C242.21 158.92 236.29 158.9 230.38 158.91C224.42 159.01 218.44 158.7 212.5 159.04C212.14 164.97 212.47 170.92 212.36 176.86C212.34 182.85 212.34 188.84 212.35 194.82C206.55 194.78 200.76 194.8 194.97 194.81C194.79 194.81 194.44 194.81 194.26 194.81C188.37 194.8 182.48 194.76 176.6 194.83C176.58 188.9 176.61 182.98 176.61 177.05C170.94 176.65 165.24 177.17 159.56 176.79C158.57 176.77 158.89 175.39 158.74 174.75C158.78 163.49 158.67 152.23 158.8 140.97C194.71 140.98 230.61 140.96 266.52 140.98Z" id="h2UYseLGhd"></path><path d="M301.97 266.26C307.93 266.26 313.9 266.25 319.87 266.26C320.65 273.27 320.02 280.35 320.19 287.39C320.25 292.31 320.25 297.24 320.18 302.16C308.28 302.03 296.36 302.09 284.46 301.92C284.37 295.83 284.86 289.71 284.18 283.66C283.75 277.87 284.1 272.05 284 266.25C289.99 266.28 295.98 266.26 301.97 266.26Z" id="bh74wNqa"></path><path d="M258.76 284.17C261.15 284.2 263.55 284.27 265.93 283.94C266.02 289.85 265.88 295.76 266.02 301.68C260.06 302.41 254.03 301.79 248.05 302.04C248 308.02 248.12 313.99 247.99 319.97C236.17 320.02 224.35 319.98 212.53 319.99C212.44 314.03 212.39 308.07 212.49 302.11C218.4 302.12 224.31 302.09 230.21 302.13C230.42 296.14 230.23 290.15 230.32 284.15C239.8 284.2 249.28 284.15 258.76 284.17Z" id="cWTwARx6N"></path><path d="M552.68 140.93C552.7 146.99 552.68 153.04 552.7 159.1C546.25 159.6 539.77 159.18 533.31 159.32C527.85 159.2 522.36 159.58 516.92 159.11C510.44 158.65 503.92 159.03 497.43 158.91C485.92 158.91 474.42 158.9 462.91 158.91C463.06 152.94 462.87 146.99 463.02 141.02C468.97 140.99 474.93 141.02 480.88 141C486.85 141.03 492.81 140.96 498.77 141.04C504.82 141.11 510.88 141.13 516.93 141.02C528.85 140.88 540.76 141.04 552.68 140.93Z" id="g2YiSoj9VV"></path><path d="M140.71 158.82C140.8 170.29 140.79 181.76 140.76 193.23C141.02 194.31 140.17 194.79 139.2 194.68C133.73 194.78 128.27 194.61 122.8 194.74C122.85 185.18 122.81 175.61 122.82 166.05C122.83 163.66 122.7 161.26 123 158.88C128.9 158.97 134.81 158.77 140.71 158.82Z" id="a1WRnxMMZ"></path><path d="M122.92 302.32C122.87 314.17 122.85 326.02 122.9 337.87C116.92 337.88 110.94 337.87 104.96 337.88C104.94 325.96 104.96 314.04 104.96 302.12C110.94 302.33 116.93 301.98 122.92 302.32Z" id="bkHN4H5Fl"></path><path d="M402.1 158.91C410.46 158.91 418.82 158.91 427.18 158.91C427.21 164.93 427.18 170.94 427.19 176.95C427.2 188.84 427.2 200.71 427.19 212.59C421.22 212.6 415.25 212.64 409.29 212.57C409.34 206.65 409.35 200.72 409.29 194.79C403.32 194.69 397.35 194.75 391.38 194.76C391.34 182.88 391.43 171 391.33 159.12C394.91 158.71 398.51 158.97 402.1 158.91Z" id="j1SscNoFon"></path><path d="M409.3 230.66C409.4 242.57 409.26 254.48 409.37 266.4C397.39 266.39 385.42 266.43 373.45 266.37C373.46 260.36 373.46 254.35 373.45 248.34C379.4 248.32 385.35 248.32 391.3 248.34C391.46 242.44 391.33 236.55 391.38 230.66C397.35 230.61 403.32 230.62 409.3 230.66Z" id="b7qMFRWpSl"></path><path d="M462.91 158.91C474.42 158.9 485.92 158.91 497.43 158.91C503.92 159.03 510.44 158.65 516.92 159.11C516.84 165.03 516.9 170.96 516.9 176.88C510.85 176.87 504.81 176.87 498.77 176.88C492.8 176.88 486.84 176.84 480.87 176.9C474.93 176.87 468.98 176.91 463.04 176.88C457.05 176.87 451.05 176.87 445.06 176.88C439.1 176.93 433.15 176.82 427.19 176.95C427.18 170.94 427.21 164.93 427.18 158.91C439.09 158.9 451 158.91 462.91 158.91Z" id="bsTlMnFWr"></path><path d="M140.94 195.07C140.93 200.92 140.86 206.78 140.99 212.64C146.84 212.57 152.7 212.65 158.55 212.58C158.8 218.57 158.59 224.57 158.69 230.57C158.69 236.56 158.72 242.54 158.66 248.52C146.72 248.24 134.76 248.97 122.83 248.37C128.72 248.06 134.62 248.29 140.52 248.19C140.92 237.78 140.56 227.34 140.7 216.93C140.86 213.27 140.04 209.63 140.53 205.97C140.4 202.36 140.15 198.68 140.67 195.09C140.73 195.08 140.92 195.07 140.94 195.07Z" id="a5pdon4yAg"></path><path d="M194.26 194.81C194.29 200.78 194.28 206.75 194.29 212.72C188.38 212.67 182.48 212.56 176.58 212.78C176.59 206.8 176.55 200.81 176.6 194.83C182.48 194.76 188.37 194.8 194.26 194.81Z" id="k2SI7vyxSv"></path><path d="M244.96 194.8C245.9 194.82 246.86 194.86 247.8 195.01C248.21 196.71 248.12 198.46 248.11 200.2C248.02 204.32 248.13 208.45 248.05 212.59C242.14 212.71 236.23 212.58 230.32 212.68C224.33 212.77 218.34 212.55 212.36 212.74C212.36 206.77 212.36 200.8 212.35 194.82C223.22 194.82 234.09 194.86 244.96 194.8Z" id="eDIFmQqN"></path><path d="M409.29 194.79C409.35 200.72 409.34 206.65 409.29 212.57C409.24 218.6 409.23 224.63 409.3 230.66C403.32 230.62 397.35 230.61 391.38 230.66C391.37 218.69 391.37 206.73 391.38 194.76C397.35 194.75 403.32 194.69 409.29 194.79Z" id="f34v9Z9Mna"></path><path d="M445.07 230.64C445.06 236.59 445.09 242.54 445.06 248.49C439.09 248.52 433.13 248.53 427.17 248.52C427.15 242.55 427.12 236.6 427.18 230.64C433.15 230.62 439.11 230.62 445.07 230.64Z" id="b2k5Omj4rv"></path><path d="M194.25 248.47C194.29 254.41 194.39 260.35 194.2 266.29C188.39 265.99 182.57 266.41 176.77 266.06C176.52 260.2 176.78 254.33 176.62 248.47C182.5 248.48 188.37 248.48 194.25 248.47Z" id="aeEYKzmj2"></path><path d="M516.89 248.49C516.88 254.46 516.89 260.43 516.88 266.4C510.94 266.35 505 266.5 499.06 266.33C481.15 265.99 463.23 266.35 445.33 266.12C445.11 260.25 445.16 254.37 445.3 248.49C469.16 248.47 493.02 248.47 516.89 248.49Z" id="d3yS0kDHWf"></path><path d="M266.56 266.5C266.5 272.28 266.53 278.07 266.55 283.87C266.49 283.87 265.99 283.93 265.93 283.94C263.55 284.27 261.15 284.2 258.76 284.17C249.28 284.15 239.8 284.2 230.32 284.15C219.58 284.08 208.84 284.09 198.11 284.15C197.03 284.13 195.91 284.11 194.91 283.7C194.39 282.09 194.48 280.38 194.48 278.73C194.57 274.59 194.36 270.45 194.66 266.32C218.62 266.58 242.6 266.24 266.56 266.5Z" id="b5MX8PxB0o"></path><path d="M285.93 176.87C291.24 176.83 296.55 176.67 301.86 176.82C301.97 176.98 302.19 177.32 302.3 177.48C302.43 183.2 302.26 188.92 302.37 194.64C301.17 195.02 299.92 195.22 298.67 195.16C287.96 195.04 277.24 195.29 266.53 195.04C263.38 194.68 260.22 194.8 257.06 194.8C254.09 194.84 251.08 194.54 248.16 195.2C248.23 200.99 248.16 206.79 248.22 212.59C248.2 212.59 248.07 212.59 248.05 212.59C248.13 208.45 248.02 204.32 248.11 200.2C248.12 198.46 248.21 196.71 247.8 195.01C246.86 194.86 245.9 194.82 244.96 194.8C234.09 194.86 223.22 194.82 212.35 194.82C212.34 188.84 212.34 182.85 212.36 176.86C218.35 176.9 224.35 176.87 230.35 176.88C236.29 176.87 242.24 176.89 248.19 176.86C254.29 176.87 260.4 176.87 266.5 176.86C272.98 176.87 279.45 176.64 285.93 176.87Z" id="aed9UzIqQ"></path><path d="M445.06 176.88C445.1 188.79 445.03 200.71 445.1 212.63C451.08 212.58 457.06 212.63 463.04 212.59C463.04 200.69 463.05 188.79 463.04 176.88C468.98 176.91 474.93 176.87 480.87 176.9C480.99 188.86 480.88 200.83 480.92 212.8C480.92 218.74 480.97 224.69 480.89 230.63C468.94 230.61 457 230.65 445.06 230.62C445.09 224.62 445.05 218.63 445.09 212.64C439.13 212.57 433.16 212.63 427.2 212.6C427.18 218.62 427.21 224.63 427.18 230.64C427.12 236.6 427.15 242.55 427.17 248.52C433.13 248.53 439.09 248.52 445.06 248.49C445.08 248.49 445.28 248.49 445.3 248.49C445.16 254.37 445.11 260.25 445.33 266.12C463.23 266.35 481.15 265.99 499.06 266.33C498.87 272.26 498.99 278.19 498.99 284.13C498.96 284.13 498.78 284.13 498.76 284.13C492.82 284.23 486.87 284.14 480.93 284.18C480.92 290.15 480.98 296.12 480.89 302.09C474.9 302.14 468.9 302.1 462.91 302.11C456.99 302.12 451.08 302.09 445.16 302.13C444.97 296.16 445.1 290.19 445.09 284.22C439.13 284.1 433.16 284.24 427.19 284.14C427.19 279.47 427.19 274.8 427.2 270.14C427.23 268.86 426.99 267.61 426.67 266.39C420.9 266.4 415.13 266.4 409.37 266.4C409.26 254.48 409.4 242.57 409.3 230.66C409.23 224.63 409.24 218.6 409.29 212.57C415.25 212.64 421.22 212.6 427.19 212.59C427.2 200.71 427.2 188.84 427.19 176.95C433.15 176.82 439.1 176.93 445.06 176.88Z" id="a38GELkrtJ"></path><path d="M194.29 212.72C194.29 218.69 194.34 224.66 194.28 230.63C188.38 230.51 182.48 230.59 176.58 230.57C176.59 236.54 176.53 242.5 176.62 248.47C176.78 254.33 176.52 260.2 176.77 266.06C182.57 266.41 188.39 265.99 194.2 266.29C194.31 266.3 194.54 266.31 194.66 266.32C194.36 270.45 194.57 274.59 194.48 278.73C194.48 280.38 194.39 282.09 194.91 283.7C195.91 284.11 197.03 284.13 198.11 284.15C208.84 284.09 219.58 284.08 230.32 284.15C230.23 290.15 230.42 296.14 230.21 302.13C224.31 302.09 218.4 302.12 212.49 302.11C206.69 302.05 200.88 302.24 195.08 302.04C194.94 301.88 194.66 301.56 194.52 301.4C194.3 295.67 194.5 289.91 194.44 284.17C182.63 284.13 170.82 284.29 159 284.24C158.97 284.18 158.77 283.73 158.75 283.68C158.48 277.93 158.73 272.17 158.63 266.42C158.66 260.45 158.6 254.48 158.66 248.52C158.72 242.54 158.69 236.56 158.69 230.57C164.64 230.57 170.6 230.55 176.55 230.59C176.61 224.65 176.56 218.72 176.58 212.78C182.48 212.56 188.38 212.67 194.29 212.72Z" id="cbHkT7BYN"></path><path d="M230.32 212.68C230.27 218.68 230.32 224.69 230.31 230.7C230.3 236.63 230.29 242.55 230.32 248.48C218.55 248.47 206.77 248.49 194.99 248.47C194.93 248.47 194.51 248.47 194.46 248.47C194.43 242.52 194.42 236.57 194.46 230.63C200.43 230.7 206.4 230.6 212.38 230.68C212.37 230.65 212.37 230.38 212.37 230.35C212.35 224.48 212.35 218.61 212.36 212.74C218.34 212.55 224.33 212.77 230.32 212.68Z" id="c6967RsY0C"></path><path d="M463.04 176.88C463.05 188.79 463.04 200.69 463.04 212.59C457.06 212.63 451.08 212.58 445.1 212.63C445.03 200.71 445.1 188.79 445.06 176.88C451.05 176.87 457.05 176.87 463.04 176.88Z" id="doVBg8cdE"></path><path d="M516.9 176.88C516.89 182.83 516.85 188.78 516.91 194.73C510.87 194.75 504.83 194.74 498.79 194.75C498.77 188.79 498.8 182.84 498.77 176.88C504.81 176.87 510.85 176.87 516.9 176.88Z" id="b4J3LfJ6sq"></path><path d="M570.2 320.2C570.39 323.14 570.38 326.09 570.27 329.04C570.29 343.96 570.24 358.87 570.28 373.79C564.36 373.76 558.43 373.82 552.5 373.76C552.53 367.75 552.5 361.73 552.52 355.72C552.54 349.71 552.47 343.69 552.55 337.67C552.83 331.85 552.56 326.03 552.71 320.21C558.54 320.13 564.37 320.15 570.2 320.2Z" id="avSZWrOzG"></path><path d="M373.77 355.65C375.21 356.37 376.87 356.11 378.43 356.16C382.74 356.08 387.05 356.28 391.37 356.04C391.38 361.91 391.37 367.78 391.38 373.64C391.39 380.73 391.3 387.82 391.5 394.92C391.32 399.67 392.06 404.4 391.86 409.16C390.75 409.77 389.46 409.56 388.25 409.6C383.34 409.51 378.42 409.7 373.51 409.5C373.45 391.59 373.37 373.67 373.55 355.77C373.55 355.76 373.55 355.72 373.55 355.64C373.68 355.65 373.76 355.65 373.77 355.65Z" id="afdQhtg3o"></path><path d="M498.77 176.88C498.8 182.84 498.77 188.79 498.79 194.75C504.83 194.74 510.87 194.75 516.91 194.73C522.87 194.64 528.83 194.65 534.79 194.67C534.82 206.65 534.76 218.64 534.82 230.62C531.64 231.2 528.41 230.91 525.21 230.75C522.44 230.86 519.67 231.13 516.91 230.81C510.85 230.41 504.77 230.72 498.7 230.63C498.76 224.69 498.9 218.73 498.65 212.79C492.75 212.59 486.83 212.64 480.92 212.8C480.88 200.83 480.99 188.86 480.87 176.9C486.84 176.84 492.8 176.88 498.77 176.88Z" id="a5nrNxhuY5"></path><path d="M176.6 194.83C176.55 200.81 176.59 206.8 176.58 212.78C176.56 218.72 176.61 224.65 176.55 230.59C170.6 230.55 164.64 230.57 158.69 230.57C158.59 224.57 158.8 218.57 158.55 212.58C152.7 212.65 146.84 212.57 140.99 212.64C140.86 206.78 140.93 200.92 140.94 195.07C152.81 194.56 164.71 195.07 176.6 194.83Z" id="a6sQK08EHW"></path><path d="M158.66 248.52C158.6 254.48 158.66 260.45 158.63 266.42C146.68 266.32 134.74 266.51 122.81 266.32C122.85 260.34 122.8 254.35 122.83 248.37C134.76 248.97 146.72 248.24 158.66 248.52Z" id="a2qSVb9Klc"></path><path d="M194.97 194.81C194.8 206.66 194.94 218.51 194.94 230.37C200.74 230.47 206.56 230.49 212.37 230.35C212.37 230.38 212.37 230.65 212.38 230.68C206.4 230.6 200.43 230.7 194.46 230.63C194.44 230.63 194.3 230.63 194.28 230.63C194.34 224.66 194.29 218.69 194.29 212.72C194.28 206.75 194.29 200.78 194.26 194.81C194.44 194.81 194.79 194.81 194.97 194.81Z" id="b11xHXomYg"></path><path d="M212.35 194.82C212.36 200.8 212.36 206.77 212.36 212.74C212.35 218.61 212.35 224.48 212.37 230.35C206.56 230.49 200.74 230.47 194.94 230.37C194.94 218.51 194.8 206.66 194.97 194.81C200.76 194.8 206.55 194.78 212.35 194.82Z" id="aaUUY2Hp9"></path><path d="M257.06 194.8C260.22 194.8 263.38 194.68 266.53 195.04C266.53 200.89 266.55 206.74 266.52 212.59C260.42 212.62 254.32 212.61 248.22 212.59C248.16 206.79 248.23 200.99 248.16 195.2C251.08 194.54 254.09 194.84 257.06 194.8Z" id="a1EmHFVMNT"></path><path d="M302.77 319.8C308.45 320.24 314.17 319.05 319.84 320C320.76 327.59 319.91 335.3 320.23 342.93C320.1 347.54 320.48 352.18 320.01 356.77C320.52 362.44 320.04 368.15 320.27 373.83C320.23 373.83 319.93 373.8 319.89 373.8C313.93 373.58 307.96 373.7 302 373.74C301.75 367.71 301.95 361.68 301.89 355.64C301.88 349.63 301.9 343.62 301.88 337.6C301.86 331.88 301.88 326.15 301.86 320.42C301.9 320.4 302.08 320.26 302.41 320.03C302.63 319.89 302.75 319.82 302.77 319.8Z" id="c2RDqyfiNb"></path><path d="M140.84 355.95C140.53 361.88 140.79 367.82 140.71 373.75C140.88 379.64 140.32 385.57 141.01 391.42C141.38 397.45 141.12 403.53 141.2 409.58C135.07 409.57 128.95 409.61 122.83 409.56C122.85 391.69 122.77 373.82 122.86 355.96C128.86 355.91 134.84 355.91 140.84 355.95Z" id="b1a1cGkVh"></path><path d="M248.22 212.59C254.32 212.61 260.42 212.62 266.52 212.59C272.5 212.52 278.5 212.52 284.48 212.57C284.51 224.52 284.42 236.46 284.53 248.4C284.39 248.41 284.11 248.43 283.97 248.43C278.18 248.64 272.4 248.49 266.61 248.52C266.55 248.52 266.07 248.51 266.01 248.51C260.1 248.45 254.2 248.49 248.29 248.48C248.19 242.57 248.24 236.66 248.26 230.75C242.28 230.46 236.29 230.57 230.31 230.7C230.32 224.69 230.27 218.68 230.32 212.68C236.23 212.58 242.14 212.71 248.05 212.59C248.09 212.59 248.2 212.59 248.22 212.59Z" id="pnLI7ZW84"></path><path d="M445.09 212.64C445.05 218.63 445.09 224.62 445.06 230.62C457 230.65 468.94 230.61 480.89 230.63C486.82 230.63 492.76 230.63 498.7 230.63C504.77 230.72 510.85 230.41 516.91 230.81C516.86 236.71 516.9 242.59 516.89 248.49C493.02 248.47 469.16 248.47 445.3 248.49C445.28 248.49 445.08 248.49 445.06 248.49C445.09 242.54 445.06 236.59 445.07 230.64C439.11 230.62 433.15 230.62 427.18 230.64C427.21 224.63 427.18 218.62 427.2 212.6C433.16 212.63 439.13 212.57 445.09 212.64Z" id="gewMZGwv"></path><path d="M498.65 212.79C498.9 218.73 498.76 224.69 498.7 230.63C492.76 230.63 486.82 230.63 480.89 230.63C480.97 224.69 480.92 218.74 480.92 212.8C486.83 212.64 492.75 212.59 498.65 212.79Z" id="d1ciqSzXR"></path><path d="M194.28 230.63C194.3 230.63 194.44 230.63 194.46 230.63C194.42 236.57 194.43 242.52 194.46 248.47C194.43 248.47 194.27 248.47 194.25 248.47C188.37 248.48 182.5 248.48 176.62 248.47C176.53 242.5 176.59 236.54 176.58 230.57C182.48 230.59 188.38 230.51 194.28 230.63Z" id="d2nleTMnRF"></path><path d="M230.32 248.48C236.31 248.49 242.3 248.48 248.29 248.48C254.2 248.49 260.1 248.45 266.01 248.51C266.03 254.39 266.1 260.27 265.98 266.15C257.8 266.33 249.61 266.11 241.43 266.24C225.96 266.14 210.49 266.34 195.02 266.14C194.9 260.25 194.93 254.35 194.99 248.47C206.77 248.49 218.55 248.47 230.32 248.48Z" id="a2vcy0crb6"></path><path d="M248.26 230.75C248.24 236.66 248.19 242.57 248.29 248.48C242.3 248.48 236.31 248.49 230.32 248.48C230.29 242.55 230.3 236.63 230.31 230.7C236.29 230.57 242.28 230.46 248.26 230.75Z" id="a3OLx59MIM"></path><path d="M194.46 248.47C194.77 248.47 194.95 248.47 194.99 248.47C194.93 254.35 194.9 260.25 195.02 266.14C210.49 266.34 225.96 266.14 241.43 266.24C249.61 266.11 257.8 266.33 265.98 266.15C266.1 260.27 266.03 254.39 266.01 248.51C266.07 248.51 266.55 248.52 266.61 248.52C266.56 254.51 266.65 260.5 266.56 266.5C242.6 266.24 218.62 266.58 194.66 266.32C194.54 266.31 194.31 266.3 194.2 266.29C194.39 260.35 194.29 254.41 194.25 248.47C194.28 248.47 194.34 248.47 194.46 248.47Z" id="b25QUO4ZcD"></path><path d="M158.75 283.68C158.77 283.73 158.97 284.18 159 284.24C152.91 284.07 146.82 284.14 140.73 284.21C134.75 284.23 128.76 284.46 122.79 284.21C125.7 283.5 128.72 283.94 131.68 283.84C140.7 283.53 149.73 283.62 158.75 283.68Z" id="c2Q2OvOy1o"></path><path d="M284.18 283.66C284.86 289.71 284.37 295.83 284.46 301.92C284.46 302.02 284.45 302.21 284.45 302.31C284.3 302.29 283.99 302.27 283.84 302.25C283.88 296.27 283.93 290.28 283.83 284.29C278.1 284.2 272.36 284.17 266.63 284.31C266.49 290.26 266.72 296.21 266.51 302.16C266.18 303.19 266.05 304.27 266.07 305.36C266.08 310.25 266.18 315.15 266.03 320.03C265.7 314.17 266.07 308.29 265.84 302.43C260.13 302.19 254.4 302.33 248.69 302.33C248.46 308.2 248.94 314.08 248.46 319.94C248.41 319.94 248.04 319.96 247.99 319.97C248.12 313.99 248 308.02 248.05 302.04C254.03 301.79 260.06 302.41 266.02 301.68C265.88 295.76 266.02 289.85 265.93 283.94C265.97 283.93 266.18 283.91 266.55 283.87C274.39 283.85 280.26 283.78 284.18 283.66Z" id="c1OEDBC6HD"></path><path d="M159 284.24C159.14 289.99 158.87 295.75 159.15 301.5C153.03 301.79 146.9 301.43 140.78 301.69C140.68 295.86 140.74 290.04 140.73 284.21C146.82 284.14 152.91 284.07 159 284.24Z" id="a4lGTf360R"></path><path d="M176.66 302.12C176.93 308.1 176.28 314.12 177.04 320.07C182.87 319.95 188.71 320.04 194.54 320.01C194.16 325.92 194.67 331.86 194.22 337.76C188.59 337.8 182.19 340.83 176.57 340.64C176.39 336.81 176.4 330.03 176.61 320.31C182.88 321.5 185.82 324.34 185.43 328.81C185.4 339.82 176.63 362.64 176.69 373.66C176.69 373.69 176.69 373.95 176.69 373.98C164.74 373.72 152.78 374.15 140.83 373.78C140.91 367.84 140.66 361.9 140.96 355.97C141.44 349.85 141.03 343.7 141.21 337.57C141.44 331.82 141.25 326.07 141.33 320.32C147.35 320.3 153.38 320.39 159.4 320.24C159.31 314.22 159.47 308.2 159.31 302.18C165.1 302.06 170.88 302.18 176.66 302.12Z" id="aVOI1V4Fn"></path><path d="M248.27 355.75C254.25 355.83 260.22 355.81 266.2 355.79C266.13 361.77 266.11 367.76 266.17 373.74C272.14 373.89 278.11 373.73 284.09 373.84C284.08 373.84 284.04 373.85 284.03 373.85C266.31 373.86 248.58 373.85 230.86 373.81C224.79 373.77 218.71 373.78 212.64 373.8C212.15 367.79 212.39 361.75 212.42 355.73C224.37 355.74 236.32 355.71 248.27 355.75Z" id="bNBFMUrOZ"></path><path d="M427.19 284.14C427.23 290.13 427.11 296.12 427.26 302.11C433.2 302.14 439.13 302.05 445.07 302.16C445.07 308.1 445.07 314.03 445.07 319.97C444.99 325.91 445.21 331.84 444.96 337.78C439.03 337.9 433.1 337.79 427.17 337.84C427.15 346.28 427.19 354.71 427.15 363.16C427.05 366.62 427.45 370.11 426.96 373.55C421.97 374.02 416.94 373.6 411.94 373.76C405.08 373.71 398.22 373.85 391.38 373.64C391.37 367.78 391.38 361.91 391.37 356.04C387.05 356.28 382.74 356.08 378.43 356.16C376.87 356.11 375.21 356.37 373.77 355.65C380.92 355.61 388.06 355.67 395.2 355.62C399.92 355.23 404.64 355.96 409.35 355.34C409.3 343.57 409.35 331.81 409.33 320.04C415.22 319.83 421.13 320.21 427.02 319.86C427.46 313.97 427.04 308.03 427.21 302.13C421.26 302.09 415.3 302.13 409.35 302.1C409.3 296.11 409.36 290.11 409.31 284.11C415.27 284.13 421.23 284.08 427.19 284.14Z" id="b1fCP37SaY"></path><path d="M498.77 355.77C504.73 355.82 510.69 355.81 516.65 355.78C516.8 361.8 516.77 367.82 516.66 373.85C510.78 373.79 504.91 373.86 499.03 373.81C492.97 373.77 486.89 373.75 480.83 373.82C474.93 373.96 469.02 373.72 463.12 373.95C462.89 367.89 463.14 361.83 462.97 355.77C474.9 355.76 486.83 355.78 498.77 355.77Z" id="bA9gNabEl"></path><path d="M498.99 284.13C504.9 284.01 510.82 284.07 516.73 284.11C516.76 290.11 516.74 296.12 516.73 302.12C510.87 302.22 504.97 301.87 499.13 302.29C499.03 302.45 498.83 302.77 498.72 302.93C498.88 308.53 498.7 314.13 498.83 319.73C492.86 320.19 486.88 319.81 480.91 319.97C480.96 314.01 480.92 308.06 480.93 302.12C485.85 302.12 490.76 302.09 495.69 302.13C496.62 302.1 497.65 302.31 498.52 301.81C498.6 301.57 498.75 301.09 498.83 300.86C498.72 295.28 498.84 289.7 498.76 284.13C498.8 284.13 498.96 284.13 498.99 284.13Z" id="aDeWvceO0"></path><path d="M516.79 320.16C517.14 325.96 516.66 331.77 517.07 337.56C522.48 337.91 527.89 337.49 533.31 337.59C539.72 337.66 546.14 337.54 552.55 337.67C552.47 343.69 552.54 349.71 552.52 355.72C540.57 355.85 528.61 355.72 516.65 355.78C510.69 355.81 504.73 355.82 498.77 355.77C498.83 343.9 498.76 332.02 498.8 320.14C504.8 320.13 510.79 320.1 516.79 320.16Z" id="aFv3YPLNw"></path><path d="M462.97 355.77C463.14 361.83 462.89 367.89 463.12 373.95C463.28 379.01 463.15 384.06 463.22 389.13C463.25 390.24 463.27 392.05 461.62 391.66C450.18 391.77 438.73 391.57 427.28 391.62C427.08 385.67 427.13 379.72 427.22 373.78C433.14 373.66 439.06 373.87 444.99 373.68C445.15 367.71 445.01 361.76 445.08 355.8C451.04 355.76 457.01 355.79 462.97 355.77Z" id="eMnTBMjmF"></path><path d="M283.83 284.29C283.93 290.28 283.88 296.27 283.84 302.25C278.06 302.09 272.28 302.27 266.51 302.16C266.72 296.21 266.49 290.26 266.63 284.31C272.36 284.17 278.1 284.2 283.83 284.29Z" id="agkIZXwkf"></path><path d="M265.84 302.43C266.07 308.29 265.7 314.17 266.03 320.03C272.16 320.05 278.28 320.08 284.4 320.02C284.41 320.19 284.41 320.53 284.41 320.7C284.5 326.32 284.42 331.93 284.45 337.55C290.26 337.69 296.07 337.6 301.88 337.6C301.9 343.62 301.88 349.63 301.89 355.64C290 355.91 278.09 355.63 266.2 355.79C260.22 355.81 254.25 355.83 248.27 355.75C248.14 347.82 248.23 339.88 248.22 331.95C248.3 327.95 247.97 323.92 248.46 319.94C248.94 314.08 248.46 308.2 248.69 302.33C254.4 302.33 260.13 302.19 265.84 302.43Z" id="a3SOTVoCqG"></path><path d="M212.5 355.75C212.47 361.77 212.22 367.81 212.71 373.82C212.99 379.75 212.77 385.7 212.84 391.63C206.74 391.7 200.65 391.61 194.56 391.68C188.61 391.72 182.67 391.75 176.73 391.65C176.54 385.76 176.63 379.87 176.64 373.98C176.64 373.94 176.64 373.68 176.64 373.65C182.52 373.83 188.42 373.81 194.3 373.67C194.48 367.71 194.32 361.74 194.37 355.78C200.41 355.75 206.45 355.78 212.5 355.75Z" id="b2Zujeh8AG"></path><path d="M159.15 301.5C159.17 301.66 159.18 302 159.19 302.16C159.35 308.18 159.19 314.2 159.28 320.22C153.25 320.36 147.23 320.28 141.21 320.29C141.07 320.13 140.81 319.8 140.67 319.64C146.72 319.65 152.76 319.65 158.81 319.65C158.95 313.94 159.14 308.19 158.73 302.5C157.65 302.16 156.51 302.23 155.4 302.22C150.53 302.28 145.64 302.24 140.77 302.25C140.77 302.21 140.77 302.02 140.78 301.69C148.94 301.75 155.07 301.69 159.15 301.5Z" id="g39LNh7hT4"></path><path d="M266.51 302.16C272.28 302.27 278.06 302.09 283.84 302.25C283.99 302.27 284.3 302.29 284.45 302.31C284.34 308.21 284.42 314.12 284.4 320.02C278.28 320.08 272.16 320.05 266.03 320.03C266.18 315.15 266.08 310.25 266.07 305.36C266.05 304.27 266.18 303.19 266.51 302.16Z" id="a2LSj2CWBT"></path><path d="M499.13 302.29C504.97 301.87 510.87 302.22 516.73 302.12C516.77 307.92 516.69 313.72 516.77 319.51C510.79 319.72 504.79 319.3 498.83 319.73C498.7 314.13 498.88 308.53 498.72 302.93C498.83 302.77 499.03 302.45 499.13 302.29Z" id="c8pLFdpsHD"></path><path d="M427.21 302.13C427.04 308.03 427.46 313.97 427.02 319.86C421.13 320.21 415.22 319.83 409.33 320.04C409.34 314.06 409.31 308.08 409.35 302.1C415.3 302.13 421.26 302.09 427.21 302.13Z" id="f3ebLqnxMe"></path><path d="M155.4 302.22C156.51 302.23 157.65 302.16 158.73 302.5C159.14 308.19 158.95 313.94 158.81 319.65C152.76 319.65 146.72 319.65 140.67 319.64C140.84 313.85 140.66 308.04 140.77 302.25C145.64 302.24 150.53 302.28 155.4 302.22Z" id="fgL5HjV3o"></path><path d="M516.77 319.51C516.77 319.55 516.78 319.73 516.79 320.05C516.79 320.12 516.79 320.15 516.79 320.16C510.79 320.1 504.8 320.13 498.8 320.14C498.8 320.12 498.81 319.98 498.83 319.73C506.8 319.72 512.78 319.65 516.77 319.51Z" id="b1fV4N6zY1"></path><path d="M570.46 319.62C571.08 320.93 570.78 322.43 570.8 323.84C570.9 338.86 570.83 353.89 570.87 368.91C570.87 370.54 570.8 372.17 570.68 373.8C570.64 373.8 570.32 373.79 570.28 373.79C570.24 358.87 570.29 343.96 570.27 329.04C570.38 326.09 570.39 323.14 570.2 320.2C564.37 320.15 558.54 320.13 552.71 320.21C552.56 326.03 552.83 331.85 552.55 337.67C551.89 334.27 552.2 330.79 552.16 327.36C552.16 324.96 552 322.55 552.37 320.17C552.39 319.98 552.45 319.61 552.48 319.42C558.47 319.75 564.47 319.35 570.46 319.62Z" id="gHGijfeqY"></path><path d="M140.67 319.64C140.81 319.8 141.07 320.13 141.21 320.29C141.13 326.04 141.31 331.79 141.09 337.54C141.05 337.57 140.88 337.72 140.56 337.98C140.48 329.83 140.52 323.71 140.67 319.64Z" id="e4gD0kzLsM"></path><path d="M212.61 320.07C224.43 320.06 236.26 320.1 248.07 320.04C248.12 320.04 248.49 320.02 248.54 320.02C248.05 324 248.39 328.02 248.3 332.03C248.31 339.96 248.22 347.9 248.36 355.83C236.41 355.79 224.46 355.82 212.51 355.81C206.46 355.84 200.42 355.81 194.38 355.84C194.33 361.8 194.49 367.76 194.31 373.73C188.43 373.87 182.53 373.88 176.65 373.71C176.59 362.7 176.61 351.68 176.64 340.66C177.23 333.95 176.91 380.47 177.29 373.75C177.61 379.51 176.34 332.12 176.61 337.87C182.23 338.06 188.55 337.85 194.18 337.82C194.63 331.91 194.12 325.98 194.51 320.07C200.54 320.07 206.58 320.07 212.61 320.07Z" id="d2W9eZyki0"></path><path d="M301.89 355.64C301.95 361.68 301.75 367.71 302 373.74C296.03 373.88 290.06 373.68 284.09 373.84C278.11 373.73 272.14 373.89 266.17 373.74C266.11 367.76 266.13 361.77 266.2 355.79C278.09 355.63 290 355.91 301.89 355.64Z" id="d39IzuMIwq"></path><path d="M176.56 373.96C176.56 379.85 176.47 385.74 176.65 391.63C165.28 391.66 153.91 391.78 142.54 391.73C142.31 391.91 141.85 392.26 141.62 392.44C141.47 392.18 141.16 391.67 141.01 391.42C140.32 385.57 140.88 379.64 140.71 373.75C152.65 374.13 164.61 373.7 176.56 373.96Z" id="biz4XIOpn"></path><path d="M302.41 320.03C302.36 320.07 301.91 320.38 301.86 320.42C296.07 320.96 290.22 320.4 284.41 320.7C284.41 320.53 284.41 320.19 284.4 320.02C290.41 319.97 296.41 319.95 302.41 320.03Z" id="g5CqKLQY7i"></path><path d="M463.2 319.99C469.1 319.98 475 320.02 480.91 319.97C486.88 319.81 492.86 320.19 498.83 319.73C498.82 319.77 498.81 320.1 498.8 320.14C498.76 332.02 498.83 343.9 498.77 355.77C486.83 355.78 474.9 355.76 462.97 355.77C457.01 355.79 451.04 355.76 445.08 355.8C445.01 361.76 445.15 367.71 444.99 373.68C439.06 373.87 433.14 373.66 427.22 373.78C427.13 379.72 427.08 385.67 427.28 391.62C427.28 391.63 427.29 391.76 427.29 391.77C415.51 391.73 403.73 391.73 391.94 391.78C391.74 397.57 392.01 403.38 391.86 409.17C391.86 409.17 391.86 409.16 391.86 409.16C392.06 404.4 391.32 399.67 391.5 394.92C391.3 387.82 391.39 380.73 391.38 373.64C398.22 373.85 405.08 373.71 411.94 373.76C416.94 373.6 421.97 374.02 426.96 373.55C427.45 370.11 427.05 366.62 427.15 363.16C427.19 354.71 427.15 346.28 427.17 337.84C433.1 337.79 439.03 337.9 444.96 337.78C445.21 331.84 444.99 325.91 445.07 319.97C451.12 320.01 457.16 319.98 463.2 319.99Z" id="ha0PP7PUb"></path><path d="M552.52 355.72C552.5 361.73 552.53 367.75 552.5 373.76C552.5 373.78 552.5 373.92 552.5 373.93C540.55 373.77 528.6 373.92 516.66 373.85C516.77 367.82 516.8 361.8 516.65 355.78C528.61 355.72 540.57 355.85 552.52 355.72Z" id="a4nkY7hgx"></path><path d="M141.09 337.54C140.9 343.68 141.32 349.82 140.84 355.95C134.84 355.91 128.86 355.91 122.86 355.96C122.89 355.8 122.95 355.49 122.97 355.33C128.83 355.24 134.68 355.39 140.52 355.27C140.61 349.51 140.52 343.74 140.56 337.98C140.67 337.89 141.04 337.59 141.09 337.54Z" id="d7qzigtF6l"></path><path d="M553.31 391.7C553.18 397.43 553.3 403.16 553.23 408.89C558.99 409.72 564.84 408.65 570.63 409.27C570.7 415.21 570.66 421.16 570.67 427.1C564.83 427.68 558.94 427.02 553.1 427.44C552.46 428.09 552.83 429.18 552.7 430.02C552.74 435.01 552.74 440 552.72 444.99C546.69 445.34 540.61 445.29 534.56 445.03C534.41 439.85 534.46 434.67 534.42 429.49C534.32 428.67 534.49 427.12 533.23 427.36C528.62 427.21 523.99 427.37 519.37 427.28C518.66 427.34 517.24 427.06 517.47 428.26C517.33 433.29 517.51 438.33 517.47 443.36C517.51 444.09 517.35 444.84 516.81 445.38C516.62 439.18 516.85 432.99 516.69 426.79C516.6 420.96 516.39 415.12 516.61 409.3C522.62 408.96 528.67 409.41 534.67 408.85C534.67 408.91 534.69 409.36 534.69 409.42C535.1 415.29 534.6 421.18 535.02 427.05C540.77 427.13 546.52 426.98 552.27 427C552.42 421.13 552.11 415.25 552.5 409.39C552.63 403.62 552.47 397.84 552.56 392.07C552.74 391.97 553.12 391.79 553.31 391.7Z" id="a2FVLu9aaB"></path><path d="M104.74 409.31C106.08 409.58 105.55 411.2 105.72 412.19C105.55 417.16 106.02 422.15 105.51 427.1C104.79 433.01 105.74 438.99 105 444.89C104.7 439.17 105.09 433.43 104.8 427.7C99.15 427.59 93.5 427.47 87.86 427.73C87.78 433.32 87.67 438.92 87.92 444.52C89.56 444.65 91.19 444.82 92.82 444.95C91.04 445.1 89.25 445.25 87.46 445.31C87.03 451.27 87.53 457.26 87.16 463.23C86.59 457.27 87.26 451.25 86.83 445.28C81.05 445.21 75.27 445.46 69.49 445.15C69.33 439.2 69.24 433.24 69.53 427.3C75.4 427 81.28 427.23 87.15 427.01C87.51 421.15 87.01 415.27 87.4 409.4C93.17 409.26 98.96 409.05 104.74 409.31Z" id="a1xHxi2rJp"></path><path d="M176.53 409.19C176.88 415.28 176.37 421.4 176.87 427.49C177.39 433.36 177.01 439.26 177.13 445.15C171.8 445.53 166.46 445.25 161.13 445.32C160 445.42 158.4 444.91 158.7 443.49C158.73 438.11 158.56 432.7 158.84 427.32C164.58 427.06 170.34 427.2 176.09 427.1C176.66 421.14 175.87 415.13 176.53 409.19Z" id="a1htQLikoM"></path><path d="M262.29 409.19C263.51 409.24 264.85 409.03 265.99 409.65C266.48 410.43 266.44 411.39 266.48 412.29C266.5 417.05 266.35 421.81 266.52 426.56C266.65 426.69 266.92 426.95 267.05 427.07C270.46 427.43 273.9 427.1 277.33 427.13C279.5 427.06 281.7 427.36 283.85 426.94C284.45 421.32 283.61 415.61 284.23 410C285.12 409.07 286.55 409.36 287.71 409.28C292.5 409.44 297.31 408.96 302.1 409.4C302.4 414 302.13 418.61 302.25 423.22C302.17 424.49 302.41 425.86 301.92 427.07C301.21 427.7 300.12 427.32 299.26 427.46C294.32 427.5 289.39 427.3 284.46 427.54C284.25 433.41 284.57 439.29 284.29 445.16C278.29 445.43 272.28 445.35 266.29 445.23C265.79 440.04 265.93 434.82 265.95 429.61C265.79 428.93 266.29 427.39 265.15 427.47C259.84 427.4 254.5 427.35 249.19 427.58C248.82 427.22 248.45 426.87 248.09 426.52C248.42 420.83 247.93 415.11 248.39 409.43C253.02 409.21 257.65 409.33 262.29 409.19Z" id="d1BTLH9l4M"></path><path d="M373.51 409.07C373.87 414.94 373.9 420.84 373.78 426.73C373.68 426.74 373.5 426.76 373.41 426.77C367.62 427.32 361.81 426.81 356.02 427.06C355.63 432.73 356.07 438.4 355.98 444.07C357.75 444.2 359.52 444.39 361.3 444.54C359.42 444.71 357.53 444.89 355.65 444.88C349.71 444.86 343.77 445 337.83 444.8C337.6 440.35 337.85 435.89 337.73 431.44C337.78 429.96 337.54 428.41 338.02 426.99C343.76 426.55 349.55 426.78 355.3 426.68C356.23 420.82 355.24 414.83 355.84 408.93C361.72 409.04 367.64 408.44 373.51 409.07Z" id="a3UzwxsTN8"></path><path d="M441.42 427.08C442.78 426.98 444.1 427.34 445.33 427.91C445.37 433.48 445.36 439.05 445.34 444.62C445.23 444.77 445.02 445.08 444.92 445.24C439.31 445.42 433.69 445.28 428.08 445.31C427.66 451.36 428.13 457.43 427.92 463.49C421.81 463.57 415.7 463.32 409.6 463.61C409.22 469.35 410.07 475.14 409.46 480.86C403.84 481.58 398.07 480.82 392.4 481.23C391.91 482.02 392.14 483.02 392.06 483.92C392.07 489.06 392.17 494.2 392.1 499.34C386 499.41 379.88 499.16 373.79 499.52C373.46 505.23 374.22 510.97 373.68 516.67C372.79 516.97 371.83 516.92 370.91 516.95C365.86 516.86 360.81 517.01 355.76 516.87C355.63 511.28 355.63 505.67 355.72 500.08C355.54 498.63 357.21 498.75 358.17 498.74C363.25 498.83 368.33 498.63 373.41 498.86C379.46 499.07 385.51 499.1 391.56 498.87C391.58 492.8 391.52 486.73 391.38 480.68C391.22 474.83 391.39 468.99 391.31 463.14C397.27 462.77 403.25 462.98 409.22 462.91C415.24 463.49 421.33 463.15 427.38 463.09C427.25 457.07 427.33 451.04 427.24 445.03C427.01 439.14 427.21 433.24 427.07 427.35C431.85 427.06 436.64 427.2 441.42 427.08Z" id="c2IbVNOOrs"></path><path d="M141.05 445.06C141.22 451.06 140.73 457.05 140.88 463.06C146.92 463.54 153 463.2 159.04 463.71C159.13 463.72 159.31 463.73 159.4 463.74C153.29 463.98 147.17 463.28 141.07 463.71C140.86 469.09 141.07 474.48 140.92 479.85C141.04 481.35 139.21 481.1 138.23 481.12C133.15 480.85 128.05 481.1 122.98 480.59C122.78 480.57 122.39 480.52 122.18 480.5C123.23 474.66 122.25 468.67 123.13 462.83C128.82 462.38 134.56 462.9 140.28 462.94C140.94 457 140.35 450.99 141.05 445.06Z" id="b29ufeXVBM"></path><path d="M105.13 480.82C104.98 486.84 104.97 492.86 105.12 498.89C111.15 499.23 117.19 498.72 123.21 499.04C123.26 499.06 123.69 499.21 123.75 499.23C117.69 499.67 111.61 499.05 105.54 499.48C105.33 505.25 105.61 511.03 105.49 516.8C99.39 517.06 93.26 517 87.16 516.81C86.93 512.39 87.13 507.98 87.04 503.56C87.03 502.04 86.91 500.49 87.31 499C92.99 498.42 98.76 498.89 104.48 498.78C105.02 493.25 104.52 487.69 104.72 482.14C104.82 481.82 105.03 481.15 105.13 480.82Z" id="b7A03HRC20"></path><path d="M463.09 480.76C463.5 481.34 463.71 482 463.71 482.74C463.83 488.08 463.4 493.45 463.95 498.78C469.65 498.88 475.37 498.51 481.06 498.96C481.17 504.9 481.1 510.85 481.1 516.79C475.18 517.17 469.25 516.81 463.32 516.96C463.01 522.88 463.28 528.81 463.2 534.73C457.13 534.93 451.04 534.98 444.97 534.69C445.12 528.63 444.73 522.57 445.02 516.53C450.93 516.31 456.86 516.62 462.77 516.35C463.08 510.75 462.87 505.13 462.69 499.53C456.8 499.14 450.9 499.5 445.01 499.34C445.01 499.31 445.02 499.03 445.02 499C451 498.98 456.98 499.1 462.95 498.93C463.12 492.87 462.86 486.81 463.09 480.76Z" id="arwiJzbNa"></path><path d="M212.4 498.63C212.97 501.19 212.69 503.83 212.75 506.43C212.73 509.9 212.84 513.37 212.62 516.85C207.4 517.04 202.17 516.89 196.94 516.89C196.32 517.03 195 516.65 194.92 517.59C194.53 523.26 195.22 529.01 194.6 534.66C188.66 535.01 182.67 534.9 176.72 534.74C176.58 528.63 176.45 522.51 176.77 516.42C182.68 516.35 188.61 516.63 194.53 516.27C194.43 510.63 194.66 504.97 194.33 499.34C188.41 499.17 182.46 499.7 176.56 499.11C182.66 498.72 188.78 499.31 194.87 498.8C200.71 498.59 206.56 498.91 212.4 498.63Z" id="a5MtVsuTV8"></path></defs><g><g><g><use xlink:href="#a5C1xTIIMM" opacity="1" fill="#39ad49" fill-opacity="1"></use><g><use xlink:href="#a5C1xTIIMM" opacity="1" fill-opacity="0" stroke="#39ad49" stroke-width="1" stroke-opacity="1"></use></g></g><g><use xlink:href="#bxPbQbS9c" opacity="1" fill="#39ad49" fill-opacity="1"></use><g><use xlink:href="#bxPbQbS9c" opacity="1" fill-opacity="0" stroke="#000000" stroke-width="1" stroke-opacity="0"></use></g></g><g><use xlink:href="#b13z2yBlLJ" opacity="1" fill="#39ad49" fill-opacity="1"></use><g><use xlink:href="#b13z2yBlLJ" opacity="1" fill-opacity="0" stroke="#000000" stroke-width="1" stroke-opacity="0"></use></g></g><g><use xlink:href="#d2OXmhHGVB" opacity="1" fill="#39ad49" fill-opacity="1"></use><g><use xlink:href="#d2OXmhHGVB" opacity="1" fill-opacity="0" stroke="#000000" stroke-width="1" stroke-opacity="0"></use></g></g><g><use xlink:href="#d4lH4PnAq" opacity="1" fill="#4ecf34" fill-opacity="1"></use><g><use xlink:href="#d4lH4PnAq" opacity="1" fill-opacity="0" stroke="#000000" stroke-width="1" stroke-opacity="0"></use></g></g><g><use xlink:href="#a1Nc1gerp0" opacity="1" fill="#4ecf34" fill-opacity="1"></use><g><use xlink:href="#a1Nc1gerp0" opacity="1" fill-opacity="0" stroke="#4ecf34" stroke-width="1" stroke-opacity="1"></use></g></g><g><use xlink:href="#a5lXD4jSC7" opacity="1" fill="#4ecf34" fill-opacity="1"></use><g><use xlink:href="#a5lXD4jSC7" opacity="1" fill-opacity="0" stroke="#000000" stroke-width="1" stroke-opacity="0"></use></g></g><g><use xlink:href="#j24Npe7W8g" opacity="1" fill="#2d8739" fill-opacity="1"></use><g><use xlink:href="#j24Npe7W8g" opacity="1" fill-opacity="0" stroke="#000000" stroke-width="1" stroke-opacity="0"></use></g></g><g><use xlink:href="#cb77czZbi" opacity="1" fill="#2d8739" fill-opacity="1"></use><g><use xlink:href="#cb77czZbi" opacity="1" fill-opacity="0" stroke="#000000" stroke-width="1" stroke-opacity="0"></use></g></g><g><use xlink:href="#d1VrGIgzb3" opacity="1" fill="#a8deff" fill-opacity="0.8"></use><g><use xlink:href="#d1VrGIgzb3" opacity="1" fill-opacity="0" stroke="#000000" stroke-width="1" stroke-opacity="0"></use></g></g><g><use xlink:href="#axcE85xPV" opacity="1" fill="#a8deff" fill-opacity="0.8"></use><g><use xlink:href="#axcE85xPV" opacity="1" fill-opacity="0" stroke="#000000" stroke-width="1" stroke-opacity="0"></use></g></g><g><use xlink:href="#b1v2DEOXnB" opacity="1" fill="#a8deff" fill-opacity="1"></use><g><use xlink:href="#b1v2DEOXnB" opacity="1" fill-opacity="0" stroke="#000000" stroke-width="1" stroke-opacity="0"></use></g></g><g><use xlink:href="#bXFvbXfKV" opacity="1" fill="#a8deff" fill-opacity="1"></use><g><use xlink:href="#bXFvbXfKV" opacity="1" fill-opacity="0" stroke="#000000" stroke-width="1" stroke-opacity="0"></use></g></g><g><use xlink:href="#a3vBXQBmmv" opacity="1" fill="#a8deff" fill-opacity="1"></use><g><use xlink:href="#a3vBXQBmmv" opacity="1" fill-opacity="0" stroke="#000000" stroke-width="1" stroke-opacity="0"></use></g></g><g><use xlink:href="#a8TRZs46k" opacity="1" fill="#a8deff" fill-opacity="1"></use><g><use xlink:href="#a8TRZs46k" opacity="1" fill-opacity="0" stroke="#000000" stroke-width="1" stroke-opacity="0"></use></g></g><g><use xlink:href="#d5wg07hbfA" opacity="1" fill="#fff1e8" fill-opacity="0.8"></use><g><use xlink:href="#d5wg07hbfA" opacity="1" fill-opacity="0" stroke="#000000" stroke-width="1" stroke-opacity="0"></use></g></g><g><use xlink:href="#a98nGT9KF" opacity="1" fill="#fff1e8" fill-opacity="0.8"></use><g><use xlink:href="#a98nGT9KF" opacity="1" fill-opacity="0" stroke="#000000" stroke-width="1" stroke-opacity="0"></use></g></g><g><use xlink:href="#b5UqafABit" opacity="1" fill="#fff1e8" fill-opacity="1"></use><g><use xlink:href="#b5UqafABit" opacity="1" fill-opacity="0" stroke="#000000" stroke-width="1" stroke-opacity="0"></use></g></g><g><use xlink:href="#c1TjG33hf3" opacity="1" fill="#fff1e8" fill-opacity="1"></use><g><use xlink:href="#c1TjG33hf3" opacity="1" fill-opacity="0" stroke="#000000" stroke-width="1" stroke-opacity="0"></use></g></g><g><use xlink:href="#ajuTCgs4I" opacity="1" fill="#fff1e8" fill-opacity="1"></use><g><use xlink:href="#ajuTCgs4I" opacity="1" fill-opacity="0" stroke="#000000" stroke-width="1" stroke-opacity="0"></use></g></g><g><use xlink:href="#b1i0yOCqp3" opacity="1" fill="#fff1e8" fill-opacity="1"></use><g><use xlink:href="#b1i0yOCqp3" opacity="1" fill-opacity="0" stroke="#000000" stroke-width="1" stroke-opacity="0"></use></g></g><g><use xlink:href="#cRNCFzL2f" opacity="1" fill="#fff1e8" fill-opacity="0.6"></use><g><use xlink:href="#cRNCFzL2f" opacity="1" fill-opacity="0" stroke="#000000" stroke-width="1" stroke-opacity="0"></use></g></g><g><use xlink:href="#lVrwNssF2" opacity="1" fill="#fff1e8" fill-opacity="0.6"></use><g><use xlink:href="#lVrwNssF2" opacity="1" fill-opacity="0" stroke="#000000" stroke-width="1" stroke-opacity="0"></use></g></g><g><use xlink:href="#b3Nu1eGJxO" opacity="1" fill="#fff1e8" fill-opacity="0.6"></use><g><use xlink:href="#b3Nu1eGJxO" opacity="1" fill-opacity="0" stroke="#000000" stroke-width="1" stroke-opacity="0"></use></g></g><g><use xlink:href="#j2LJPaZV2G" opacity="1" fill="#fff1e8" fill-opacity="0.6"></use><g><use xlink:href="#j2LJPaZV2G" opacity="1" fill-opacity="0" stroke="#000000" stroke-width="1" stroke-opacity="0"></use></g></g><g><use xlink:href="#a3WQ12cDZw" opacity="1" fill="#fff1e8" fill-opacity="0.6"></use><g><use xlink:href="#a3WQ12cDZw" opacity="1" fill-opacity="0" stroke="#000000" stroke-width="1" stroke-opacity="0"></use></g></g><g><use xlink:href="#l2IvvaSYit" opacity="1" fill="#fff1e8" fill-opacity="0.6"></use><g><use xlink:href="#l2IvvaSYit" opacity="1" fill-opacity="0" stroke="#000000" stroke-width="1" stroke-opacity="0"></use></g></g><g><use xlink:href="#bGqPi37dv" opacity="1" fill="#fff1e8" fill-opacity="0.6"></use><g><use xlink:href="#bGqPi37dv" opacity="1" fill-opacity="0" stroke="#000000" stroke-width="1" stroke-opacity="0"></use></g></g><g><use xlink:href="#bNanJrdUg" opacity="1" fill="#fff1e8" fill-opacity="0.6"></use><g><use xlink:href="#bNanJrdUg" opacity="1" fill-opacity="0" stroke="#000000" stroke-width="1" stroke-opacity="0"></use></g></g><g><use xlink:href="#csaSATKlH" opacity="1" fill="#fff1e8" fill-opacity="0.6"></use><g><use xlink:href="#csaSATKlH" opacity="1" fill-opacity="0" stroke="#000000" stroke-width="1" stroke-opacity="0"></use></g></g><g><use xlink:href="#gxEYtio7O" opacity="1" fill="#fff1e8" fill-opacity="0.6"></use><g><use xlink:href="#gxEYtio7O" opacity="1" fill-opacity="0" stroke="#000000" stroke-width="1" stroke-opacity="0"></use></g></g><g><use xlink:href="#c2z1SZwaX3" opacity="1" fill="#fff1e8" fill-opacity="0.6"></use><g><use xlink:href="#c2z1SZwaX3" opacity="1" fill-opacity="0" stroke="#000000" stroke-width="1" stroke-opacity="0"></use></g></g><g><use xlink:href="#degdG7mzk" opacity="1" fill="#fff1e8" fill-opacity="0.6"></use><g><use xlink:href="#degdG7mzk" opacity="1" fill-opacity="0" stroke="#000000" stroke-width="1" stroke-opacity="0"></use></g></g><g><use xlink:href="#aVBweLUnX" opacity="1" fill="#fff1e8" fill-opacity="0.6"></use><g><use xlink:href="#aVBweLUnX" opacity="1" fill-opacity="0" stroke="#000000" stroke-width="1" stroke-opacity="0"></use></g></g><g><use xlink:href="#a406g3XHYC" opacity="1" fill="#fff1e8" fill-opacity="0.6"></use><g><use xlink:href="#a406g3XHYC" opacity="1" fill-opacity="0" stroke="#000000" stroke-width="1" stroke-opacity="0"></use></g></g><g><use xlink:href="#d1S65kk3lz" opacity="1" fill="#c7171d" fill-opacity="1"></use><g><use xlink:href="#d1S65kk3lz" opacity="1" fill-opacity="0" stroke="#c7171d" stroke-width="1" stroke-opacity="1"></use></g></g><g><use xlink:href="#k1u44JRvYQ" opacity="1" fill="#c7171d" fill-opacity="1"></use><g><use xlink:href="#k1u44JRvYQ" opacity="1" fill-opacity="0" stroke="#c7171d" stroke-width="1" stroke-opacity="1"></use></g></g><g><use xlink:href="#doHBRn4ez" opacity="1" fill="#c7171d" fill-opacity="1"></use><g><use xlink:href="#doHBRn4ez" opacity="1" fill-opacity="0" stroke="#000000" stroke-width="1" stroke-opacity="0"></use></g></g><g><use xlink:href="#b5DNgOhMpY" opacity="1" fill="#c7171d" fill-opacity="1"></use><g><use xlink:href="#b5DNgOhMpY" opacity="1" fill-opacity="0" stroke="#000000" stroke-width="1" stroke-opacity="0"></use></g></g><g><use xlink:href="#h2UYseLGhd" opacity="1" fill="#ed1c24" fill-opacity="1"></use><g><use xlink:href="#h2UYseLGhd" opacity="1" fill-opacity="0" stroke="#000000" stroke-width="1" stroke-opacity="0"></use></g></g><g><use xlink:href="#bh74wNqa" opacity="1" fill="#ed1c24" fill-opacity="1"></use><g><use xlink:href="#bh74wNqa" opacity="1" fill-opacity="0" stroke="#ed1c24" stroke-width="1" stroke-opacity="1"></use></g></g><g><use xlink:href="#cWTwARx6N" opacity="1" fill="#ed1c24" fill-opacity="1"></use><g><use xlink:href="#cWTwARx6N" opacity="1" fill-opacity="0" stroke="#000000" stroke-width="1" stroke-opacity="0"></use></g></g><g><use xlink:href="#g2YiSoj9VV" opacity="1" fill="#5bf23d" fill-opacity="1"></use><g><use xlink:href="#g2YiSoj9VV" opacity="1" fill-opacity="0" stroke="#000000" stroke-width="1" stroke-opacity="0"></use></g></g><g><use xlink:href="#a1WRnxMMZ" opacity="1" fill="#850c0e" fill-opacity="1"></use><g><use xlink:href="#a1WRnxMMZ" opacity="1" fill-opacity="0" stroke="#000000" stroke-width="1" stroke-opacity="0"></use></g></g><g><use xlink:href="#bkHN4H5Fl" opacity="1" fill="#850c0e" fill-opacity="1"></use><g><use xlink:href="#bkHN4H5Fl" opacity="1" fill-opacity="0" stroke="#000000" stroke-width="1" stroke-opacity="0"></use></g></g><g><use xlink:href="#j1SscNoFon" opacity="1" fill="#ab5236" fill-opacity="1"></use><g><use xlink:href="#j1SscNoFon" opacity="1" fill-opacity="0" stroke="#000000" stroke-width="1" stroke-opacity="0"></use></g></g><g><use xlink:href="#b7qMFRWpSl" opacity="1" fill="#ab5236" fill-opacity="1"></use><g><use xlink:href="#b7qMFRWpSl" opacity="1" fill-opacity="0" stroke="#000000" stroke-width="1" stroke-opacity="0"></use></g></g><g><use xlink:href="#bsTlMnFWr" opacity="1" fill="#ffb380" fill-opacity="1"></use><g><use xlink:href="#bsTlMnFWr" opacity="1" fill-opacity="0" stroke="#000000" stroke-width="1" stroke-opacity="0"></use></g></g><g><use xlink:href="#a5pdon4yAg" opacity="1" fill="#ffb380" fill-opacity="1"></use><g><use xlink:href="#a5pdon4yAg" opacity="1" fill-opacity="0" stroke="#000000" stroke-width="1" stroke-opacity="0"></use></g></g><g><use xlink:href="#k2SI7vyxSv" opacity="1" fill="#ffb380" fill-opacity="1"></use><g><use xlink:href="#k2SI7vyxSv" opacity="1" fill-opacity="0" stroke="#000000" stroke-width="1" stroke-opacity="0"></use></g></g><g><use xlink:href="#eDIFmQqN" opacity="1" fill="#ffb380" fill-opacity="1"></use><g><use xlink:href="#eDIFmQqN" opacity="1" fill-opacity="0" stroke="#000000" stroke-width="1" stroke-opacity="0"></use></g></g><g><use xlink:href="#f34v9Z9Mna" opacity="1" fill="#ffb380" fill-opacity="1"></use><g><use xlink:href="#f34v9Z9Mna" opacity="1" fill-opacity="0" stroke="#000000" stroke-width="1" stroke-opacity="0"></use></g></g><g><use xlink:href="#b2k5Omj4rv" opacity="1" fill="#ffb380" fill-opacity="1"></use><g><use xlink:href="#b2k5Omj4rv" opacity="1" fill-opacity="0" stroke="#000000" stroke-width="1" stroke-opacity="0"></use></g></g><g><use xlink:href="#aeEYKzmj2" opacity="1" fill="#ffb380" fill-opacity="1"></use><g><use xlink:href="#aeEYKzmj2" opacity="1" fill-opacity="0" stroke="#000000" stroke-width="1" stroke-opacity="0"></use></g></g><g><use xlink:href="#d3yS0kDHWf" opacity="1" fill="#ffb380" fill-opacity="1"></use><g><use xlink:href="#d3yS0kDHWf" opacity="1" fill-opacity="0" stroke="#000000" stroke-width="1" stroke-opacity="0"></use></g></g><g><use xlink:href="#b5MX8PxB0o" opacity="1" fill="#ffb380" fill-opacity="1"></use><g><use xlink:href="#b5MX8PxB0o" opacity="1" fill-opacity="0" stroke="#000000" stroke-width="1" stroke-opacity="0"></use></g></g><g><use xlink:href="#aed9UzIqQ" opacity="1" fill="#f16649" fill-opacity="1"></use><g><use xlink:href="#aed9UzIqQ" opacity="1" fill-opacity="0" stroke="#000000" stroke-width="1" stroke-opacity="0"></use></g></g><g><use xlink:href="#a38GELkrtJ" opacity="1" fill="#ffccaa" fill-opacity="1"></use><g><use xlink:href="#a38GELkrtJ" opacity="1" fill-opacity="0" stroke="#000000" stroke-width="1" stroke-opacity="0"></use></g></g><g><use xlink:href="#cbHkT7BYN" opacity="1" fill="#ffccaa" fill-opacity="1"></use><g><use xlink:href="#cbHkT7BYN" opacity="1" fill-opacity="0" stroke="#000000" stroke-width="1" stroke-opacity="0"></use></g></g><g><use xlink:href="#c6967RsY0C" opacity="1" fill="#ffccaa" fill-opacity="1"></use><g><use xlink:href="#c6967RsY0C" opacity="1" fill-opacity="0" stroke="#000000" stroke-width="1" stroke-opacity="0"></use></g></g><g><use xlink:href="#doVBg8cdE" opacity="1" fill="#2e0d1e" fill-opacity="1"></use><g><use xlink:href="#doVBg8cdE" opacity="1" fill-opacity="0" stroke="#000000" stroke-width="1" stroke-opacity="0"></use></g></g><g><use xlink:href="#b4J3LfJ6sq" opacity="1" fill="#2e0d1e" fill-opacity="1"></use><g><use xlink:href="#b4J3LfJ6sq" opacity="1" fill-opacity="0" stroke="#000000" stroke-width="1" stroke-opacity="0"></use></g></g><g><use xlink:href="#avSZWrOzG" opacity="1" fill="#2e0d1e" fill-opacity="1"></use><g><use xlink:href="#avSZWrOzG" opacity="1" fill-opacity="0" stroke="#000000" stroke-width="1" stroke-opacity="0"></use></g></g><g><use xlink:href="#afdQhtg3o" opacity="1" fill="#2e0d1e" fill-opacity="1"></use><g><use xlink:href="#afdQhtg3o" opacity="1" fill-opacity="0" stroke="#000000" stroke-width="1" stroke-opacity="0"></use></g></g><g><use xlink:href="#a5nrNxhuY5" opacity="1" fill="#ff6b98" fill-opacity="1"></use><g><use xlink:href="#a5nrNxhuY5" opacity="1" fill-opacity="0" stroke="#ff6b98" stroke-width="1" stroke-opacity="1"></use></g></g><g><use xlink:href="#a6sQK08EHW" opacity="1" fill="#a7492f" fill-opacity="1"></use><g><use xlink:href="#a6sQK08EHW" opacity="1" fill-opacity="0" stroke="#000000" stroke-width="1" stroke-opacity="0"></use></g></g><g><use xlink:href="#a2qSVb9Klc" opacity="1" fill="#a7492f" fill-opacity="1"></use><g><use xlink:href="#a2qSVb9Klc" opacity="1" fill-opacity="0" stroke="#000000" stroke-width="1" stroke-opacity="0"></use></g></g><g><use xlink:href="#b11xHXomYg" opacity="1" fill="#7c514b" fill-opacity="1"></use><g><use xlink:href="#b11xHXomYg" opacity="1" fill-opacity="0" stroke="#000000" stroke-width="1" stroke-opacity="0"></use></g></g><g><use xlink:href="#aaUUY2Hp9" opacity="1" fill="#260817" fill-opacity="1"></use><g><use xlink:href="#aaUUY2Hp9" opacity="1" fill-opacity="0" stroke="#000000" stroke-width="1" stroke-opacity="0"></use></g></g><g><use xlink:href="#a1EmHFVMNT" opacity="1" fill="#260817" fill-opacity="1"></use><g><use xlink:href="#a1EmHFVMNT" opacity="1" fill-opacity="0" stroke="#000000" stroke-width="1" stroke-opacity="0"></use></g></g><g><use xlink:href="#c2RDqyfiNb" opacity="1" fill="#260817" fill-opacity="1"></use><g><use xlink:href="#c2RDqyfiNb" opacity="1" fill-opacity="0" stroke="#000000" stroke-width="1" stroke-opacity="0"></use></g></g><g><use xlink:href="#b1a1cGkVh" opacity="1" fill="#260817" fill-opacity="1"></use><g><use xlink:href="#b1a1cGkVh" opacity="1" fill-opacity="0" stroke="#000000" stroke-width="1" stroke-opacity="0"></use></g></g><g><use xlink:href="#pnLI7ZW84" opacity="1" fill="#f05887" fill-opacity="1"></use><g><use xlink:href="#pnLI7ZW84" opacity="1" fill-opacity="0" stroke="#f05887" stroke-width="1" stroke-opacity="1"></use></g></g><g><use xlink:href="#gewMZGwv" opacity="1" fill="#7e2553" fill-opacity="1"></use><g><use xlink:href="#gewMZGwv" opacity="1" fill-opacity="0" stroke="#000000" stroke-width="1" stroke-opacity="0"></use></g></g><g><use xlink:href="#d1ciqSzXR" opacity="1" fill="#ff487f" fill-opacity="1"></use><g><use xlink:href="#d1ciqSzXR" opacity="1" fill-opacity="0" stroke="#000000" stroke-width="1" stroke-opacity="0"></use></g></g><g><use xlink:href="#d2nleTMnRF" opacity="1" fill="#7b1b4d" fill-opacity="1"></use><g><use xlink:href="#d2nleTMnRF" opacity="1" fill-opacity="0" stroke="#000000" stroke-width="1" stroke-opacity="0"></use></g></g><g><use xlink:href="#a2vcy0crb6" opacity="1" fill="#7b1b4d" fill-opacity="1"></use><g><use xlink:href="#a2vcy0crb6" opacity="1" fill-opacity="0" stroke="#000000" stroke-width="1" stroke-opacity="0"></use></g></g><g><use xlink:href="#a3OLx59MIM" opacity="1" fill="#ee3470" fill-opacity="1"></use><g><use xlink:href="#a3OLx59MIM" opacity="1" fill-opacity="0" stroke="#000000" stroke-width="1" stroke-opacity="0"></use></g></g><g><use xlink:href="#b25QUO4ZcD" opacity="1" fill="#b76064" fill-opacity="1"></use><g><use xlink:href="#b25QUO4ZcD" opacity="1" fill-opacity="0" stroke="#000000" stroke-width="1" stroke-opacity="0"></use></g></g><g><use xlink:href="#c2Q2OvOy1o" opacity="1" fill="#87809d" fill-opacity="1"></use><g><use xlink:href="#c2Q2OvOy1o" opacity="1" fill-opacity="0" stroke="#000000" stroke-width="1" stroke-opacity="0"></use></g></g><g><use xlink:href="#c1OEDBC6HD" opacity="1" fill="#7e7a97" fill-opacity="1"></use><g><use xlink:href="#c1OEDBC6HD" opacity="1" fill-opacity="0" stroke="#000000" stroke-width="1" stroke-opacity="0"></use></g></g><g><use xlink:href="#a4lGTf360R" opacity="1" fill="#0061af" fill-opacity="1"></use><g><use xlink:href="#a4lGTf360R" opacity="1" fill-opacity="0" stroke="#0061af" stroke-width="1" stroke-opacity="1"></use></g></g><g><use xlink:href="#aVOI1V4Fn" opacity="1" fill="#0061af" fill-opacity="1"></use><g><use xlink:href="#aVOI1V4Fn" opacity="1" fill-opacity="0" stroke="#0061af" stroke-width="1" stroke-opacity="1"></use></g></g><g><use xlink:href="#bNBFMUrOZ" opacity="1" fill="#0061af" fill-opacity="1"></use><g><use xlink:href="#bNBFMUrOZ" opacity="1" fill-opacity="0" stroke="#0061af" stroke-width="1" stroke-opacity="1"></use></g></g><g><use xlink:href="#b1fCP37SaY" opacity="1" fill="#2046c4" fill-opacity="1"></use><g><use xlink:href="#b1fCP37SaY" opacity="1" fill-opacity="0" stroke="#000000" stroke-width="1" stroke-opacity="0"></use></g></g><g><use xlink:href="#bA9gNabEl" opacity="1" fill="#2046c4" fill-opacity="1"></use><g><use xlink:href="#bA9gNabEl" opacity="1" fill-opacity="0" stroke="#000000" stroke-width="1" stroke-opacity="0"></use></g></g><g><use xlink:href="#aDeWvceO0" opacity="1" fill="#299bff" fill-opacity="1"></use><g><use xlink:href="#aDeWvceO0" opacity="1" fill-opacity="0" stroke="#000000" stroke-width="1" stroke-opacity="0"></use></g></g><g><use xlink:href="#aFv3YPLNw" opacity="1" fill="#299bff" fill-opacity="1"></use><g><use xlink:href="#aFv3YPLNw" opacity="1" fill-opacity="0" stroke="#000000" stroke-width="1" stroke-opacity="0"></use></g></g><g><use xlink:href="#eMnTBMjmF" opacity="1" fill="#299bff" fill-opacity="1"></use><g><use xlink:href="#eMnTBMjmF" opacity="1" fill-opacity="0" stroke="#000000" stroke-width="1" stroke-opacity="0"></use></g></g><g><use xlink:href="#agkIZXwkf" opacity="1" fill="#3b9ed8" fill-opacity="1"></use><g><use xlink:href="#agkIZXwkf" opacity="1" fill-opacity="0" stroke="#000000" stroke-width="1" stroke-opacity="0"></use></g></g><g><use xlink:href="#a3SOTVoCqG" opacity="1" fill="#3b9ed8" fill-opacity="1"></use><g><use xlink:href="#a3SOTVoCqG" opacity="1" fill-opacity="0" stroke="#3b9ed8" stroke-width="1" stroke-opacity="1"></use></g></g><g><use xlink:href="#b2Zujeh8AG" opacity="1" fill="#3b9ed8" fill-opacity="1"></use><g><use xlink:href="#b2Zujeh8AG" opacity="1" fill-opacity="0" stroke="#3b9ed8" stroke-width="1" stroke-opacity="1"></use></g></g><g><use xlink:href="#g39LNh7hT4" opacity="1" fill="#5f756e" fill-opacity="1"></use><g><use xlink:href="#g39LNh7hT4" opacity="1" fill-opacity="0" stroke="#000000" stroke-width="1" stroke-opacity="0"></use></g></g><g><use xlink:href="#a2LSj2CWBT" opacity="1" fill="#ffd900" fill-opacity="1"></use><g><use xlink:href="#a2LSj2CWBT" opacity="1" fill-opacity="0" stroke="#000000" stroke-width="1" stroke-opacity="0"></use></g></g><g><use xlink:href="#c8pLFdpsHD" opacity="1" fill="#ffd900" fill-opacity="1"></use><g><use xlink:href="#c8pLFdpsHD" opacity="1" fill-opacity="0" stroke="#000000" stroke-width="1" stroke-opacity="0"></use></g></g><g><use xlink:href="#f3ebLqnxMe" opacity="1" fill="#ff9d00" fill-opacity="1"></use><g><use xlink:href="#f3ebLqnxMe" opacity="1" fill-opacity="0" stroke="#000000" stroke-width="1" stroke-opacity="0"></use></g></g><g><use xlink:href="#fgL5HjV3o" opacity="1" fill="#ff9d00" fill-opacity="1"></use><g><use xlink:href="#fgL5HjV3o" opacity="1" fill-opacity="0" stroke="#000000" stroke-width="1" stroke-opacity="0"></use></g></g><g><use xlink:href="#b1fV4N6zY1" opacity="1" fill="#a6bf6a" fill-opacity="1"></use><g><use xlink:href="#b1fV4N6zY1" opacity="1" fill-opacity="0" stroke="#000000" stroke-width="1" stroke-opacity="0"></use></g></g><g><use xlink:href="#gHGijfeqY" opacity="1" fill="#485d76" fill-opacity="1"></use><g><use xlink:href="#gHGijfeqY" opacity="1" fill-opacity="0" stroke="#000000" stroke-width="1" stroke-opacity="0"></use></g></g><g><use xlink:href="#e4gD0kzLsM" opacity="1" fill="#544373" fill-opacity="1"></use><g><use xlink:href="#e4gD0kzLsM" opacity="1" fill-opacity="0" stroke="#000000" stroke-width="1" stroke-opacity="0"></use></g></g><g><use xlink:href="#d2W9eZyki0" opacity="1" fill="#2173ba" fill-opacity="1"></use><g><use xlink:href="#d2W9eZyki0" opacity="1" fill-opacity="0" stroke="#2173ba" stroke-width="1" stroke-opacity="1"></use></g></g><g><use xlink:href="#d39IzuMIwq" opacity="1" fill="#2173ba" fill-opacity="1"></use><g><use xlink:href="#d39IzuMIwq" opacity="1" fill-opacity="0" stroke="#2173ba" stroke-width="1" stroke-opacity="1"></use></g></g><g><use xlink:href="#biz4XIOpn" opacity="1" fill="#2173ba" fill-opacity="1"></use><g><use xlink:href="#biz4XIOpn" opacity="1" fill-opacity="0" stroke="#000000" stroke-width="1" stroke-opacity="0"></use></g></g><g><use xlink:href="#g5CqKLQY7i" opacity="1" fill="#8d8ca6" fill-opacity="1"></use><g><use xlink:href="#g5CqKLQY7i" opacity="1" fill-opacity="0" stroke="#000000" stroke-width="1" stroke-opacity="0"></use></g></g><g><use xlink:href="#ha0PP7PUb" opacity="1" fill="#295bff" fill-opacity="1"></use><g><use xlink:href="#ha0PP7PUb" opacity="1" fill-opacity="0" stroke="#295bff" stroke-width="1" stroke-opacity="1"></use></g></g><g><use xlink:href="#a4nkY7hgx" opacity="1" fill="#295bff" fill-opacity="1"></use><g><use xlink:href="#a4nkY7hgx" opacity="1" fill-opacity="0" stroke="#295bff" stroke-width="1" stroke-opacity="1"></use></g></g><g><use xlink:href="#d7qzigtF6l" opacity="1" fill="#7094b6" fill-opacity="1"></use><g><use xlink:href="#d7qzigtF6l" opacity="1" fill-opacity="0" stroke="#000000" stroke-width="1" stroke-opacity="0"></use></g></g><g><use xlink:href="#a2FVLu9aaB" opacity="1" fill="#94d8f7" fill-opacity="0.6"></use><g><use xlink:href="#a2FVLu9aaB" opacity="1" fill-opacity="0" stroke="#000000" stroke-width="1" stroke-opacity="0"></use></g></g><g><use xlink:href="#a1xHxi2rJp" opacity="1" fill="#94d8f7" fill-opacity="0.6"></use><g><use xlink:href="#a1xHxi2rJp" opacity="1" fill-opacity="0" stroke="#000000" stroke-width="1" stroke-opacity="0"></use></g></g><g><use xlink:href="#a1htQLikoM" opacity="1" fill="#94d8f7" fill-opacity="0.4"></use><g><use xlink:href="#a1htQLikoM" opacity="1" fill-opacity="0" stroke="#000000" stroke-width="1" stroke-opacity="0"></use></g></g><g><use xlink:href="#d1BTLH9l4M" opacity="1" fill="#94d8f7" fill-opacity="0.4"></use><g><use xlink:href="#d1BTLH9l4M" opacity="1" fill-opacity="0" stroke="#000000" stroke-width="1" stroke-opacity="0"></use></g></g><g><use xlink:href="#a3UzwxsTN8" opacity="1" fill="#94d8f7" fill-opacity="0.6"></use><g><use xlink:href="#a3UzwxsTN8" opacity="1" fill-opacity="0" stroke="#000000" stroke-width="1" stroke-opacity="0"></use></g></g><g><use xlink:href="#c2IbVNOOrs" opacity="1" fill="#94d8f7" fill-opacity="0.4"></use><g><use xlink:href="#c2IbVNOOrs" opacity="1" fill-opacity="0" stroke="#000000" stroke-width="1" stroke-opacity="0"></use></g></g><g><use xlink:href="#b29ufeXVBM" opacity="1" fill="#94d8f7" fill-opacity="0.4"></use><g><use xlink:href="#b29ufeXVBM" opacity="1" fill-opacity="0" stroke="#000000" stroke-width="1" stroke-opacity="0"></use></g></g><g><use xlink:href="#b7A03HRC20" opacity="1" fill="#94d8f7" fill-opacity="0.4"></use><g><use xlink:href="#b7A03HRC20" opacity="1" fill-opacity="0" stroke="#000000" stroke-width="1" stroke-opacity="0"></use></g></g><g><use xlink:href="#arwiJzbNa" opacity="1" fill="#94d8f7" fill-opacity="0.4"></use><g><use xlink:href="#arwiJzbNa" opacity="1" fill-opacity="0" stroke="#000000" stroke-width="1" stroke-opacity="0"></use></g></g><g><use xlink:href="#a5MtVsuTV8" opacity="1" fill="#94d8f7" fill-opacity="0.4"></use><g><use xlink:href="#a5MtVsuTV8" opacity="1" fill-opacity="0" stroke="#000000" stroke-width="1" stroke-opacity="0"></use></g></g></g></g></svg>