<?xml version="1.0" standalone="no"?>
<!DOCTYPE svg PUBLIC "-//W3C//DTD SVG 1.1//EN" "http://www.w3.org/Graphics/SVG/1.1/DTD/svg11.dtd" >
<svg xmlns="http://www.w3.org/2000/svg" xmlns:xlink="http://www.w3.org/1999/xlink" version="1.1">
<metadata>
Created by FontForge 20170731 at Sat Feb  8 23:45:17 2003
 By Aleksey,,,
(c) Jakob Fischer at www.pizzadude.dk - DO NOT DISTRIBUTE WITHOUT AUTHOR'S PERMISSION!
</metadata>
<defs>
<font id="Arcade" horiz-adv-x="520" >
  <font-face 
    font-family="Arcade"
    font-weight="400"
    font-stretch="normal"
    units-per-em="1000"
    panose-1="0 0 4 0 0 0 0 0 0 0"
    ascent="800"
    descent="-200"
    x-height="538"
    cap-height="670"
    bbox="0 0 453 800"
    underline-thickness="20"
    underline-position="-163"
    unicode-range="U+0020-007A"
  />
<missing-glyph horiz-adv-x="500" 
d="M63 0v800h375v-800h-375zM125 63h250v675h-250v-675z" />
    <glyph glyph-name=".notdef" horiz-adv-x="500" 
d="M63 0v800h375v-800h-375zM125 63h250v675h-250v-675z" />
    <glyph glyph-name=".null" horiz-adv-x="0" 
 />
    <glyph glyph-name="nonmarkingreturn" 
 />
    <glyph glyph-name="space" unicode=" " 
 />
    <glyph glyph-name="exclam" unicode="!" 
d="M66 405h56v-56h-56v56zM132 405h56v-56h-56v56zM0 273h56v-56h-56v56zM66 273h56v-56h-56v56zM331 670h56v-56h-56v56zM397 670h56v-56h-56v56zM265 604h56v-56h-56v56zM331 604h56v-56h-56v56zM397 604h56v-56h-56v56zM198 538h56v-56h-56v56zM265 538h56v-56h-56v56z
M331 538h56v-56h-56v56zM397 538h56v-56h-56v56zM132 472h56v-56h-56v56zM198 472h56v-56h-56v56zM265 472h56v-56h-56v56z" />
    <glyph glyph-name="quotedbl" unicode="&#x22;" 
d="M0 670h56v-56h-56v56zM66 670h56v-56h-56v56zM198 670h56v-56h-56v56zM265 670h56v-56h-56v56zM0 604h56v-56h-56v56zM66 604h56v-56h-56v56zM198 604h56v-56h-56v56zM265 604h56v-56h-56v56zM66 538h56v-56h-56v56zM265 538h56v-56h-56v56z" />
    <glyph glyph-name="numbersign" unicode="#" 
d="M0 405h56v-56h-56v56zM66 405h56v-56h-56v56zM132 405h56v-56h-56v56zM198 405h56v-56h-56v56zM265 405h56v-56h-56v56zM331 405h56v-56h-56v56zM397 405h56v-56h-56v56zM66 339h56v-56h-56v56zM132 339h56v-56h-56v56zM265 339h56v-56h-56v56zM331 339h56v-56h-56v56z
M66 273h56v-56h-56v56zM132 273h56v-56h-56v56zM265 273h56v-56h-56v56zM331 273h56v-56h-56v56zM66 670h56v-56h-56v56zM132 670h56v-56h-56v56zM265 670h56v-56h-56v56zM331 670h56v-56h-56v56zM66 604h56v-56h-56v56zM132 604h56v-56h-56v56zM265 604h56v-56h-56v56z
M331 604h56v-56h-56v56zM0 538h56v-56h-56v56zM66 538h56v-56h-56v56zM132 538h56v-56h-56v56zM198 538h56v-56h-56v56zM265 538h56v-56h-56v56zM331 538h56v-56h-56v56zM397 538h56v-56h-56v56zM66 472h56v-56h-56v56zM132 472h56v-56h-56v56zM265 472h56v-56h-56v56z
M331 472h56v-56h-56v56z" />
    <glyph glyph-name="dollar" unicode="$" 
d="M198 405h56v-56h-56v56zM0 339h56v-56h-56v56zM66 339h56v-56h-56v56zM132 339h56v-56h-56v56zM132 273h56v-56h-56v56zM132 670h56v-56h-56v56zM66 604h56v-56h-56v56zM132 604h56v-56h-56v56zM198 604h56v-56h-56v56zM0 538h56v-56h-56v56zM0 472h56v-56h-56v56z
M66 472h56v-56h-56v56zM132 472h56v-56h-56v56z" />
    <glyph glyph-name="percent" unicode="%" 
d="M66 405h56v-56h-56v56zM132 405h56v-56h-56v56zM265 405h56v-56h-56v56zM331 405h56v-56h-56v56zM265 339h56v-56h-56v56zM331 339h56v-56h-56v56zM0 604h56v-56h-56v56zM66 604h56v-56h-56v56zM265 604h56v-56h-56v56zM331 604h56v-56h-56v56zM0 538h56v-56h-56v56z
M66 538h56v-56h-56v56zM198 538h56v-56h-56v56zM265 538h56v-56h-56v56zM132 472h56v-56h-56v56zM198 472h56v-56h-56v56zM0 339h56v-56h-56v56zM66 339h56v-56h-56v56z" />
    <glyph glyph-name="ampersand" unicode="&#x26;" horiz-adv-x="420" 
d="M0 405h56v-56h-56v56zM132 405h56v-56h-56v56zM265 405h56v-56h-56v56zM0 339h56v-56h-56v56zM198 339h56v-56h-56v56zM66 273h56v-56h-56v56zM132 273h56v-56h-56v56zM265 273h56v-56h-56v56zM66 670h56v-56h-56v56zM132 670h56v-56h-56v56zM0 604h56v-56h-56v56z
M198 604h56v-56h-56v56zM0 538h56v-56h-56v56zM132 538h56v-56h-56v56zM66 472h56v-56h-56v56z" />
    <glyph glyph-name="quotesingle" unicode="'" horiz-adv-x="347" 
d="M0 670h56v-56h-56v56zM66 670h56v-56h-56v56zM0 604h56v-56h-56v56zM66 604h56v-56h-56v56zM66 538h56v-56h-56v56z" />
    <glyph glyph-name="parenleft" unicode="(" 
d="M0 405h56v-56h-56v56zM66 405h56v-56h-56v56zM66 339h56v-56h-56v56zM132 339h56v-56h-56v56zM132 273h56v-56h-56v56zM198 273h56v-56h-56v56zM132 670h56v-56h-56v56zM198 670h56v-56h-56v56zM66 604h56v-56h-56v56zM132 604h56v-56h-56v56zM0 538h56v-56h-56v56z
M66 538h56v-56h-56v56zM0 472h56v-56h-56v56zM66 472h56v-56h-56v56z" />
    <glyph glyph-name="parenright" unicode=")" 
d="M132 405h56v-56h-56v56zM198 405h56v-56h-56v56zM66 339h56v-56h-56v56zM132 339h56v-56h-56v56zM0 273h56v-56h-56v56zM66 273h56v-56h-56v56zM0 670h56v-56h-56v56zM66 670h56v-56h-56v56zM66 604h56v-56h-56v56zM132 604h56v-56h-56v56zM132 538h56v-56h-56v56z
M198 538h56v-56h-56v56zM132 472h56v-56h-56v56zM198 472h56v-56h-56v56z" />
    <glyph glyph-name="asterisk" unicode="*" 
d="M66 405h56v-56h-56v56zM198 405h56v-56h-56v56zM66 538h56v-56h-56v56zM198 538h56v-56h-56v56zM132 472h56v-56h-56v56z" />
    <glyph glyph-name="plus" unicode="+" horiz-adv-x="452" 
d="M132 405h56v-56h-56v56zM198 405h56v-56h-56v56zM132 339h56v-56h-56v56zM198 339h56v-56h-56v56zM132 604h56v-56h-56v56zM198 604h56v-56h-56v56zM132 538h56v-56h-56v56zM198 538h56v-56h-56v56zM0 472h56v-56h-56v56zM66 472h56v-56h-56v56zM132 472h56v-56h-56v56z
M198 472h56v-56h-56v56zM265 472h56v-56h-56v56zM331 472h56v-56h-56v56z" />
    <glyph glyph-name="comma" unicode="," horiz-adv-x="322" 
d="M132 273h56v-56h-56v56zM198 273h56v-56h-56v56zM132 207h56v-56h-56v56zM198 207h56v-56h-56v56zM66 140h56v-56h-56v56zM132 140h56v-56h-56v56z" />
    <glyph glyph-name="hyphen" unicode="-" horiz-adv-x="397" 
d="M0 472h56v-56h-56v56zM66 472h56v-56h-56v56zM132 472h56v-56h-56v56zM198 472h56v-56h-56v56zM265 472h56v-56h-56v56z" />
    <glyph glyph-name="hyphen" unicode="&#x2010;" horiz-adv-x="397" 
d="M0 472h56v-56h-56v56zM66 472h56v-56h-56v56zM132 472h56v-56h-56v56zM198 472h56v-56h-56v56zM265 472h56v-56h-56v56z" />
    <glyph glyph-name="period" unicode="." horiz-adv-x="322" 
d="M132 273h56v-56h-56v56zM198 273h56v-56h-56v56zM132 207h56v-56h-56v56zM198 207h56v-56h-56v56z" />
    <glyph glyph-name="slash" unicode="/" 
d="M132 405h56v-56h-56v56zM198 405h56v-56h-56v56zM66 339h56v-56h-56v56zM132 339h56v-56h-56v56zM0 273h56v-56h-56v56zM66 273h56v-56h-56v56zM331 670h56v-56h-56v56zM265 604h56v-56h-56v56zM331 604h56v-56h-56v56zM198 538h56v-56h-56v56zM265 538h56v-56h-56v56z
M132 472h56v-56h-56v56zM198 472h56v-56h-56v56z" />
    <glyph glyph-name="zero" unicode="0" horiz-adv-x="454" 
d="M0 405h56v-56h-56v56zM66 405h56v-56h-56v56zM265 405h56v-56h-56v56zM331 405h56v-56h-56v56zM0 339h56v-56h-56v56zM66 339h56v-56h-56v56zM265 339h56v-56h-56v56zM331 339h56v-56h-56v56zM66 273h56v-56h-56v56zM132 273h56v-56h-56v56zM198 273h56v-56h-56v56z
M265 273h56v-56h-56v56zM66 670h56v-56h-56v56zM132 670h56v-56h-56v56zM198 670h56v-56h-56v56zM265 670h56v-56h-56v56zM0 604h56v-56h-56v56zM66 604h56v-56h-56v56zM265 604h56v-56h-56v56zM331 604h56v-56h-56v56zM0 538h56v-56h-56v56zM66 538h56v-56h-56v56zM265 538
h56v-56h-56v56zM331 538h56v-56h-56v56zM0 472h56v-56h-56v56zM66 472h56v-56h-56v56zM265 472h56v-56h-56v56zM331 472h56v-56h-56v56z" />
    <glyph glyph-name="one" unicode="1" horiz-adv-x="452" 
d="M132 405h56v-56h-56v56zM198 405h56v-56h-56v56zM132 339h56v-56h-56v56zM198 339h56v-56h-56v56zM0 273h56v-56h-56v56zM66 273h56v-56h-56v56zM132 273h56v-56h-56v56zM198 273h56v-56h-56v56zM265 273h56v-56h-56v56zM331 273h56v-56h-56v56zM132 670h56v-56h-56v56z
M198 670h56v-56h-56v56zM66 604h56v-56h-56v56zM132 604h56v-56h-56v56zM198 604h56v-56h-56v56zM132 538h56v-56h-56v56zM198 538h56v-56h-56v56zM132 472h56v-56h-56v56zM198 472h56v-56h-56v56z" />
    <glyph glyph-name="two" unicode="2" 
d="M66 405h56v-56h-56v56zM132 405h56v-56h-56v56zM0 339h56v-56h-56v56zM66 339h56v-56h-56v56zM0 273h56v-56h-56v56zM66 273h56v-56h-56v56zM132 273h56v-56h-56v56zM198 273h56v-56h-56v56zM265 273h56v-56h-56v56zM331 273h56v-56h-56v56zM397 273h56v-56h-56v56z
M66 670h56v-56h-56v56zM132 670h56v-56h-56v56zM198 670h56v-56h-56v56zM265 670h56v-56h-56v56zM331 670h56v-56h-56v56zM0 604h56v-56h-56v56zM66 604h56v-56h-56v56zM331 604h56v-56h-56v56zM397 604h56v-56h-56v56zM265 538h56v-56h-56v56zM331 538h56v-56h-56v56z
M132 472h56v-56h-56v56zM198 472h56v-56h-56v56zM265 472h56v-56h-56v56z" />
    <glyph glyph-name="three" unicode="3" 
d="M331 405h56v-56h-56v56zM397 405h56v-56h-56v56zM0 339h56v-56h-56v56zM66 339h56v-56h-56v56zM331 339h56v-56h-56v56zM397 339h56v-56h-56v56zM66 273h56v-56h-56v56zM132 273h56v-56h-56v56zM198 273h56v-56h-56v56zM265 273h56v-56h-56v56zM331 273h56v-56h-56v56z
M66 670h56v-56h-56v56zM132 670h56v-56h-56v56zM198 670h56v-56h-56v56zM265 670h56v-56h-56v56zM331 670h56v-56h-56v56zM0 604h56v-56h-56v56zM66 604h56v-56h-56v56zM331 604h56v-56h-56v56zM397 604h56v-56h-56v56zM331 538h56v-56h-56v56zM397 538h56v-56h-56v56z
M198 472h56v-56h-56v56zM265 472h56v-56h-56v56zM331 472h56v-56h-56v56z" />
    <glyph glyph-name="four" unicode="4" 
d="M0 405h56v-56h-56v56zM66 405h56v-56h-56v56zM132 405h56v-56h-56v56zM198 405h56v-56h-56v56zM265 405h56v-56h-56v56zM331 405h56v-56h-56v56zM397 405h56v-56h-56v56zM265 339h56v-56h-56v56zM331 339h56v-56h-56v56zM265 273h56v-56h-56v56zM331 273h56v-56h-56v56z
M198 670h56v-56h-56v56zM265 670h56v-56h-56v56zM331 670h56v-56h-56v56zM132 604h56v-56h-56v56zM198 604h56v-56h-56v56zM265 604h56v-56h-56v56zM331 604h56v-56h-56v56zM66 538h56v-56h-56v56zM132 538h56v-56h-56v56zM265 538h56v-56h-56v56zM331 538h56v-56h-56v56z
M0 472h56v-56h-56v56zM66 472h56v-56h-56v56zM265 472h56v-56h-56v56zM331 472h56v-56h-56v56z" />
    <glyph glyph-name="five" unicode="5" 
d="M331 405h56v-56h-56v56zM397 405h56v-56h-56v56zM0 339h56v-56h-56v56zM66 339h56v-56h-56v56zM331 339h56v-56h-56v56zM397 339h56v-56h-56v56zM66 273h56v-56h-56v56zM132 273h56v-56h-56v56zM198 273h56v-56h-56v56zM265 273h56v-56h-56v56zM331 273h56v-56h-56v56z
M0 670h56v-56h-56v56zM66 670h56v-56h-56v56zM132 670h56v-56h-56v56zM198 670h56v-56h-56v56zM265 670h56v-56h-56v56zM331 670h56v-56h-56v56zM0 604h56v-56h-56v56zM66 604h56v-56h-56v56zM0 538h56v-56h-56v56zM66 538h56v-56h-56v56zM132 538h56v-56h-56v56zM198 538
h56v-56h-56v56zM265 538h56v-56h-56v56zM331 538h56v-56h-56v56zM331 472h56v-56h-56v56zM397 472h56v-56h-56v56z" />
    <glyph glyph-name="six" unicode="6" 
d="M0 405h56v-56h-56v56zM66 405h56v-56h-56v56zM331 405h56v-56h-56v56zM397 405h56v-56h-56v56zM0 339h56v-56h-56v56zM66 339h56v-56h-56v56zM331 339h56v-56h-56v56zM397 339h56v-56h-56v56zM66 273h56v-56h-56v56zM132 273h56v-56h-56v56zM198 273h56v-56h-56v56z
M265 273h56v-56h-56v56zM331 273h56v-56h-56v56zM66 670h56v-56h-56v56zM132 670h56v-56h-56v56zM198 670h56v-56h-56v56zM265 670h56v-56h-56v56zM331 670h56v-56h-56v56zM0 604h56v-56h-56v56zM66 604h56v-56h-56v56zM331 604h56v-56h-56v56zM397 604h56v-56h-56v56z
M0 538h56v-56h-56v56zM66 538h56v-56h-56v56zM0 472h56v-56h-56v56zM66 472h56v-56h-56v56zM132 472h56v-56h-56v56zM198 472h56v-56h-56v56zM265 472h56v-56h-56v56zM331 472h56v-56h-56v56z" />
    <glyph glyph-name="seven" unicode="7" 
d="M132 405h56v-56h-56v56zM198 405h56v-56h-56v56zM132 339h56v-56h-56v56zM198 339h56v-56h-56v56zM132 273h56v-56h-56v56zM198 273h56v-56h-56v56zM0 670h56v-56h-56v56zM66 670h56v-56h-56v56zM132 670h56v-56h-56v56zM198 670h56v-56h-56v56zM265 670h56v-56h-56v56z
M331 670h56v-56h-56v56zM397 670h56v-56h-56v56zM265 604h56v-56h-56v56zM331 604h56v-56h-56v56zM198 538h56v-56h-56v56zM265 538h56v-56h-56v56zM132 472h56v-56h-56v56zM198 472h56v-56h-56v56z" />
    <glyph glyph-name="eight" unicode="8" 
d="M0 405h56v-56h-56v56zM66 405h56v-56h-56v56zM331 405h56v-56h-56v56zM397 405h56v-56h-56v56zM0 339h56v-56h-56v56zM66 339h56v-56h-56v56zM331 339h56v-56h-56v56zM397 339h56v-56h-56v56zM66 273h56v-56h-56v56zM132 273h56v-56h-56v56zM198 273h56v-56h-56v56z
M265 273h56v-56h-56v56zM331 273h56v-56h-56v56zM66 670h56v-56h-56v56zM132 670h56v-56h-56v56zM198 670h56v-56h-56v56zM265 670h56v-56h-56v56zM331 670h56v-56h-56v56zM0 604h56v-56h-56v56zM66 604h56v-56h-56v56zM331 604h56v-56h-56v56zM397 604h56v-56h-56v56z
M0 538h56v-56h-56v56zM66 538h56v-56h-56v56zM331 538h56v-56h-56v56zM397 538h56v-56h-56v56zM66 472h56v-56h-56v56zM132 472h56v-56h-56v56zM198 472h56v-56h-56v56zM265 472h56v-56h-56v56zM331 472h56v-56h-56v56z" />
    <glyph glyph-name="nine" unicode="9" 
d="M331 405h56v-56h-56v56zM397 405h56v-56h-56v56zM265 339h56v-56h-56v56zM331 339h56v-56h-56v56zM132 273h56v-56h-56v56zM198 273h56v-56h-56v56zM265 273h56v-56h-56v56zM66 670h56v-56h-56v56zM132 670h56v-56h-56v56zM198 670h56v-56h-56v56zM265 670h56v-56h-56v56
zM331 670h56v-56h-56v56zM0 604h56v-56h-56v56zM66 604h56v-56h-56v56zM331 604h56v-56h-56v56zM397 604h56v-56h-56v56zM0 538h56v-56h-56v56zM66 538h56v-56h-56v56zM331 538h56v-56h-56v56zM397 538h56v-56h-56v56zM66 472h56v-56h-56v56zM132 472h56v-56h-56v56z
M198 472h56v-56h-56v56zM265 472h56v-56h-56v56zM331 472h56v-56h-56v56zM397 472h56v-56h-56v56z" />
    <glyph glyph-name="colon" unicode=":" horiz-adv-x="199" 
d="M0 405h56v-56h-56v56zM66 405h56v-56h-56v56zM0 339h56v-56h-56v56zM66 339h56v-56h-56v56zM0 604h56v-56h-56v56zM66 604h56v-56h-56v56zM0 538h56v-56h-56v56zM66 538h56v-56h-56v56z" />
    <glyph glyph-name="semicolon" unicode=";" horiz-adv-x="198" 
d="M0 405h56v-56h-56v56zM66 405h56v-56h-56v56zM0 339h56v-56h-56v56zM66 339h56v-56h-56v56zM66 273h56v-56h-56v56zM0 604h56v-56h-56v56zM66 604h56v-56h-56v56zM0 538h56v-56h-56v56zM66 538h56v-56h-56v56z" />
    <glyph glyph-name="less" unicode="&#x3c;" 
d="M66 405h56v-56h-56v56zM132 405h56v-56h-56v56zM132 339h56v-56h-56v56zM198 339h56v-56h-56v56zM132 604h56v-56h-56v56zM198 604h56v-56h-56v56zM66 538h56v-56h-56v56zM132 538h56v-56h-56v56zM0 472h56v-56h-56v56zM66 472h56v-56h-56v56z" />
    <glyph glyph-name="equal" unicode="=" horiz-adv-x="399" 
d="M0 405h56v-56h-56v56zM66 405h56v-56h-56v56zM132 405h56v-56h-56v56zM198 405h56v-56h-56v56zM265 405h56v-56h-56v56zM0 538h56v-56h-56v56zM66 538h56v-56h-56v56zM132 538h56v-56h-56v56zM198 538h56v-56h-56v56zM265 538h56v-56h-56v56z" />
    <glyph glyph-name="greater" unicode="&#x3e;" 
d="M66 405h56v-56h-56v56zM132 405h56v-56h-56v56zM0 339h56v-56h-56v56zM66 339h56v-56h-56v56zM0 604h56v-56h-56v56zM66 604h56v-56h-56v56zM66 538h56v-56h-56v56zM132 538h56v-56h-56v56zM132 472h56v-56h-56v56zM198 472h56v-56h-56v56z" />
    <glyph glyph-name="question" unicode="?" 
d="M132 339h56v-56h-56v56zM198 339h56v-56h-56v56zM132 273h56v-56h-56v56zM198 273h56v-56h-56v56zM66 670h56v-56h-56v56zM132 670h56v-56h-56v56zM198 670h56v-56h-56v56zM265 670h56v-56h-56v56zM0 604h56v-56h-56v56zM66 604h56v-56h-56v56zM265 604h56v-56h-56v56z
M331 604h56v-56h-56v56zM198 538h56v-56h-56v56zM265 538h56v-56h-56v56zM132 472h56v-56h-56v56zM198 472h56v-56h-56v56z" />
    <glyph glyph-name="at" unicode="@" 
d="M0 405h56v-56h-56v56zM132 405h56v-56h-56v56zM198 405h56v-56h-56v56zM331 405h56v-56h-56v56zM397 405h56v-56h-56v56zM0 339h56v-56h-56v56zM66 273h56v-56h-56v56zM132 273h56v-56h-56v56zM198 273h56v-56h-56v56zM265 273h56v-56h-56v56zM331 273h56v-56h-56v56z
M397 273h56v-56h-56v56zM66 670h56v-56h-56v56zM132 670h56v-56h-56v56zM198 670h56v-56h-56v56zM265 670h56v-56h-56v56zM331 670h56v-56h-56v56zM0 604h56v-56h-56v56zM397 604h56v-56h-56v56zM0 538h56v-56h-56v56zM132 538h56v-56h-56v56zM198 538h56v-56h-56v56z
M265 538h56v-56h-56v56zM397 538h56v-56h-56v56zM0 472h56v-56h-56v56zM132 472h56v-56h-56v56zM265 472h56v-56h-56v56zM397 472h56v-56h-56v56z" />
    <glyph glyph-name="A" unicode="A" 
d="M0 405h56v-56h-56v56zM66 405h56v-56h-56v56zM132 405h56v-56h-56v56zM198 405h56v-56h-56v56zM265 405h56v-56h-56v56zM331 405h56v-56h-56v56zM397 405h56v-56h-56v56zM0 339h56v-56h-56v56zM66 339h56v-56h-56v56zM331 339h56v-56h-56v56zM397 339h56v-56h-56v56z
M0 273h56v-56h-56v56zM66 273h56v-56h-56v56zM331 273h56v-56h-56v56zM397 273h56v-56h-56v56zM132 670h56v-56h-56v56zM198 670h56v-56h-56v56zM265 670h56v-56h-56v56zM66 604h56v-56h-56v56zM132 604h56v-56h-56v56zM265 604h56v-56h-56v56zM331 604h56v-56h-56v56z
M0 538h56v-56h-56v56zM66 538h56v-56h-56v56zM331 538h56v-56h-56v56zM397 538h56v-56h-56v56zM0 472h56v-56h-56v56zM66 472h56v-56h-56v56zM331 472h56v-56h-56v56zM397 472h56v-56h-56v56z" />
    <glyph glyph-name="B" unicode="B" 
d="M0 405h56v-56h-56v56zM66 405h56v-56h-56v56zM331 405h56v-56h-56v56zM397 405h56v-56h-56v56zM0 339h56v-56h-56v56zM66 339h56v-56h-56v56zM331 339h56v-56h-56v56zM397 339h56v-56h-56v56zM0 273h56v-56h-56v56zM66 273h56v-56h-56v56zM132 273h56v-56h-56v56z
M198 273h56v-56h-56v56zM265 273h56v-56h-56v56zM331 273h56v-56h-56v56zM0 670h56v-56h-56v56zM66 670h56v-56h-56v56zM132 670h56v-56h-56v56zM198 670h56v-56h-56v56zM265 670h56v-56h-56v56zM331 670h56v-56h-56v56zM0 604h56v-56h-56v56zM66 604h56v-56h-56v56z
M331 604h56v-56h-56v56zM397 604h56v-56h-56v56zM0 538h56v-56h-56v56zM66 538h56v-56h-56v56zM331 538h56v-56h-56v56zM397 538h56v-56h-56v56zM0 472h56v-56h-56v56zM66 472h56v-56h-56v56zM132 472h56v-56h-56v56zM198 472h56v-56h-56v56zM265 472h56v-56h-56v56z
M331 472h56v-56h-56v56z" />
    <glyph glyph-name="C" unicode="C" 
d="M0 405h56v-56h-56v56zM66 405h56v-56h-56v56zM0 339h56v-56h-56v56zM66 339h56v-56h-56v56zM331 339h56v-56h-56v56zM397 339h56v-56h-56v56zM66 273h56v-56h-56v56zM132 273h56v-56h-56v56zM198 273h56v-56h-56v56zM265 273h56v-56h-56v56zM331 273h56v-56h-56v56z
M66 670h56v-56h-56v56zM132 670h56v-56h-56v56zM198 670h56v-56h-56v56zM265 670h56v-56h-56v56zM331 670h56v-56h-56v56zM0 604h56v-56h-56v56zM66 604h56v-56h-56v56zM331 604h56v-56h-56v56zM397 604h56v-56h-56v56zM0 538h56v-56h-56v56zM66 538h56v-56h-56v56zM0 472
h56v-56h-56v56zM66 472h56v-56h-56v56z" />
    <glyph glyph-name="D" unicode="D" 
d="M0 405h56v-56h-56v56zM66 405h56v-56h-56v56zM331 405h56v-56h-56v56zM397 405h56v-56h-56v56zM0 339h56v-56h-56v56zM66 339h56v-56h-56v56zM331 339h56v-56h-56v56zM397 339h56v-56h-56v56zM0 273h56v-56h-56v56zM66 273h56v-56h-56v56zM132 273h56v-56h-56v56z
M198 273h56v-56h-56v56zM265 273h56v-56h-56v56zM331 273h56v-56h-56v56zM0 670h56v-56h-56v56zM66 670h56v-56h-56v56zM132 670h56v-56h-56v56zM198 670h56v-56h-56v56zM265 670h56v-56h-56v56zM331 670h56v-56h-56v56zM0 604h56v-56h-56v56zM66 604h56v-56h-56v56z
M331 604h56v-56h-56v56zM397 604h56v-56h-56v56zM0 538h56v-56h-56v56zM66 538h56v-56h-56v56zM331 538h56v-56h-56v56zM397 538h56v-56h-56v56zM0 472h56v-56h-56v56zM66 472h56v-56h-56v56zM331 472h56v-56h-56v56zM397 472h56v-56h-56v56z" />
    <glyph glyph-name="E" unicode="E" 
d="M0 405h56v-56h-56v56zM66 405h56v-56h-56v56zM0 339h56v-56h-56v56zM66 339h56v-56h-56v56zM0 273h56v-56h-56v56zM66 273h56v-56h-56v56zM132 273h56v-56h-56v56zM198 273h56v-56h-56v56zM265 273h56v-56h-56v56zM331 273h56v-56h-56v56zM397 273h56v-56h-56v56zM0 670
h56v-56h-56v56zM66 670h56v-56h-56v56zM132 670h56v-56h-56v56zM198 670h56v-56h-56v56zM265 670h56v-56h-56v56zM331 670h56v-56h-56v56zM397 670h56v-56h-56v56zM0 604h56v-56h-56v56zM66 604h56v-56h-56v56zM0 538h56v-56h-56v56zM66 538h56v-56h-56v56zM0 472h56v-56
h-56v56zM66 472h56v-56h-56v56zM132 472h56v-56h-56v56zM198 472h56v-56h-56v56zM265 472h56v-56h-56v56zM331 472h56v-56h-56v56z" />
    <glyph glyph-name="F" unicode="F" 
d="M0 405h56v-56h-56v56zM66 405h56v-56h-56v56zM0 339h56v-56h-56v56zM66 339h56v-56h-56v56zM0 273h56v-56h-56v56zM66 273h56v-56h-56v56zM0 670h56v-56h-56v56zM66 670h56v-56h-56v56zM132 670h56v-56h-56v56zM198 670h56v-56h-56v56zM265 670h56v-56h-56v56zM331 670
h56v-56h-56v56zM397 670h56v-56h-56v56zM0 604h56v-56h-56v56zM66 604h56v-56h-56v56zM0 538h56v-56h-56v56zM66 538h56v-56h-56v56zM0 472h56v-56h-56v56zM66 472h56v-56h-56v56zM132 472h56v-56h-56v56zM198 472h56v-56h-56v56zM265 472h56v-56h-56v56zM331 472h56v-56
h-56v56z" />
    <glyph glyph-name="G" unicode="G" 
d="M0 405h56v-56h-56v56zM66 405h56v-56h-56v56zM331 405h56v-56h-56v56zM397 405h56v-56h-56v56zM0 339h56v-56h-56v56zM66 339h56v-56h-56v56zM331 339h56v-56h-56v56zM397 339h56v-56h-56v56zM66 273h56v-56h-56v56zM132 273h56v-56h-56v56zM198 273h56v-56h-56v56z
M265 273h56v-56h-56v56zM331 273h56v-56h-56v56zM66 670h56v-56h-56v56zM132 670h56v-56h-56v56zM198 670h56v-56h-56v56zM265 670h56v-56h-56v56zM331 670h56v-56h-56v56zM0 604h56v-56h-56v56zM66 604h56v-56h-56v56zM331 604h56v-56h-56v56zM397 604h56v-56h-56v56z
M0 538h56v-56h-56v56zM66 538h56v-56h-56v56zM0 472h56v-56h-56v56zM66 472h56v-56h-56v56zM265 472h56v-56h-56v56zM331 472h56v-56h-56v56zM397 472h56v-56h-56v56z" />
    <glyph glyph-name="H" unicode="H" 
d="M0 405h56v-56h-56v56zM66 405h56v-56h-56v56zM331 405h56v-56h-56v56zM397 405h56v-56h-56v56zM0 339h56v-56h-56v56zM66 339h56v-56h-56v56zM331 339h56v-56h-56v56zM397 339h56v-56h-56v56zM0 273h56v-56h-56v56zM66 273h56v-56h-56v56zM331 273h56v-56h-56v56z
M397 273h56v-56h-56v56zM0 670h56v-56h-56v56zM66 670h56v-56h-56v56zM331 670h56v-56h-56v56zM397 670h56v-56h-56v56zM0 604h56v-56h-56v56zM66 604h56v-56h-56v56zM331 604h56v-56h-56v56zM397 604h56v-56h-56v56zM0 538h56v-56h-56v56zM66 538h56v-56h-56v56zM331 538
h56v-56h-56v56zM397 538h56v-56h-56v56zM0 472h56v-56h-56v56zM66 472h56v-56h-56v56zM132 472h56v-56h-56v56zM198 472h56v-56h-56v56zM265 472h56v-56h-56v56zM331 472h56v-56h-56v56zM397 472h56v-56h-56v56z" />
    <glyph glyph-name="I" unicode="I" 
d="M132 405h56v-56h-56v56zM198 405h56v-56h-56v56zM132 339h56v-56h-56v56zM198 339h56v-56h-56v56zM0 273h56v-56h-56v56zM66 273h56v-56h-56v56zM132 273h56v-56h-56v56zM198 273h56v-56h-56v56zM265 273h56v-56h-56v56zM331 273h56v-56h-56v56zM0 670h56v-56h-56v56z
M66 670h56v-56h-56v56zM132 670h56v-56h-56v56zM198 670h56v-56h-56v56zM265 670h56v-56h-56v56zM331 670h56v-56h-56v56zM132 604h56v-56h-56v56zM198 604h56v-56h-56v56zM132 538h56v-56h-56v56zM198 538h56v-56h-56v56zM132 472h56v-56h-56v56zM198 472h56v-56h-56v56z
" />
    <glyph glyph-name="J" unicode="J" 
d="M265 405h56v-56h-56v56zM331 405h56v-56h-56v56zM0 339h56v-56h-56v56zM66 339h56v-56h-56v56zM265 339h56v-56h-56v56zM331 339h56v-56h-56v56zM66 273h56v-56h-56v56zM132 273h56v-56h-56v56zM198 273h56v-56h-56v56zM265 273h56v-56h-56v56zM132 670h56v-56h-56v56z
M198 670h56v-56h-56v56zM265 670h56v-56h-56v56zM331 670h56v-56h-56v56zM397 670h56v-56h-56v56zM265 604h56v-56h-56v56zM331 604h56v-56h-56v56zM265 538h56v-56h-56v56zM331 538h56v-56h-56v56zM265 472h56v-56h-56v56zM331 472h56v-56h-56v56z" />
    <glyph glyph-name="K" unicode="K" 
d="M0 405h56v-56h-56v56zM66 405h56v-56h-56v56zM132 405h56v-56h-56v56zM198 405h56v-56h-56v56zM265 405h56v-56h-56v56zM0 339h56v-56h-56v56zM66 339h56v-56h-56v56zM198 339h56v-56h-56v56zM265 339h56v-56h-56v56zM331 339h56v-56h-56v56zM0 273h56v-56h-56v56z
M66 273h56v-56h-56v56zM331 273h56v-56h-56v56zM397 273h56v-56h-56v56zM0 670h56v-56h-56v56zM66 670h56v-56h-56v56zM331 670h56v-56h-56v56zM397 670h56v-56h-56v56zM0 604h56v-56h-56v56zM66 604h56v-56h-56v56zM265 604h56v-56h-56v56zM331 604h56v-56h-56v56zM0 538
h56v-56h-56v56zM66 538h56v-56h-56v56zM198 538h56v-56h-56v56zM265 538h56v-56h-56v56zM0 472h56v-56h-56v56zM66 472h56v-56h-56v56zM132 472h56v-56h-56v56zM198 472h56v-56h-56v56z" />
    <glyph glyph-name="L" unicode="L" 
d="M0 405h56v-56h-56v56zM66 405h56v-56h-56v56zM0 339h56v-56h-56v56zM66 339h56v-56h-56v56zM0 273h56v-56h-56v56zM66 273h56v-56h-56v56zM132 273h56v-56h-56v56zM198 273h56v-56h-56v56zM265 273h56v-56h-56v56zM331 273h56v-56h-56v56zM397 273h56v-56h-56v56zM0 670
h56v-56h-56v56zM66 670h56v-56h-56v56zM0 604h56v-56h-56v56zM66 604h56v-56h-56v56zM0 538h56v-56h-56v56zM66 538h56v-56h-56v56zM0 472h56v-56h-56v56zM66 472h56v-56h-56v56z" />
    <glyph glyph-name="M" unicode="M" 
d="M0 405h56v-56h-56v56zM66 405h56v-56h-56v56zM198 405h56v-56h-56v56zM331 405h56v-56h-56v56zM397 405h56v-56h-56v56zM0 339h56v-56h-56v56zM66 339h56v-56h-56v56zM331 339h56v-56h-56v56zM397 339h56v-56h-56v56zM0 273h56v-56h-56v56zM66 273h56v-56h-56v56z
M331 273h56v-56h-56v56zM397 273h56v-56h-56v56zM0 670h56v-56h-56v56zM397 670h56v-56h-56v56zM0 604h56v-56h-56v56zM66 604h56v-56h-56v56zM331 604h56v-56h-56v56zM397 604h56v-56h-56v56zM0 538h56v-56h-56v56zM66 538h56v-56h-56v56zM132 538h56v-56h-56v56zM265 538
h56v-56h-56v56zM331 538h56v-56h-56v56zM397 538h56v-56h-56v56zM0 472h56v-56h-56v56zM66 472h56v-56h-56v56zM132 472h56v-56h-56v56zM198 472h56v-56h-56v56zM265 472h56v-56h-56v56zM331 472h56v-56h-56v56zM397 472h56v-56h-56v56z" />
    <glyph glyph-name="N" unicode="N" 
d="M0 405h56v-56h-56v56zM66 405h56v-56h-56v56zM265 405h56v-56h-56v56zM331 405h56v-56h-56v56zM397 405h56v-56h-56v56zM0 339h56v-56h-56v56zM66 339h56v-56h-56v56zM331 339h56v-56h-56v56zM397 339h56v-56h-56v56zM0 273h56v-56h-56v56zM66 273h56v-56h-56v56z
M331 273h56v-56h-56v56zM397 273h56v-56h-56v56zM0 670h56v-56h-56v56zM66 670h56v-56h-56v56zM331 670h56v-56h-56v56zM397 670h56v-56h-56v56zM0 604h56v-56h-56v56zM66 604h56v-56h-56v56zM132 604h56v-56h-56v56zM331 604h56v-56h-56v56zM397 604h56v-56h-56v56zM0 538
h56v-56h-56v56zM66 538h56v-56h-56v56zM132 538h56v-56h-56v56zM198 538h56v-56h-56v56zM331 538h56v-56h-56v56zM397 538h56v-56h-56v56zM0 472h56v-56h-56v56zM66 472h56v-56h-56v56zM198 472h56v-56h-56v56zM265 472h56v-56h-56v56zM331 472h56v-56h-56v56zM397 472h56
v-56h-56v56z" />
    <glyph glyph-name="O" unicode="O" 
d="M0 405h56v-56h-56v56zM66 405h56v-56h-56v56zM331 405h56v-56h-56v56zM397 405h56v-56h-56v56zM0 339h56v-56h-56v56zM66 339h56v-56h-56v56zM331 339h56v-56h-56v56zM397 339h56v-56h-56v56zM66 273h56v-56h-56v56zM132 273h56v-56h-56v56zM198 273h56v-56h-56v56z
M265 273h56v-56h-56v56zM331 273h56v-56h-56v56zM66 670h56v-56h-56v56zM132 670h56v-56h-56v56zM198 670h56v-56h-56v56zM265 670h56v-56h-56v56zM331 670h56v-56h-56v56zM0 604h56v-56h-56v56zM66 604h56v-56h-56v56zM331 604h56v-56h-56v56zM397 604h56v-56h-56v56z
M0 538h56v-56h-56v56zM66 538h56v-56h-56v56zM331 538h56v-56h-56v56zM397 538h56v-56h-56v56zM0 472h56v-56h-56v56zM66 472h56v-56h-56v56zM331 472h56v-56h-56v56zM397 472h56v-56h-56v56z" />
    <glyph glyph-name="P" unicode="P" 
d="M0 405h56v-56h-56v56zM66 405h56v-56h-56v56zM0 339h56v-56h-56v56zM66 339h56v-56h-56v56zM0 273h56v-56h-56v56zM66 273h56v-56h-56v56zM0 670h56v-56h-56v56zM66 670h56v-56h-56v56zM132 670h56v-56h-56v56zM198 670h56v-56h-56v56zM265 670h56v-56h-56v56zM331 670
h56v-56h-56v56zM0 604h56v-56h-56v56zM66 604h56v-56h-56v56zM331 604h56v-56h-56v56zM397 604h56v-56h-56v56zM0 538h56v-56h-56v56zM66 538h56v-56h-56v56zM331 538h56v-56h-56v56zM397 538h56v-56h-56v56zM0 472h56v-56h-56v56zM66 472h56v-56h-56v56zM132 472h56v-56
h-56v56zM198 472h56v-56h-56v56zM265 472h56v-56h-56v56zM331 472h56v-56h-56v56z" />
    <glyph glyph-name="Q" unicode="Q" 
d="M0 405h56v-56h-56v56zM66 405h56v-56h-56v56zM198 405h56v-56h-56v56zM265 405h56v-56h-56v56zM331 405h56v-56h-56v56zM397 405h56v-56h-56v56zM0 339h56v-56h-56v56zM66 339h56v-56h-56v56zM265 339h56v-56h-56v56zM331 339h56v-56h-56v56zM66 273h56v-56h-56v56z
M132 273h56v-56h-56v56zM198 273h56v-56h-56v56zM331 273h56v-56h-56v56zM397 273h56v-56h-56v56zM66 670h56v-56h-56v56zM132 670h56v-56h-56v56zM198 670h56v-56h-56v56zM265 670h56v-56h-56v56zM331 670h56v-56h-56v56zM0 604h56v-56h-56v56zM66 604h56v-56h-56v56z
M331 604h56v-56h-56v56zM397 604h56v-56h-56v56zM0 538h56v-56h-56v56zM66 538h56v-56h-56v56zM321 482zM331 538h56v-56h-56v56zM397 538h56v-56h-56v56zM0 472h56v-56h-56v56zM66 472h56v-56h-56v56zM321 472zM331 472h56v-56h-56v56zM397 472h56v-56h-56v56z" />
    <glyph glyph-name="R" unicode="R" 
d="M0 405h56v-56h-56v56zM66 405h56v-56h-56v56zM198 405h56v-56h-56v56zM265 405h56v-56h-56v56zM0 339h56v-56h-56v56zM66 339h56v-56h-56v56zM265 339h56v-56h-56v56zM331 339h56v-56h-56v56zM0 273h56v-56h-56v56zM66 273h56v-56h-56v56zM331 273h56v-56h-56v56z
M397 273h56v-56h-56v56zM0 670h56v-56h-56v56zM66 670h56v-56h-56v56zM132 670h56v-56h-56v56zM198 670h56v-56h-56v56zM265 670h56v-56h-56v56zM331 670h56v-56h-56v56zM0 604h56v-56h-56v56zM66 604h56v-56h-56v56zM331 604h56v-56h-56v56zM397 604h56v-56h-56v56zM0 538
h56v-56h-56v56zM66 538h56v-56h-56v56zM331 538h56v-56h-56v56zM397 538h56v-56h-56v56zM0 472h56v-56h-56v56zM66 472h56v-56h-56v56zM132 472h56v-56h-56v56zM198 472h56v-56h-56v56zM265 472h56v-56h-56v56zM331 472h56v-56h-56v56z" />
    <glyph glyph-name="S" unicode="S" 
d="M331 405h56v-56h-56v56zM397 405h56v-56h-56v56zM0 339h56v-56h-56v56zM66 339h56v-56h-56v56zM331 339h56v-56h-56v56zM397 339h56v-56h-56v56zM66 273h56v-56h-56v56zM132 273h56v-56h-56v56zM198 273h56v-56h-56v56zM265 273h56v-56h-56v56zM331 273h56v-56h-56v56z
M66 670h56v-56h-56v56zM132 670h56v-56h-56v56zM198 670h56v-56h-56v56zM265 670h56v-56h-56v56zM331 670h56v-56h-56v56zM0 604h56v-56h-56v56zM66 604h56v-56h-56v56zM331 604h56v-56h-56v56zM397 604h56v-56h-56v56zM0 538h56v-56h-56v56zM66 538h56v-56h-56v56zM66 472
h56v-56h-56v56zM132 472h56v-56h-56v56zM198 472h56v-56h-56v56zM265 472h56v-56h-56v56zM331 472h56v-56h-56v56z" />
    <glyph glyph-name="T" unicode="T" 
d="M132 405h56v-56h-56v56zM198 405h56v-56h-56v56zM132 339h56v-56h-56v56zM198 339h56v-56h-56v56zM132 273h56v-56h-56v56zM198 273h56v-56h-56v56zM0 670h56v-56h-56v56zM66 670h56v-56h-56v56zM132 670h56v-56h-56v56zM198 670h56v-56h-56v56zM265 670h56v-56h-56v56z
M331 670h56v-56h-56v56zM132 604h56v-56h-56v56zM198 604h56v-56h-56v56zM132 538h56v-56h-56v56zM198 538h56v-56h-56v56zM132 472h56v-56h-56v56zM198 472h56v-56h-56v56z" />
    <glyph glyph-name="U" unicode="U" 
d="M0 405h56v-56h-56v56zM66 405h56v-56h-56v56zM331 405h56v-56h-56v56zM397 405h56v-56h-56v56zM0 339h56v-56h-56v56zM66 339h56v-56h-56v56zM331 339h56v-56h-56v56zM397 339h56v-56h-56v56zM66 273h56v-56h-56v56zM132 273h56v-56h-56v56zM198 273h56v-56h-56v56z
M265 273h56v-56h-56v56zM331 273h56v-56h-56v56zM0 670h56v-56h-56v56zM66 670h56v-56h-56v56zM331 670h56v-56h-56v56zM397 670h56v-56h-56v56zM0 604h56v-56h-56v56zM66 604h56v-56h-56v56zM331 604h56v-56h-56v56zM397 604h56v-56h-56v56zM0 538h56v-56h-56v56zM66 538
h56v-56h-56v56zM331 538h56v-56h-56v56zM397 538h56v-56h-56v56zM0 472h56v-56h-56v56zM66 472h56v-56h-56v56zM331 472h56v-56h-56v56zM397 472h56v-56h-56v56z" />
    <glyph glyph-name="V" unicode="V" 
d="M0 405h56v-56h-56v56zM66 405h56v-56h-56v56zM331 405h56v-56h-56v56zM397 405h56v-56h-56v56zM66 339h56v-56h-56v56zM132 339h56v-56h-56v56zM265 339h56v-56h-56v56zM331 339h56v-56h-56v56zM132 273h56v-56h-56v56zM198 273h56v-56h-56v56zM265 273h56v-56h-56v56z
M0 670h56v-56h-56v56zM66 670h56v-56h-56v56zM331 670h56v-56h-56v56zM397 670h56v-56h-56v56zM0 604h56v-56h-56v56zM66 604h56v-56h-56v56zM331 604h56v-56h-56v56zM397 604h56v-56h-56v56zM0 538h56v-56h-56v56zM66 538h56v-56h-56v56zM331 538h56v-56h-56v56zM397 538
h56v-56h-56v56zM0 472h56v-56h-56v56zM66 472h56v-56h-56v56zM331 472h56v-56h-56v56zM397 472h56v-56h-56v56z" />
    <glyph glyph-name="W" unicode="W" 
d="M0 405h56v-56h-56v56zM66 405h56v-56h-56v56zM198 405h56v-56h-56v56zM331 405h56v-56h-56v56zM397 405h56v-56h-56v56zM0 339h56v-56h-56v56zM66 339h56v-56h-56v56zM132 339h56v-56h-56v56zM198 339h56v-56h-56v56zM265 339h56v-56h-56v56zM331 339h56v-56h-56v56z
M397 339h56v-56h-56v56zM66 273h56v-56h-56v56zM132 273h56v-56h-56v56zM265 273h56v-56h-56v56zM331 273h56v-56h-56v56zM0 670h56v-56h-56v56zM66 670h56v-56h-56v56zM331 670h56v-56h-56v56zM397 670h56v-56h-56v56zM0 604h56v-56h-56v56zM66 604h56v-56h-56v56zM331 604
h56v-56h-56v56zM397 604h56v-56h-56v56zM0 538h56v-56h-56v56zM66 538h56v-56h-56v56zM331 538h56v-56h-56v56zM397 538h56v-56h-56v56zM0 472h56v-56h-56v56zM66 472h56v-56h-56v56zM331 472h56v-56h-56v56zM397 472h56v-56h-56v56z" />
    <glyph glyph-name="X" unicode="X" 
d="M66 405h56v-56h-56v56zM132 405h56v-56h-56v56zM265 405h56v-56h-56v56zM331 405h56v-56h-56v56zM0 339h56v-56h-56v56zM66 339h56v-56h-56v56zM331 339h56v-56h-56v56zM397 339h56v-56h-56v56zM0 273h56v-56h-56v56zM397 273h56v-56h-56v56zM0 670h56v-56h-56v56z
M66 670h56v-56h-56v56zM387 614zM397 670h56v-56h-56v56zM66 604h56v-56h-56v56zM132 604h56v-56h-56v56zM265 604h56v-56h-56v56zM331 604h56v-56h-56v56zM132 538h56v-56h-56v56zM198 538h56v-56h-56v56zM265 538h56v-56h-56v56zM132 472h56v-56h-56v56zM198 472h56v-56
h-56v56zM265 472h56v-56h-56v56zM331 670h56v-56h-56v56z" />
    <glyph glyph-name="Y" unicode="Y" 
d="M132 405h56v-56h-56v56zM198 405h56v-56h-56v56zM132 339h56v-56h-56v56zM198 339h56v-56h-56v56zM132 273h56v-56h-56v56zM198 273h56v-56h-56v56zM0 670h56v-56h-56v56zM66 670h56v-56h-56v56zM265 670h56v-56h-56v56zM331 670h56v-56h-56v56zM0 604h56v-56h-56v56z
M66 604h56v-56h-56v56zM265 604h56v-56h-56v56zM331 604h56v-56h-56v56zM0 538h56v-56h-56v56zM66 538h56v-56h-56v56zM265 538h56v-56h-56v56zM331 538h56v-56h-56v56zM66 472h56v-56h-56v56zM132 472h56v-56h-56v56zM198 472h56v-56h-56v56zM265 472h56v-56h-56v56z" />
    <glyph glyph-name="Z" unicode="Z" 
d="M66 405h56v-56h-56v56zM132 405h56v-56h-56v56zM0 339h56v-56h-56v56zM66 339h56v-56h-56v56zM0 273h56v-56h-56v56zM66 273h56v-56h-56v56zM132 273h56v-56h-56v56zM198 273h56v-56h-56v56zM265 273h56v-56h-56v56zM331 273h56v-56h-56v56zM397 273h56v-56h-56v56z
M0 670h56v-56h-56v56zM66 670h56v-56h-56v56zM132 670h56v-56h-56v56zM198 670h56v-56h-56v56zM265 670h56v-56h-56v56zM331 670h56v-56h-56v56zM397 670h56v-56h-56v56zM265 604h56v-56h-56v56zM331 604h56v-56h-56v56zM198 538h56v-56h-56v56zM265 538h56v-56h-56v56z
M132 472h56v-56h-56v56zM198 472h56v-56h-56v56z" />
    <glyph glyph-name="bracketleft" unicode="[" horiz-adv-x="304" 
d="M0 405h56v-56h-56v56zM66 405h56v-56h-56v56zM0 339h56v-56h-56v56zM66 339h56v-56h-56v56zM0 273h56v-56h-56v56zM66 273h56v-56h-56v56zM132 273h56v-56h-56v56zM0 670h56v-56h-56v56zM66 670h56v-56h-56v56zM132 670h56v-56h-56v56zM0 604h56v-56h-56v56zM66 604h56
v-56h-56v56zM0 538h56v-56h-56v56zM66 538h56v-56h-56v56zM0 472h56v-56h-56v56zM66 472h56v-56h-56v56z" />
    <glyph glyph-name="backslash" unicode="\" 
d="M265 405h56v-56h-56v56zM331 405h56v-56h-56v56zM331 339h56v-56h-56v56zM397 339h56v-56h-56v56zM397 273h56v-56h-56v56zM0 670h56v-56h-56v56zM66 670h56v-56h-56v56zM66 604h56v-56h-56v56zM132 604h56v-56h-56v56zM132 538h56v-56h-56v56zM198 538h56v-56h-56v56z
M198 472h56v-56h-56v56zM265 472h56v-56h-56v56z" />
    <glyph glyph-name="bracketright" unicode="]" horiz-adv-x="320" 
d="M66 405h56v-56h-56v56zM132 405h56v-56h-56v56zM66 339h56v-56h-56v56zM132 339h56v-56h-56v56zM0 273h56v-56h-56v56zM66 273h56v-56h-56v56zM132 273h56v-56h-56v56zM0 670h56v-56h-56v56zM66 670h56v-56h-56v56zM132 670h56v-56h-56v56zM56 604zM66 604h56v-56h-56v56
zM132 604h56v-56h-56v56zM66 538h56v-56h-56v56zM132 538h56v-56h-56v56zM66 472h56v-56h-56v56zM132 472h56v-56h-56v56z" />
    <glyph glyph-name="a" unicode="a" 
d="M66 405h56v-56h-56v56zM132 405h56v-56h-56v56zM198 405h56v-56h-56v56zM265 405h56v-56h-56v56zM331 405h56v-56h-56v56zM397 405h56v-56h-56v56zM0 339h56v-56h-56v56zM66 339h56v-56h-56v56zM331 339h56v-56h-56v56zM397 339h56v-56h-56v56zM66 273h56v-56h-56v56z
M132 273h56v-56h-56v56zM198 273h56v-56h-56v56zM265 273h56v-56h-56v56zM331 273h56v-56h-56v56zM397 273h56v-56h-56v56zM66 538h56v-56h-56v56zM132 538h56v-56h-56v56zM198 538h56v-56h-56v56zM265 538h56v-56h-56v56zM331 538h56v-56h-56v56zM331 472h56v-56h-56v56z
M397 472h56v-56h-56v56z" />
    <glyph glyph-name="b" unicode="b" 
d="M0 405h56v-56h-56v56zM66 405h56v-56h-56v56zM331 405h56v-56h-56v56zM397 405h56v-56h-56v56zM0 339h56v-56h-56v56zM66 339h56v-56h-56v56zM331 339h56v-56h-56v56zM397 339h56v-56h-56v56zM0 273h56v-56h-56v56zM66 273h56v-56h-56v56zM132 273h56v-56h-56v56z
M198 273h56v-56h-56v56zM265 273h56v-56h-56v56zM331 273h56v-56h-56v56zM0 670h56v-56h-56v56zM66 670h56v-56h-56v56zM0 604h56v-56h-56v56zM66 604h56v-56h-56v56zM0 538h56v-56h-56v56zM66 538h56v-56h-56v56zM132 538h56v-56h-56v56zM198 538h56v-56h-56v56zM265 538
h56v-56h-56v56zM331 538h56v-56h-56v56zM0 472h56v-56h-56v56zM66 472h56v-56h-56v56zM331 472h56v-56h-56v56zM397 472h56v-56h-56v56z" />
    <glyph glyph-name="c" unicode="c" 
d="M0 405h56v-56h-56v56zM66 405h56v-56h-56v56zM0 339h56v-56h-56v56zM66 339h56v-56h-56v56zM331 339h56v-56h-56v56zM397 339h56v-56h-56v56zM66 273h56v-56h-56v56zM132 273h56v-56h-56v56zM198 273h56v-56h-56v56zM265 273h56v-56h-56v56zM331 273h56v-56h-56v56z
M66 538h56v-56h-56v56zM132 538h56v-56h-56v56zM198 538h56v-56h-56v56zM265 538h56v-56h-56v56zM331 538h56v-56h-56v56zM0 472h56v-56h-56v56zM66 472h56v-56h-56v56zM331 472h56v-56h-56v56zM397 472h56v-56h-56v56z" />
    <glyph glyph-name="d" unicode="d" 
d="M0 405h56v-56h-56v56zM66 405h56v-56h-56v56zM331 405h56v-56h-56v56zM397 405h56v-56h-56v56zM0 339h56v-56h-56v56zM66 339h56v-56h-56v56zM331 339h56v-56h-56v56zM397 339h56v-56h-56v56zM66 273h56v-56h-56v56zM132 273h56v-56h-56v56zM198 273h56v-56h-56v56z
M265 273h56v-56h-56v56zM331 273h56v-56h-56v56zM397 273h56v-56h-56v56zM331 670h56v-56h-56v56zM397 670h56v-56h-56v56zM331 604h56v-56h-56v56zM397 604h56v-56h-56v56zM66 538h56v-56h-56v56zM132 538h56v-56h-56v56zM198 538h56v-56h-56v56zM265 538h56v-56h-56v56z
M331 538h56v-56h-56v56zM397 538h56v-56h-56v56zM0 472h56v-56h-56v56zM66 472h56v-56h-56v56zM331 472h56v-56h-56v56zM397 472h56v-56h-56v56z" />
    <glyph glyph-name="e" unicode="e" 
d="M0 405h56v-56h-56v56zM66 405h56v-56h-56v56zM132 405h56v-56h-56v56zM198 405h56v-56h-56v56zM265 405h56v-56h-56v56zM331 405h56v-56h-56v56zM397 405h56v-56h-56v56zM0 339h56v-56h-56v56zM66 339h56v-56h-56v56zM66 273h56v-56h-56v56zM132 273h56v-56h-56v56z
M198 273h56v-56h-56v56zM265 273h56v-56h-56v56zM331 273h56v-56h-56v56zM66 538h56v-56h-56v56zM132 538h56v-56h-56v56zM198 538h56v-56h-56v56zM265 538h56v-56h-56v56zM331 538h56v-56h-56v56zM0 472h56v-56h-56v56zM66 472h56v-56h-56v56zM331 472h56v-56h-56v56z
M397 472h56v-56h-56v56z" />
    <glyph glyph-name="f" unicode="f" horiz-adv-x="392" 
d="M66 405h56v-56h-56v56zM132 405h56v-56h-56v56zM66 339h56v-56h-56v56zM132 339h56v-56h-56v56zM66 273h56v-56h-56v56zM132 273h56v-56h-56v56zM132 670h56v-56h-56v56zM198 670h56v-56h-56v56zM265 670h56v-56h-56v56zM66 604h56v-56h-56v56zM132 604h56v-56h-56v56z
M0 538h56v-56h-56v56zM66 538h56v-56h-56v56zM132 538h56v-56h-56v56zM198 538h56v-56h-56v56zM66 472h56v-56h-56v56zM132 472h56v-56h-56v56z" />
    <glyph glyph-name="g" unicode="g" 
d="M0 405h56v-56h-56v56zM66 405h56v-56h-56v56zM331 405h56v-56h-56v56zM397 405h56v-56h-56v56zM0 339h56v-56h-56v56zM66 339h56v-56h-56v56zM331 339h56v-56h-56v56zM397 339h56v-56h-56v56zM66 273h56v-56h-56v56zM132 273h56v-56h-56v56zM198 273h56v-56h-56v56z
M265 273h56v-56h-56v56zM331 273h56v-56h-56v56zM397 273h56v-56h-56v56zM331 207h56v-56h-56v56zM397 207h56v-56h-56v56zM66 538h56v-56h-56v56zM132 538h56v-56h-56v56zM198 538h56v-56h-56v56zM265 538h56v-56h-56v56zM331 538h56v-56h-56v56zM0 472h56v-56h-56v56z
M66 472h56v-56h-56v56zM331 472h56v-56h-56v56zM397 472h56v-56h-56v56zM66 140h56v-56h-56v56zM132 140h56v-56h-56v56zM198 140h56v-56h-56v56zM265 140h56v-56h-56v56zM331 140h56v-56h-56v56z" />
    <glyph glyph-name="h" unicode="h" 
d="M0 405h56v-56h-56v56zM66 405h56v-56h-56v56zM331 405h56v-56h-56v56zM397 405h56v-56h-56v56zM0 339h56v-56h-56v56zM66 339h56v-56h-56v56zM331 339h56v-56h-56v56zM397 339h56v-56h-56v56zM0 273h56v-56h-56v56zM66 273h56v-56h-56v56zM331 273h56v-56h-56v56z
M397 273h56v-56h-56v56zM0 670h56v-56h-56v56zM66 670h56v-56h-56v56zM0 604h56v-56h-56v56zM66 604h56v-56h-56v56zM0 538h56v-56h-56v56zM66 538h56v-56h-56v56zM132 538h56v-56h-56v56zM198 538h56v-56h-56v56zM265 538h56v-56h-56v56zM331 538h56v-56h-56v56zM0 472h56
v-56h-56v56zM66 472h56v-56h-56v56zM331 472h56v-56h-56v56zM397 472h56v-56h-56v56z" />
    <glyph glyph-name="i" unicode="i" horiz-adv-x="188" 
d="M0 405h56v-56h-56v56zM66 405h56v-56h-56v56zM0 339h56v-56h-56v56zM66 339h56v-56h-56v56zM0 273h56v-56h-56v56zM66 273h56v-56h-56v56zM0 670h56v-56h-56v56zM66 670h56v-56h-56v56zM0 538h56v-56h-56v56zM66 538h56v-56h-56v56zM0 472h56v-56h-56v56zM66 472h56v-56
h-56v56z" />
    <glyph glyph-name="j" unicode="j" horiz-adv-x="322" 
d="M132 405h56v-56h-56v56zM198 405h56v-56h-56v56zM132 339h56v-56h-56v56zM198 339h56v-56h-56v56zM132 273h56v-56h-56v56zM198 273h56v-56h-56v56zM132 207h56v-56h-56v56zM198 207h56v-56h-56v56zM132 670h56v-56h-56v56zM198 670h56v-56h-56v56zM66 538h56v-56h-56v56
zM132 538h56v-56h-56v56zM198 538h56v-56h-56v56zM132 472h56v-56h-56v56zM198 472h56v-56h-56v56zM0 140h56v-56h-56v56zM66 140h56v-56h-56v56zM132 140h56v-56h-56v56z" />
    <glyph glyph-name="k" unicode="k" 
d="M0 405h56v-56h-56v56zM66 405h56v-56h-56v56zM132 405h56v-56h-56v56zM198 405h56v-56h-56v56zM0 339h56v-56h-56v56zM66 339h56v-56h-56v56zM198 339h56v-56h-56v56zM265 339h56v-56h-56v56zM0 273h56v-56h-56v56zM66 273h56v-56h-56v56zM265 273h56v-56h-56v56z
M331 273h56v-56h-56v56zM0 670h56v-56h-56v56zM66 670h56v-56h-56v56zM0 604h56v-56h-56v56zM66 604h56v-56h-56v56zM0 538h56v-56h-56v56zM66 538h56v-56h-56v56zM265 538h56v-56h-56v56zM331 538h56v-56h-56v56zM0 472h56v-56h-56v56zM66 472h56v-56h-56v56zM198 472h56
v-56h-56v56zM265 472h56v-56h-56v56zM331 472z" />
    <glyph glyph-name="l" unicode="l" horiz-adv-x="188" 
d="M0 405h56v-56h-56v56zM66 405h56v-56h-56v56zM0 339h56v-56h-56v56zM66 339h56v-56h-56v56zM0 273h56v-56h-56v56zM66 273h56v-56h-56v56zM0 670h56v-56h-56v56zM66 670h56v-56h-56v56zM0 604h56v-56h-56v56zM66 604h56v-56h-56v56zM0 538h56v-56h-56v56zM66 538h56v-56
h-56v56zM0 472h56v-56h-56v56zM66 472h56v-56h-56v56z" />
    <glyph glyph-name="m" unicode="m" 
d="M0 405h56v-56h-56v56zM66 405h56v-56h-56v56zM198 405h56v-56h-56v56zM331 405h56v-56h-56v56zM397 405h56v-56h-56v56zM0 339h56v-56h-56v56zM66 339h56v-56h-56v56zM198 339h56v-56h-56v56zM331 339h56v-56h-56v56zM397 339h56v-56h-56v56zM0 273h56v-56h-56v56z
M66 273h56v-56h-56v56zM198 273h56v-56h-56v56zM331 273h56v-56h-56v56zM397 273h56v-56h-56v56zM0 538h56v-56h-56v56zM66 538h56v-56h-56v56zM132 538h56v-56h-56v56zM265 538h56v-56h-56v56zM331 538h56v-56h-56v56zM0 472h56v-56h-56v56zM66 472h56v-56h-56v56zM198 472
h56v-56h-56v56zM331 472h56v-56h-56v56zM397 472h56v-56h-56v56z" />
    <glyph glyph-name="n" unicode="n" horiz-adv-x="452" 
d="M0 405h56v-56h-56v56zM66 405h56v-56h-56v56zM265 405h56v-56h-56v56zM331 405h56v-56h-56v56zM0 339h56v-56h-56v56zM66 339h56v-56h-56v56zM265 339h56v-56h-56v56zM331 339h56v-56h-56v56zM0 273h56v-56h-56v56zM66 273h56v-56h-56v56zM265 273h56v-56h-56v56z
M331 273h56v-56h-56v56zM0 538h56v-56h-56v56zM66 538h56v-56h-56v56zM132 538h56v-56h-56v56zM198 538h56v-56h-56v56zM265 538h56v-56h-56v56zM0 472h56v-56h-56v56zM66 472h56v-56h-56v56zM265 472h56v-56h-56v56zM331 472h56v-56h-56v56z" />
    <glyph glyph-name="o" unicode="o" 
d="M0 405h56v-56h-56v56zM66 405h56v-56h-56v56zM331 405h56v-56h-56v56zM397 405h56v-56h-56v56zM0 339h56v-56h-56v56zM66 339h56v-56h-56v56zM331 339h56v-56h-56v56zM397 339h56v-56h-56v56zM66 273h56v-56h-56v56zM132 273h56v-56h-56v56zM198 273h56v-56h-56v56z
M265 273h56v-56h-56v56zM331 273h56v-56h-56v56zM66 538h56v-56h-56v56zM132 538h56v-56h-56v56zM198 538h56v-56h-56v56zM265 538h56v-56h-56v56zM331 538h56v-56h-56v56zM0 472h56v-56h-56v56zM66 472h56v-56h-56v56zM331 472h56v-56h-56v56zM397 472h56v-56h-56v56z" />
    <glyph glyph-name="p" unicode="p" 
d="M0 405h56v-56h-56v56zM66 405h56v-56h-56v56zM331 405h56v-56h-56v56zM397 405h56v-56h-56v56zM0 339h56v-56h-56v56zM66 339h56v-56h-56v56zM331 339h56v-56h-56v56zM397 339h56v-56h-56v56zM0 273h56v-56h-56v56zM66 273h56v-56h-56v56zM132 273h56v-56h-56v56z
M198 273h56v-56h-56v56zM265 273h56v-56h-56v56zM331 273h56v-56h-56v56zM0 207h56v-56h-56v56zM66 207h56v-56h-56v56zM0 538h56v-56h-56v56zM66 538h56v-56h-56v56zM132 538h56v-56h-56v56zM198 538h56v-56h-56v56zM265 538h56v-56h-56v56zM331 538h56v-56h-56v56zM0 472
h56v-56h-56v56zM66 472h56v-56h-56v56zM331 472h56v-56h-56v56zM397 472h56v-56h-56v56zM0 140h56v-56h-56v56zM66 140h56v-56h-56v56z" />
    <glyph glyph-name="q" unicode="q" 
d="M0 405h56v-56h-56v56zM66 405h56v-56h-56v56zM331 405h56v-56h-56v56zM397 405h56v-56h-56v56zM0 339h56v-56h-56v56zM66 339h56v-56h-56v56zM331 339h56v-56h-56v56zM397 339h56v-56h-56v56zM66 273h56v-56h-56v56zM132 273h56v-56h-56v56zM198 273h56v-56h-56v56z
M265 273h56v-56h-56v56zM331 273h56v-56h-56v56zM397 273h56v-56h-56v56zM331 207h56v-56h-56v56zM397 207h56v-56h-56v56zM66 538h56v-56h-56v56zM132 538h56v-56h-56v56zM198 538h56v-56h-56v56zM265 538h56v-56h-56v56zM331 538h56v-56h-56v56zM397 538h56v-56h-56v56z
M0 472h56v-56h-56v56zM66 472h56v-56h-56v56zM331 472h56v-56h-56v56zM397 472h56v-56h-56v56zM331 140h56v-56h-56v56zM397 140h56v-56h-56v56z" />
    <glyph glyph-name="r" unicode="r" horiz-adv-x="388" 
d="M0 405h56v-56h-56v56zM66 405h56v-56h-56v56zM0 339h56v-56h-56v56zM66 339h56v-56h-56v56zM0 273h56v-56h-56v56zM66 273h56v-56h-56v56zM0 538h56v-56h-56v56zM66 538h56v-56h-56v56zM198 538h56v-56h-56v56zM265 538h56v-56h-56v56zM0 472h56v-56h-56v56zM66 472h56
v-56h-56v56zM132 472h56v-56h-56v56z" />
    <glyph glyph-name="s" unicode="s" 
d="M66 405h56v-56h-56v56zM132 405h56v-56h-56v56zM198 405h56v-56h-56v56zM265 405h56v-56h-56v56zM331 405h56v-56h-56v56zM331 339h56v-56h-56v56zM397 339h56v-56h-56v56zM66 273h56v-56h-56v56zM132 273h56v-56h-56v56zM198 273h56v-56h-56v56zM265 273h56v-56h-56v56z
M331 273h56v-56h-56v56zM66 538h56v-56h-56v56zM132 538h56v-56h-56v56zM198 538h56v-56h-56v56zM265 538h56v-56h-56v56zM331 538h56v-56h-56v56zM0 472h56v-56h-56v56zM66 472h56v-56h-56v56z" />
    <glyph glyph-name="t" unicode="t" horiz-adv-x="388" 
d="M66 405h56v-56h-56v56zM132 405h56v-56h-56v56zM66 339h56v-56h-56v56zM132 339h56v-56h-56v56zM132 273h56v-56h-56v56zM198 273h56v-56h-56v56zM265 273h56v-56h-56v56zM66 670h56v-56h-56v56zM132 670h56v-56h-56v56zM66 604h56v-56h-56v56zM132 604h56v-56h-56v56z
M0 538h56v-56h-56v56zM66 538h56v-56h-56v56zM132 538h56v-56h-56v56zM198 538h56v-56h-56v56zM66 472h56v-56h-56v56zM132 472h56v-56h-56v56z" />
    <glyph glyph-name="u" unicode="u" 
d="M0 405h56v-56h-56v56zM66 405h56v-56h-56v56zM331 405h56v-56h-56v56zM397 405h56v-56h-56v56zM0 339h56v-56h-56v56zM66 339h56v-56h-56v56zM331 339h56v-56h-56v56zM397 339h56v-56h-56v56zM66 273h56v-56h-56v56zM132 273h56v-56h-56v56zM198 273h56v-56h-56v56z
M265 273h56v-56h-56v56zM331 273h56v-56h-56v56zM397 273h56v-56h-56v56zM0 538h56v-56h-56v56zM66 538h56v-56h-56v56zM331 538h56v-56h-56v56zM397 538h56v-56h-56v56zM0 472h56v-56h-56v56zM66 472h56v-56h-56v56zM331 472h56v-56h-56v56zM397 472h56v-56h-56v56z" />
    <glyph glyph-name="v" unicode="v" 
d="M0 405h56v-56h-56v56zM66 405h56v-56h-56v56zM331 405h56v-56h-56v56zM397 405h56v-56h-56v56zM66 339h56v-56h-56v56zM132 339h56v-56h-56v56zM265 339h56v-56h-56v56zM331 339h56v-56h-56v56zM132 273h56v-56h-56v56zM198 273h56v-56h-56v56zM265 273h56v-56h-56v56z
M0 538h56v-56h-56v56zM66 538h56v-56h-56v56zM331 538h56v-56h-56v56zM397 538h56v-56h-56v56zM0 472h56v-56h-56v56zM66 472h56v-56h-56v56zM331 472h56v-56h-56v56zM397 472h56v-56h-56v56z" />
    <glyph glyph-name="w" unicode="w" 
d="M0 405h56v-56h-56v56zM66 405h56v-56h-56v56zM331 405h56v-56h-56v56zM397 405h56v-56h-56v56zM0 339h56v-56h-56v56zM66 339h56v-56h-56v56zM198 339h56v-56h-56v56zM331 339h56v-56h-56v56zM397 339h56v-56h-56v56zM66 273h56v-56h-56v56zM132 273h56v-56h-56v56z
M265 273h56v-56h-56v56zM331 273h56v-56h-56v56zM0 538h56v-56h-56v56zM66 538h56v-56h-56v56zM331 538h56v-56h-56v56zM397 538h56v-56h-56v56zM0 472h56v-56h-56v56zM66 472h56v-56h-56v56zM331 472h56v-56h-56v56zM397 472h56v-56h-56v56z" />
    <glyph glyph-name="x" unicode="x" 
d="M132 405h56v-56h-56v56zM198 405h56v-56h-56v56zM265 405h56v-56h-56v56zM66 339h56v-56h-56v56zM132 339h56v-56h-56v56zM265 339h56v-56h-56v56zM331 339h56v-56h-56v56zM0 273h56v-56h-56v56zM66 273h56v-56h-56v56zM331 273h56v-56h-56v56zM397 273h56v-56h-56v56z
M0 538h56v-56h-56v56zM66 538h56v-56h-56v56zM331 538h56v-56h-56v56zM397 538h56v-56h-56v56zM66 472h56v-56h-56v56zM132 472h56v-56h-56v56zM265 472h56v-56h-56v56zM331 472h56v-56h-56v56z" />
    <glyph glyph-name="y" unicode="y" 
d="M0 405h56v-56h-56v56zM66 405h56v-56h-56v56zM331 405h56v-56h-56v56zM397 405h56v-56h-56v56zM0 339h56v-56h-56v56zM66 339h56v-56h-56v56zM331 339h56v-56h-56v56zM397 339h56v-56h-56v56zM66 273h56v-56h-56v56zM132 273h56v-56h-56v56zM198 273h56v-56h-56v56z
M265 273h56v-56h-56v56zM331 273h56v-56h-56v56zM397 273h56v-56h-56v56zM331 207h56v-56h-56v56zM397 207h56v-56h-56v56zM0 538h56v-56h-56v56zM66 538h56v-56h-56v56zM331 538h56v-56h-56v56zM397 538h56v-56h-56v56zM0 472h56v-56h-56v56zM66 472h56v-56h-56v56z
M331 472h56v-56h-56v56zM397 472h56v-56h-56v56zM66 140h56v-56h-56v56zM132 140h56v-56h-56v56zM198 140h56v-56h-56v56zM265 140h56v-56h-56v56zM331 140h56v-56h-56v56z" />
    <glyph glyph-name="z" unicode="z" 
d="M132 405h56v-56h-56v56zM198 405h56v-56h-56v56zM265 405h56v-56h-56v56zM66 339h56v-56h-56v56zM132 339h56v-56h-56v56zM0 273h56v-56h-56v56zM66 273h56v-56h-56v56zM132 273h56v-56h-56v56zM198 273h56v-56h-56v56zM265 273h56v-56h-56v56zM331 273h56v-56h-56v56z
M397 273h56v-56h-56v56zM0 538h56v-56h-56v56zM66 538h56v-56h-56v56zM132 538h56v-56h-56v56zM198 538h56v-56h-56v56zM265 538h56v-56h-56v56zM331 538h56v-56h-56v56zM397 538h56v-56h-56v56zM265 472h56v-56h-56v56zM331 472h56v-56h-56v56z" />
    <glyph glyph-name="glyph91" 
 />
    <glyph glyph-name="glyph92" 
 />
    <glyph glyph-name="glyph92" 
 />
    <glyph glyph-name="glyph93" 
 />
    <glyph glyph-name="glyph91" horiz-adv-x="114" 
 />
    <glyph glyph-name="ch255" horiz-adv-x="114" 
 />
  </font>
</defs>
</svg>
