<?xml version="1.0" standalone="no"?>
<!DOCTYPE svg PUBLIC "-//W3C//DTD SVG 1.1//EN" "http://www.w3.org/Graphics/SVG/1.1/DTD/svg11.dtd" >
<svg xmlns="http://www.w3.org/2000/svg" xmlns:xlink="http://www.w3.org/1999/xlink" version="1.1">
<metadata>
Created by FontForge 20170731 at Wed Nov 25 23:36:23 1998
 By Aleksey,,,
(c) 1998 utopiafonts. dale_thorpe@bssc.edu.au
</metadata>
<defs>
<font id="Pixel" horiz-adv-x="930" >
  <font-face 
    font-family="Pixel"
    font-weight="400"
    font-stretch="normal"
    units-per-em="1000"
    panose-1="0 0 4 0 0 0 0 0 0 0"
    ascent="800"
    descent="-200"
    x-height="456"
    cap-height="756"
    bbox="1 -452 1509 800"
    underline-thickness="20"
    underline-position="-163"
    unicode-range="U+0020-007E"
  />
<missing-glyph horiz-adv-x="500" 
d="M63 0v800h375v-800h-375zM125 63h250v675h-250v-675z" />
    <glyph glyph-name=".notdef" horiz-adv-x="500" 
d="M63 0v800h375v-800h-375zM125 63h250v675h-250v-675z" />
    <glyph glyph-name=".null" horiz-adv-x="0" 
 />
    <glyph glyph-name="nonmarkingreturn" horiz-adv-x="394" 
 />
    <glyph glyph-name="space" unicode=" " horiz-adv-x="394" 
 />
    <glyph glyph-name="exclam" unicode="!" horiz-adv-x="338" 
d="M1 298v458h158v-458h-158zM1 -2v158h158v-158h-158z" />
    <glyph glyph-name="quotedbl" unicode="&#x22;" horiz-adv-x="638" 
d="M301 448v308h158v-308h-158zM1 448v308h158v-308h-158z" />
    <glyph glyph-name="numbersign" unicode="#" horiz-adv-x="924" 
d="M309 448v-142h142v142h-142zM151 -2v150h-150v158h150v142h-150v158h150v150h158v-150h142v150h158v-150h150v-158h-150v-142h150v-158h-150v-150h-158v150h-142v-150h-158z" />
    <glyph glyph-name="dollar" unicode="$" horiz-adv-x="920" 
d="M159 456h142v142h-142v-142zM459 298v-142h142v142h-142zM1 -2v158h300v142h-150v150h-150v158h150v150h608v-158h-300v-142h150v-150h150v-158h-150v-150h-608z" />
    <glyph glyph-name="percent" unicode="%" horiz-adv-x="1660" 
d="M909 306h292v142h-292v-142zM309 306h292v142h-292v-142zM301 -452v150h-150v158h150v142h-300v458h150v150h300v150h608v-150h300v-150h150v-458h-300v-142h150v-158h-150v-150h-158v158h150v142h-150v150h-592v-150h-150v-142h150v-158h-158zM601 -302v158h308v-158
h-308z" />
    <glyph glyph-name="ampersand" unicode="&#x26;" horiz-adv-x="626" 
d="M151 148v150h-150v158h150v150h158v-150h150v-158h-150v-150h-158z" />
    <glyph glyph-name="quotesingle" unicode="'" horiz-adv-x="338" 
d="M1 448v308h158v-308h-158z" />
    <glyph glyph-name="parenleft" unicode="(" horiz-adv-x="474" 
d="M151 -2v150h-150v458h150v150h158v-158h-150v-442h150v-158h-158z" />
    <glyph glyph-name="parenright" unicode=")" horiz-adv-x="480" 
d="M1 -2v158h150v442h-150v158h158v-150h150v-458h-150v-150h-158z" />
    <glyph glyph-name="asterisk" unicode="*" horiz-adv-x="1660" 
d="M909 306h292v142h-292v-142zM309 306h292v142h-292v-142zM1 -452v158h150v150h150v142h-300v458h150v150h300v150h608v-150h300v-150h150v-458h-300v-142h150v-150h150v-158h-158v150h-150v150h-150v150h-592v-150h-150v-150h-150v-150h-158zM601 -302v158h308v-158h-308
z" />
    <glyph glyph-name="plus" unicode="+" horiz-adv-x="626" 
d="M151 148v150h-150v158h150v150h158v-150h150v-158h-150v-150h-158z" />
    <glyph glyph-name="comma" unicode="," horiz-adv-x="339" 
d="M1 -2v308h158v-308h-158z" />
    <glyph glyph-name="hyphen" unicode="-" horiz-adv-x="644" 
d="M1 298v158h458v-158h-458z" />
    <glyph glyph-name="hyphen" unicode="&#x2010;" horiz-adv-x="644" 
d="M1 298v158h458v-158h-458z" />
    <glyph glyph-name="period" unicode="." horiz-adv-x="344" 
d="M1 -2v158h158v-158h-158z" />
    <glyph glyph-name="slash" unicode="/" horiz-adv-x="611" 
d="M1 -2v158h150v450h150v150h158v-158h-150v-450h-150v-150h-158z" />
    <glyph glyph-name="zero" unicode="0" 
d="M159 156h442v442h-442v-442zM151 -2v150h-150v458h150v150h458v-150h150v-458h-150v-150h-458z" />
    <glyph glyph-name="one" unicode="1" horiz-adv-x="490" 
d="M151 -2v600h-150v158h308v-758h-158z" />
    <glyph glyph-name="two" unicode="2" horiz-adv-x="914" 
d="M1 -2v158h150v150h150v150h300v142h-442v-150h-158v158h150v150h458v-150h150v-158h-150v-150h-300v-142h450v-158h-758z" />
    <glyph glyph-name="three" unicode="3" 
d="M1 -2v158h600v142h-450v158h450v142h-600v158h608v-150h150v-458h-150v-150h-608z" />
    <glyph glyph-name="four" unicode="4" horiz-adv-x="920" 
d="M1 298v458h158v-300h292v300h158v-300h150v-158h-150v-300h-158v300h-450z" />
    <glyph glyph-name="five" unicode="5" horiz-adv-x="911" 
d="M1 -2v158h600v142h-600v458h758v-158h-600v-142h450v-150h150v-158h-150v-150h-608z" />
    <glyph glyph-name="six" unicode="6" horiz-adv-x="911" 
d="M159 156h442v142h-442v-142zM151 -2v150h-150v458h150v150h608v-158h-600v-142h450v-150h150v-158h-150v-150h-458z" />
    <glyph glyph-name="seven" unicode="7" horiz-adv-x="911" 
d="M301 -2v308h150v150h150v142h-600v158h758v-308h-150v-150h-150v-300h-158z" />
    <glyph glyph-name="eight" unicode="8" horiz-adv-x="924" 
d="M159 456h442v142h-442v-142zM159 156h442v142h-442v-142zM151 -2v150h-150v158h150v142h-150v158h150v150h458v-150h150v-158h-150v-142h150v-158h-150v-150h-458z" />
    <glyph glyph-name="nine" unicode="9" 
d="M159 456h442v142h-442v-142zM1 -2v158h600v142h-450v150h-150v158h150v150h458v-150h150v-458h-150v-150h-608z" />
    <glyph glyph-name="colon" unicode=":" horiz-adv-x="331" 
d="M1 448v158h158v-158h-158zM1 148v158h158v-158h-158z" />
    <glyph glyph-name="semicolon" unicode=";" horiz-adv-x="333" 
d="M1 448v158h158v-158h-158zM1 -2v308h158v-308h-158z" />
    <glyph glyph-name="less" unicode="&#x3c;" horiz-adv-x="618" 
d="M301 -2v150h-150v150h-150v158h150v150h150v150h158v-158h-150v-150h-150v-142h150v-150h150v-158h-158z" />
    <glyph glyph-name="equal" unicode="=" horiz-adv-x="615" 
d="M1 448v158h458v-158h-458zM1 148v158h458v-158h-458z" />
    <glyph glyph-name="greater" unicode="&#x3e;" horiz-adv-x="605" 
d="M1 -2v158h150v150h150v142h-150v150h-150v158h158v-150h150v-150h150v-158h-150v-150h-150v-150h-158z" />
    <glyph glyph-name="question" unicode="?" horiz-adv-x="888" 
d="M1 448v158h150v150h458v-150h150v-158h-150v-150h-158v158h150v142h-442v-150h-158zM301 -2v158h158v-158h-158z" />
    <glyph glyph-name="at" unicode="@" 
d="M1 -2v608h150v150h458v-150h150v-458h-150v-150h-158v150h-150v308h158v-300h142v442h-442v-600h-158z" />
    <glyph glyph-name="A" unicode="A" horiz-adv-x="939" 
d="M159 456h442v142h-442v-142zM1 -2v608h150v150h458v-150h150v-608h-158v300h-442v-300h-158z" />
    <glyph glyph-name="B" unicode="B" 
d="M159 456h442v142h-442v-142zM159 156h442v142h-442v-142zM1 -2v758h608v-150h150v-458h-150v-150h-608z" />
    <glyph glyph-name="C" unicode="C" horiz-adv-x="908" 
d="M151 -2v150h-150v458h150v150h458v-150h150v-158h-158v150h-442v-442h442v150h158v-158h-150v-150h-458z" />
    <glyph glyph-name="D" unicode="D" 
d="M159 156h442v442h-442v-442zM1 -2v758h608v-150h150v-458h-150v-150h-608z" />
    <glyph glyph-name="E" unicode="E" horiz-adv-x="894" 
d="M1 -2v758h758v-158h-600v-142h450v-158h-450v-142h600v-158h-758z" />
    <glyph glyph-name="F" unicode="F" horiz-adv-x="866" 
d="M1 -2v758h758v-158h-600v-142h450v-158h-450v-300h-158z" />
    <glyph glyph-name="G" unicode="G" horiz-adv-x="920" 
d="M151 -2v150h-150v458h150v150h608v-158h-600v-442h442v142h-150v158h308v-308h-150v-150h-458z" />
    <glyph glyph-name="H" unicode="H" horiz-adv-x="940" 
d="M1 -2v758h158v-300h442v300h158v-758h-158v300h-442v-300h-158z" />
    <glyph glyph-name="I" unicode="I" horiz-adv-x="340" 
d="M1 -2v758h158v-758h-158z" />
    <glyph glyph-name="J" unicode="J" horiz-adv-x="939" 
d="M151 -2v150h-150v308h158v-300h442v600h158v-608h-150v-150h-458z" />
    <glyph glyph-name="K" unicode="K" horiz-adv-x="918" 
d="M1 -2v758h158v-300h292v150h150v150h158v-158h-150v-150h-150v-142h150v-150h150v-158h-158v150h-150v150h-292v-300h-158z" />
    <glyph glyph-name="L" unicode="L" horiz-adv-x="851" 
d="M1 -2v758h158v-600h600v-158h-758z" />
    <glyph glyph-name="M" unicode="M" horiz-adv-x="939" 
d="M1 -2v608h150v150h458v-150h150v-608h-158v600h-142v-450h-158v450h-142v-600h-158z" />
    <glyph glyph-name="N" unicode="N" horiz-adv-x="939" 
d="M1 -2v608h150v150h458v-150h150v-608h-158v600h-442v-600h-158z" />
    <glyph glyph-name="O" unicode="O" 
d="M159 156h442v442h-442v-442zM151 -2v150h-150v458h150v150h458v-150h150v-458h-150v-150h-458z" />
    <glyph glyph-name="P" unicode="P" horiz-adv-x="881" 
d="M159 456h442v142h-442v-142zM1 -2v758h608v-150h150v-158h-150v-150h-450v-300h-158z" />
    <glyph glyph-name="Q" unicode="Q" 
d="M159 156h292v150h150v292h-442v-442zM151 -2v150h-150v458h150v150h458v-150h150v-308h-150v-142h150v-158h-158v150h-142v-150h-308z" />
    <glyph glyph-name="R" unicode="R" horiz-adv-x="924" 
d="M159 456h442v142h-442v-142zM1 -2v758h608v-150h150v-158h-150v-292h150v-158h-158v150h-150v150h-292v-300h-158z" />
    <glyph glyph-name="S" unicode="S" horiz-adv-x="911" 
d="M1 -2v158h600v142h-450v150h-150v158h150v150h608v-158h-600v-142h450v-150h150v-158h-150v-150h-608z" />
    <glyph glyph-name="T" unicode="T" horiz-adv-x="893" 
d="M301 -2v600h-300v158h758v-158h-300v-600h-158z" />
    <glyph glyph-name="U" unicode="U" horiz-adv-x="939" 
d="M151 -2v150h-150v608h158v-600h442v600h158v-608h-150v-150h-458z" />
    <glyph glyph-name="V" unicode="V" horiz-adv-x="921" 
d="M301 -2v150h-150v150h-150v458h158v-450h150v-150h142v150h150v450h158v-458h-150v-150h-150v-150h-158z" />
    <glyph glyph-name="W" unicode="W" horiz-adv-x="939" 
d="M151 -2v150h-150v608h158v-600h142v450h158v-450h142v600h158v-608h-150v-150h-458z" />
    <glyph glyph-name="X" unicode="X" horiz-adv-x="918" 
d="M1 -2v158h150v150h150v142h-150v150h-150v158h158v-150h150v-150h142v150h150v150h158v-158h-150v-150h-150v-142h150v-150h150v-158h-158v150h-150v150h-142v-150h-150v-150h-158z" />
    <glyph glyph-name="Y" unicode="Y" horiz-adv-x="899" 
d="M301 -2v450h-150v150h-150v158h158v-150h150v-150h142v150h150v150h158v-158h-150v-150h-150v-450h-158z" />
    <glyph glyph-name="Z" unicode="Z" horiz-adv-x="906" 
d="M1 -2v158h150v150h150v150h150v142h-450v158h758v-158h-150v-150h-150v-150h-150v-142h450v-158h-758z" />
    <glyph glyph-name="bracketleft" unicode="[" horiz-adv-x="1671" 
d="M909 156h142v142h-142v-142zM459 156h142v142h-142v-142zM151 -452v158h150v292h-150v150h-150v308h158v-150h142v300h150v150h158v-158h-150v-142h592v142h-150v158h158v-150h150v-300h142v150h158v-308h-150v-150h-150v-292h150v-158h-158v150h-150v150h-592v-150h-150
v-150h-158z" />
    <glyph glyph-name="backslash" unicode="\" horiz-adv-x="612" 
d="M301 -2v150h-150v450h-150v158h158v-150h150v-450h150v-158h-158z" />
    <glyph glyph-name="bracketright" unicode="]" horiz-adv-x="1659" 
d="M909 156h142v142h-142v-142zM459 156h142v142h-142v-142zM1 -152v308h150v150h150v292h-150v158h158v-150h150v-150h592v150h150v150h158v-158h-150v-292h150v-150h150v-308h-158v150h-142v-300h-150v-150h-158v158h150v142h-592v-142h150v-158h-158v150h-150v300h-142
v-150h-158z" />
    <glyph glyph-name="asciicircum" unicode="^" horiz-adv-x="1554" 
d="M155 406v-33q23 -93 156 -152q177 -79 362 -79h107q458 43 518 231v33q-22 92 -156 152q-175 78 -362 78h-107q-458 -42 -518 -230zM645 650q31 1 99 1q118 0 199 -12l74 -11l146 -32q98 -21 165 -59q96 -54 108 -128v-36q-10 -36 -25 -53q-59 -65 -145 -99
q-206 -81 -458 -89q-61 -2 -96 -2q-109 0 -205 13l-74 10l-146 32q-95 21 -165 60q-96 53 -108 128v36q10 36 25 53q58 65 145 99q206 81 461 89zM306 447v-98h80v98h28v-92q0 -29 -30 -29h-76q-30 0 -30 29v92h28zM523 425v-99h-28v99h-56v22h140v-22h-56zM614 418
q0 29 30 29h89q29 0 29 -29v-63q0 -29 -29 -29h-89q-30 0 -30 29v63zM642 349h92v76h-92v-76zM905 426h-63v-32h63q13 0 13 10v13q0 9 -13 9zM814 326v121h104q27 0 27 -24v-26q0 -24 -27 -24h-76v-47h-28zM985 326v121h28v-121h-28zM1095 374h53l-26 49zM1041 326l69 121
h27l69 -121h-32l-14 27h-77l-14 -27h-28z" />
    <glyph glyph-name="underscore" unicode="_" horiz-adv-x="794" 
d="M1 -2v158h608v-158h-608z" />
    <glyph glyph-name="grave" unicode="`" horiz-adv-x="1207" 
d="M759 448v-142h142v142h-142zM309 306h142v142h-142v-142zM301 -302v150h-150v158h150v142h-150v308h150v150h150v150h308v-150h150v-150h150v-308h-150v-142h150v-158h-150v-150h-158v158h150v142h-150v150h-292v-150h-150v-142h150v-158h-158z" />
    <glyph glyph-name="a" unicode="a" horiz-adv-x="791" 
d="M159 156h292v142h-292v-142zM151 -2v150h-150v158h150v150h458v-458h-458z" />
    <glyph glyph-name="b" unicode="b" horiz-adv-x="763" 
d="M159 156h292v142h-292v-142zM1 -2v758h158v-300h300v-150h150v-158h-150v-150h-458z" />
    <glyph glyph-name="c" unicode="c" horiz-adv-x="764" 
d="M151 -2v150h-150v158h150v150h458v-158h-450v-142h450v-158h-458z" />
    <glyph glyph-name="d" unicode="d" horiz-adv-x="790" 
d="M159 156h292v142h-292v-142zM151 -2v150h-150v158h150v150h300v300h158v-758h-458z" />
    <glyph glyph-name="e" unicode="e" horiz-adv-x="770" 
d="M159 156h292v142h-292v-142zM151 -302v150h-150v458h150v150h308v-150h150v-158h-150v-150h-300v-142h450v-158h-458z" />
    <glyph glyph-name="f" unicode="f" horiz-adv-x="733" 
d="M1 -302v908h150v150h458v-158h-450v-142h300v-158h-300v-600h-158z" />
    <glyph glyph-name="g" unicode="g" horiz-adv-x="789" 
d="M159 156h292v142h-292v-142zM1 -302v158h450v142h-300v150h-150v158h150v150h308v-150h150v-458h-150v-150h-458z" />
    <glyph glyph-name="h" unicode="h" horiz-adv-x="770" 
d="M1 -2v758h158v-300h300v-150h150v-308h-158v300h-292v-300h-158z" />
    <glyph glyph-name="i" unicode="i" horiz-adv-x="338" 
d="M1 598v158h158v-158h-158zM1 -2v458h158v-458h-158z" />
    <glyph glyph-name="j" unicode="j" horiz-adv-x="482" 
d="M151 598v158h158v-158h-158zM1 -302v158h150v600h158v-608h-150v-150h-158z" />
    <glyph glyph-name="k" unicode="k" horiz-adv-x="771" 
d="M1 -2v758h158v-450h292v150h158v-158h-150v-142h150v-158h-158v150h-292v-150h-158z" />
    <glyph glyph-name="l" unicode="l" horiz-adv-x="340" 
d="M1 -2v758h158v-758h-158z" />
    <glyph glyph-name="m" unicode="m" horiz-adv-x="939" 
d="M1 -2v308h150v150h458v-150h150v-308h-158v300h-142v-300h-158v300h-142v-300h-158z" />
    <glyph glyph-name="n" unicode="n" horiz-adv-x="789" 
d="M1 -2v308h150v150h308v-150h150v-308h-158v300h-292v-300h-158z" />
    <glyph glyph-name="o" unicode="o" horiz-adv-x="774" 
d="M159 156h292v142h-292v-142zM151 -2v150h-150v158h150v150h308v-150h150v-158h-150v-150h-308z" />
    <glyph glyph-name="p" unicode="p" horiz-adv-x="769" 
d="M159 156h292v142h-292v-142zM1 -302v758h458v-150h150v-158h-150v-150h-300v-300h-158z" />
    <glyph glyph-name="q" unicode="q" horiz-adv-x="791" 
d="M159 156h292v142h-292v-142zM451 -302v300h-300v150h-150v158h150v150h458v-758h-158z" />
    <glyph glyph-name="r" unicode="r" horiz-adv-x="734" 
d="M1 -2v308h150v150h458v-158h-450v-300h-158z" />
    <glyph glyph-name="s" unicode="s" horiz-adv-x="764" 
d="M1 -302v158h450v142h-300v150h-150v158h150v150h458v-158h-450v-142h300v-150h150v-158h-150v-150h-458z" />
    <glyph glyph-name="t" unicode="t" horiz-adv-x="733" 
d="M1 -2v758h158v-300h450v-158h-450v-300h-158z" />
    <glyph glyph-name="u" unicode="u" horiz-adv-x="789" 
d="M151 -2v150h-150v308h158v-300h292v300h158v-308h-150v-150h-308z" />
    <glyph glyph-name="v" unicode="v" horiz-adv-x="913" 
d="M301 -2v150h-150v150h-150v158h158v-150h150v-150h142v150h150v150h158v-158h-150v-150h-150v-150h-158z" />
    <glyph glyph-name="w" unicode="w" horiz-adv-x="939" 
d="M151 -2v150h-150v308h158v-300h142v300h158v-300h142v300h158v-308h-150v-150h-458z" />
    <glyph glyph-name="x" unicode="x" horiz-adv-x="789" 
d="M1 -2v158h150v142h-150v158h158v-150h292v150h158v-158h-150v-142h150v-158h-158v150h-292v-150h-158z" />
    <glyph glyph-name="y" unicode="y" horiz-adv-x="790" 
d="M1 -302v158h450v142h-300v150h-150v308h158v-300h292v300h158v-608h-150v-150h-458z" />
    <glyph glyph-name="z" unicode="z" horiz-adv-x="771" 
d="M1 -152v158h150v150h150v142h-300v158h608v-158h-150v-150h-150v-142h300v-158h-608z" />
    <glyph glyph-name="braceleft" unicode="{" horiz-adv-x="1371" 
d="M759 156h142v142h-142v-142zM309 156h142v142h-142v-142zM759 -294h142v142h-142v-142zM459 -2v-142h292v142h-292zM309 -152v-142h142v142h-142zM1 -452v158h150v150h150v142h-300v308h150v150h150v150h150v150h308v-150h150v-150h150v-150h150v-308h-300v-142h150v-150
h150v-158h-158v150h-142v-150h-158v150h-292v-150h-158v150h-142v-150h-158z" />
    <glyph glyph-name="bar" unicode="|" horiz-adv-x="340" 
d="M1 -2v758h158v-758h-158z" />
    <glyph glyph-name="braceright" unicode="}" horiz-adv-x="1363" 
d="M759 306h142v142h-142v-142zM309 306h142v142h-142v-142zM459 6h292v142h-292v-142zM151 -152v158h150v142h-300v308h150v150h150v150h608v-150h150v-150h150v-308h-300v-142h150v-158h-158v150h-142v-150h-308v150h-142v-150h-158z" />
    <glyph glyph-name="asciitilde" unicode="~" horiz-adv-x="1206" 
d="M759 448v-142h142v142h-142zM309 306h142v142h-142v-142zM1 -302v158h150v150h150v142h-150v308h150v150h150v150h308v-150h150v-150h150v-308h-150v-142h150v-150h150v-158h-158v150h-150v150h-150v150h-292v-150h-150v-150h-150v-150h-158z" />
    <glyph glyph-name="glyph98" horiz-adv-x="394" 
 />
    <glyph glyph-name="glyph99" horiz-adv-x="394" 
 />
    <glyph glyph-name="glyph98" horiz-adv-x="394" 
 />
    <glyph glyph-name="glyph99" horiz-adv-x="394" 
 />
    </font>
</defs>
</svg>
