<?xml version="1.0" encoding="iso-8859-1"?>
<!-- Generator: Adobe Illustrator 19.0.0, SVG Export Plug-In . SVG Version: 6.00 Build 0)  -->
<svg version="1.1" id="Layer_1" xmlns="http://www.w3.org/2000/svg" xmlns:xlink="http://www.w3.org/1999/xlink" x="0px" y="0px"
	 viewBox="0 0 512 512" style="enable-background:new 0 0 512 512;" xml:space="preserve">
<rect x="89.445" y="345.302" style="fill:#F4DA49;" width="210.98" height="166.698"/>
<path style="fill:#E69824;" d="M64.554,347.68c-32.51-32.311-52.17-81.922-52.17-131.297C12.382,96.878,109.261,0,228.765,0
	c108.486,0,198.708,79.779,213.97,183.96c5.029,34.331,38,46.697,53.939,75.863c8.698,15.916-2.937,35.339-21.075,35.339h-31.157
	v109.653c0,26.457-21.448,47.905-47.904,47.905H283.85c-15.677,0-30.362-7.67-39.318-20.537l-21.399-30.744
	c-8.887-12.768-23.416-20.424-38.973-20.536C145.83,380.627,90.971,373.937,64.554,347.68z"/>
<g>
	<rect x="89.445" y="426.508" style="fill:#444444;" width="64.833" height="35.721"/>
	<rect x="376.784" y="351.256" style="fill:#444444;" width="67.659" height="35.721"/>
</g>
<circle style="fill:#F4DA49;" cx="187.749" cy="184.856" r="85.574"/>
<g>
	<path style="fill:#444444;" d="M102.179,184.856c0,47.261,38.313,85.574,85.574,85.574v-85.574H102.179z"/>
	<path style="fill:#444444;" d="M187.753,99.282v85.574h85.574C273.327,137.595,235.014,99.282,187.753,99.282z"/>
</g>
<g>
</g>
<g>
</g>
<g>
</g>
<g>
</g>
<g>
</g>
<g>
</g>
<g>
</g>
<g>
</g>
<g>
</g>
<g>
</g>
<g>
</g>
<g>
</g>
<g>
</g>
<g>
</g>
<g>
</g>
</svg>
