<?xml version="1.0" standalone="no"?>
<!DOCTYPE svg PUBLIC "-//W3C//DTD SVG 1.1//EN" "http://www.w3.org/Graphics/SVG/1.1/DTD/svg11.dtd" >
<svg xmlns="http://www.w3.org/2000/svg" xmlns:xlink="http://www.w3.org/1999/xlink" version="1.1">
<metadata>
Created by FontForge 20170731 at Wed May  9 08:08:27 2012
 By Aleksey,,,
(c) 1999-2009 Ray Larabie. See attached license agreement for more information. If EULA is missing, visit www.larabiefonts.com for an updated version of this font.
</metadata>
<defs>
<font id="OrangeKid-Regular" horiz-adv-x="456" >
  <font-face 
    font-family="Orange Kid"
    font-weight="400"
    font-stretch="normal"
    units-per-em="1000"
    panose-1="4 1 4 0 0 0 0 0 0 0"
    ascent="778"
    descent="-222"
    x-height="451"
    cap-height="599"
    bbox="-147 -222 811 970"
    underline-thickness="20"
    underline-position="-163"
    unicode-range="U+0017-FB02"
  />
<missing-glyph horiz-adv-x="420" 
d="M106 -100q-86 0 -86 76v647q0 76 86 76h206q88 0 88 -76v-647q0 -76 -88 -76h-206zM211 148v148h74v74h74v155h-74v74h-154v-74h-74v-155h80v148h141v-141h-74v-74h-73v-155h80zM211 0v81h-80v-81h80z" />
    <glyph glyph-name="copyright" unicode="&#x28;C&#x29;" horiz-adv-x="604" 
d="M114 0v74h-74v451h74v74h376v-74h74v-451h-74v-74h-376zM483 518h-363v-437h363v437zM261 148v74h-74v155h74v74h155v-81h-148v-141h148v-81h-155z" />
    <glyph glyph-name="registered" unicode="&#x28;R&#x29;" horiz-adv-x="604" 
d="M114 0v74h-74v451h74v74h376v-74h74v-451h-74v-74h-376zM483 518h-363v-437h363v437zM335 148v74h-67v-74h-81v303h229v-155h-74v-67h74v-81h-81z" />
    <glyph glyph-name="uni2117" unicode="&#x28;P&#x29;" horiz-adv-x="604" 
d="M114 0v74h-74v451h74v74h376v-74h74v-451h-74v-74h-376zM483 518h-363v-437h363v437zM342 296v-74h-74v-74h-81v303h155v-74h74v-81h-74zM335 370h-67v-67h67v67z" />
    <glyph glyph-name=".notdef" horiz-adv-x="420" 
d="M106 -100q-86 0 -86 76v647q0 76 86 76h206q88 0 88 -76v-647q0 -76 -88 -76h-206zM211 148v148h74v74h74v155h-74v74h-154v-74h-74v-155h80v148h141v-141h-74v-74h-73v-155h80zM211 0v81h-80v-81h80z" />
    <glyph glyph-name=".null" horiz-adv-x="0" 
 />
    <glyph glyph-name="nonmarkingreturn" horiz-adv-x="184" 
 />
    <glyph glyph-name="uni0017" horiz-adv-x="184" 
 />
    <glyph glyph-name="space" unicode=" " horiz-adv-x="184" 
 />
    <glyph glyph-name="exclam" unicode="!" horiz-adv-x="186" 
d="M55 148v451h81v-451h-81zM55 0v81h81v-81h-81z" />
    <glyph glyph-name="quotedbl" unicode="&#x22;" horiz-adv-x="284" 
d="M31 444v229h81v-229h-81zM173 444v229h81v-229h-81z" />
    <glyph glyph-name="numbersign" unicode="#" 
d="M261 138v84h-67v-74h-80v74h-74v81h74v67h-74v81h74v74h80v-74h67v74h81v-74h74v-81h-74v-67h74v-81h-74v-84h-81zM261 370h-67v-67h67v67z" />
    <glyph glyph-name="dollar" unicode="$" 
d="M187 -148v148h-73v74h-74v155h80v-148h67v215h-73v74h-74v81h74v74h73v74h81v-74h74v-74h74v-81h-81v74h-67v-141h74v-74h74v-155h-74v-74h-74v-148h-81zM335 222h-67v-141h67v141zM187 444h-67v-67h67v67z" />
    <glyph glyph-name="percent" unicode="%" horiz-adv-x="752" 
d="M483 0v74h-74v148h-67v-148h-74v-74h-81v81h74v141h-147v74h-74v155h74v74h162v-74h66v-148h67v148h74v74h76v-81h-69v-141h148v-74h74v-155h-74v-74h-155zM261 444h-141v-141h141v141zM631 222h-141v-141h141v141zM483 296h-67v-67h67v67zM335 296h-67v-67h67v67z" />
    <glyph glyph-name="ampersand" unicode="&#x26;" horiz-adv-x="530" 
d="M409 0v148h-67v-74h-74v-74h-154v74h-74v229h74v67h-74v155h74v74h154v-74h74v-155h-74v-67h74v-74h67v148h81v-155h-74v-67h74v-155h-81zM335 222h-74v74h-141v-215h141v74h74v67zM261 518h-141v-141h141v141z" />
    <glyph glyph-name="quotesingle" unicode="'" horiz-adv-x="142" 
d="M31 444v229h81v-229h-81z" />
    <glyph glyph-name="parenleft" unicode="(" horiz-adv-x="326" 
d="M206 -148v74h-74v148h-74v451h74v148h74v73h80v-80h-74v-148h-74v-437h74v-148h74v-81h-80z" />
    <glyph glyph-name="parenright" unicode=")" horiz-adv-x="341" 
d="M40 -148v81h74v148h73v437h-73v148h-74v80h80v-73h74v-148h74v-451h-74v-148h-74v-74h-80z" />
    <glyph glyph-name="asterisk" unicode="*" horiz-adv-x="308" 
d="M187 148v74h-67v-74h-80v81h74v67h-74v81h80v-74h67v74h81v-81h-74v-67h74v-81h-81z" />
    <glyph glyph-name="plus" unicode="+" 
d="M187 74v148h-147v81h147v148h81v-148h148v-81h-148v-148h-81z" />
    <glyph glyph-name="comma" unicode="," horiz-adv-x="234" 
d="M40 -148v81h74v148h80v-155h-74v-74h-80z" />
    <glyph glyph-name="hyphen" unicode="-" horiz-adv-x="279" 
d="M25 222v81h229v-81h-229z" />
    <glyph glyph-name="period" unicode="." horiz-adv-x="160" 
d="M40 0v81h80v-81h-80z" />
    <glyph glyph-name="slash" unicode="/" horiz-adv-x="382" 
d="M40 0v155h74v148h73v148h74v148h81v-155h-74v-148h-74v-148h-74v-148h-80z" />
    <glyph glyph-name="zero" unicode="0" horiz-adv-x="382" 
d="M114 0v74h-74v451h74v74h154v-74h74v-451h-74v-74h-154zM261 518h-141v-437h141v437z" />
    <glyph glyph-name="one" unicode="1" horiz-adv-x="234" 
d="M114 0v444h-74v81h74v74h80v-599h-80z" />
    <glyph glyph-name="two" unicode="2" horiz-adv-x="382" 
d="M40 0v155h74v148h73v74h74v141h-141v-74h-80v81h74v74h154v-74h74v-155h-74v-74h-74v-148h-74v-67h222v-81h-302z" />
    <glyph glyph-name="three" unicode="3" horiz-adv-x="382" 
d="M114 0v74h-74v81h80v-74h141v215h-147v81h147v141h-141v-74h-80v81h74v74h154v-74h74v-155h-74v-67h74v-229h-74v-74h-154z" />
    <glyph glyph-name="four" unicode="4" horiz-adv-x="434" 
d="M252 0v148h-221v155h74v148h73v74h74v74h81v-370h74v-81h-74v-148h-81zM252 444h-67v-148h-74v-67h141v215z" />
    <glyph glyph-name="five" unicode="5" horiz-adv-x="382" 
d="M114 0v74h-74v155h80v-148h141v289h-221v229h302v-81h-222v-67h148v-74h74v-303h-74v-74h-154z" />
    <glyph glyph-name="six" unicode="6" horiz-adv-x="382" 
d="M268 74v-74h-154v74h-74v451h74v74h154v-81h-148v-67h148v-74h74v-303h-74zM261 370h-141v-289h141v289z" />
    <glyph glyph-name="seven" unicode="7" horiz-adv-x="382" 
d="M114 0v229h73v222h74v67h-221v81h302v-155h-74v-222h-74v-222h-80z" />
    <glyph glyph-name="eight" unicode="8" horiz-adv-x="382" 
d="M114 0v74h-74v229h74v67h-74v155h74v74h154v-74h74v-155h-74v-67h74v-229h-74v-74h-154zM261 296h-141v-215h141v215zM261 518h-141v-141h141v141z" />
    <glyph glyph-name="nine" unicode="9" horiz-adv-x="382" 
d="M114 0v74h-74v81h75v-74h146v141h-147v74h-74v229h74v74h154v-74h74v-451h-74v-74h-154zM261 518h-141v-215h141v215z" />
    <glyph glyph-name="colon" unicode=":" horiz-adv-x="160" 
d="M40 296v81h80v-81h-80zM40 0v81h80v-81h-80z" />
    <glyph glyph-name="semicolon" unicode=";" horiz-adv-x="234" 
d="M40 -148v81h74v148h80v-155h-74v-74h-80zM114 296v81h80v-81h-80z" />
    <glyph glyph-name="less" unicode="&#x3c;" horiz-adv-x="308" 
d="M187 74v74h-73v74h-74v81h74v74h73v74h81v-81h-74v-74h-74v-67h74v-74h74v-81h-81z" />
    <glyph glyph-name="equal" unicode="=" 
d="M40 296v81h376v-81h-376zM40 148v81h376v-81h-376z" />
    <glyph glyph-name="greater" unicode="&#x3e;" horiz-adv-x="308" 
d="M40 74v81h74v74h73v67h-73v74h-74v81h80v-74h74v-74h74v-81h-74v-74h-74v-74h-80z" />
    <glyph glyph-name="question" unicode="?" horiz-adv-x="382" 
d="M114 148v155h73v74h74v141h-141v-148h-80v155h74v74h154v-74h74v-155h-74v-74h-74v-148h-80zM114 0v81h80v-81h-80z" />
    <glyph glyph-name="at" unicode="@" horiz-adv-x="604" 
d="M187 0v74h-73v74h-74v377h74v74h376v-74h74v-303h-74v-74h-229v74h-74v155h74v74h81v-74h74v-148h67v289h-363v-363h74v-74h296v-81h-303zM335 370h-67v-141h67v141z" />
    <glyph glyph-name="A" unicode="A" horiz-adv-x="530" 
d="M409 0v222h-289v-222h-80v229h74v222h73v148h155v-148h74v-222h74v-229h-81zM335 444h-141v-141h141v141z" />
    <glyph glyph-name="B" unicode="B" 
d="M40 0v599h302v-74h74v-155h-74v-67h74v-229h-74v-74h-302zM335 518h-215v-141h215v141zM335 296h-215v-215h215v215z" />
    <glyph glyph-name="C" unicode="C" 
d="M114 0v74h-74v451h74v74h228v-74h74v-81h-81v74h-215v-437h215v74h81v-81h-74v-74h-228z" />
    <glyph glyph-name="D" unicode="D" 
d="M342 148v-74h-74v-74h-228v599h228v-74h74v-74h74v-303h-74zM335 444h-74v74h-141v-437h141v74h74v289z" />
    <glyph glyph-name="E" unicode="E" horiz-adv-x="377" 
d="M40 0v599h302v-81h-222v-141h222v-81h-222v-215h222v-81h-302z" />
    <glyph glyph-name="F" unicode="F" horiz-adv-x="360" 
d="M40 0v599h302v-81h-222v-141h148v-81h-148v-296h-80z" />
    <glyph glyph-name="G" unicode="G" 
d="M335 0v74h-67v-74h-154v74h-74v451h74v74h228v-74h74v-81h-81v74h-215v-437h141v74h74v141h-148v81h229v-377h-81z" />
    <glyph glyph-name="H" unicode="H" 
d="M335 0v296h-215v-296h-80v599h80v-222h215v222h81v-599h-81z" />
    <glyph glyph-name="I" unicode="I" horiz-adv-x="160" 
d="M40 0v599h80v-599h-80z" />
    <glyph glyph-name="J" unicode="J" horiz-adv-x="368" 
d="M100 0v74h-74v155h81v-148h141v518h81v-525h-74v-74h-155z" />
    <glyph glyph-name="K" unicode="K" horiz-adv-x="438" 
d="M335 0v74h-74v148h-74v148h-67v-370h-80v599h80v-148h67v74h74v74h81v-81h-74v-74h-74v-67h74v-148h74v-148h74v-81h-81z" />
    <glyph glyph-name="L" unicode="L" horiz-adv-x="355" 
d="M40 0v599h80v-518h222v-81h-302z" />
    <glyph glyph-name="M" unicode="M" horiz-adv-x="604" 
d="M483 0v296h-72v-148h-69v-148h-81v148h-74v148h-67v-296h-80v599h80v-148h74v-148h74v-148h67v148h74v148h74v148h81v-599h-81z" />
    <glyph glyph-name="N" unicode="N" 
d="M335 0v74h-74v148h-74v148h-67v-370h-80v599h80v-74h74v-148h74v-148h67v370h81v-599h-81z" />
    <glyph glyph-name="O" unicode="O" 
d="M114 0v74h-74v451h74v74h228v-74h74v-451h-74v-74h-228zM335 518h-215v-437h215v437z" />
    <glyph glyph-name="P" unicode="P" 
d="M40 0v599h302v-74h74v-155h-74v-74h-222v-296h-80zM335 518h-215v-141h215v141z" />
    <glyph glyph-name="Q" unicode="Q" 
d="M335 0v74h-67v-74h-154v74h-74v451h74v74h228v-74h74v-377h-74v-67h74v-81h-81zM335 518h-215v-437h141v67h-74v81h81v-74h67v363z" />
    <glyph glyph-name="R" unicode="R" 
d="M335 0v148h-74v148h-141v-296h-80v599h302v-74h74v-155h-74v-215h74v-155h-81zM335 518h-215v-141h215v141z" />
    <glyph glyph-name="S" unicode="S" 
d="M114 0v74h-74v155h80v-148h215v215h-221v74h-74v155h74v74h228v-74h74v-81h-81v74h-215v-141h222v-74h74v-229h-74v-74h-228z" />
    <glyph glyph-name="T" unicode="T" horiz-adv-x="409" 
d="M164 0v518h-148v81h377v-81h-148v-518h-81z" />
    <glyph glyph-name="U" unicode="U" 
d="M114 0v74h-74v525h80v-518h215v518h81v-525h-74v-74h-228z" />
    <glyph glyph-name="V" unicode="V" horiz-adv-x="530" 
d="M187 0v148h-73v222h-74v229h80v-222h74v-222h141v222h74v222h81v-229h-74v-222h-74v-148h-155z" />
    <glyph glyph-name="W" unicode="W" horiz-adv-x="604" 
d="M335 0v148h-67v-148h-81v148h-73v222h-74v229h80v-222h74v-222h67v444h81v-444h67v222h74v222h81v-229h-74v-222h-74v-148h-81z" />
    <glyph glyph-name="X" unicode="X" 
d="M335 0v148h-74v148h-67v-148h-74v-148h-80v155h74v148h73v67h-73v148h-74v81h80v-74h74v-148h67v148h74v74h81v-81h-74v-148h-74v-67h74v-148h74v-155h-81z" />
    <glyph glyph-name="Y" unicode="Y" 
d="M187 0v370h-73v148h-74v81h80v-74h74v-148h67v148h74v74h81v-81h-74v-148h-74v-370h-81z" />
    <glyph glyph-name="Z" unicode="Z" horiz-adv-x="382" 
d="M40 0v155h74v148h73v148h74v67h-221v81h302v-155h-74v-148h-74v-148h-74v-67h222v-81h-302z" />
    <glyph glyph-name="bracketleft" unicode="[" horiz-adv-x="234" 
d="M40 0v599h154v-81h-74v-437h74v-81h-154z" />
    <glyph glyph-name="backslash" unicode="\" horiz-adv-x="382" 
d="M261 0v148h-74v148h-73v148h-74v155h80v-148h74v-148h74v-148h74v-155h-81z" />
    <glyph glyph-name="bracketright" unicode="]" horiz-adv-x="234" 
d="M40 0v81h74v437h-74v81h154v-599h-154z" />
    <glyph glyph-name="asciicircum" unicode="^" 
d="M335 296v74h-74v74h-67v-74h-74v-74h-80v81h74v74h73v74h81v-74h74v-74h74v-81h-81z" />
    <glyph glyph-name="underscore" unicode="_" 
d="M40 -74v81h376v-81h-376z" />
    <glyph glyph-name="grave" unicode="`" horiz-adv-x="234" 
d="M144 520v74h-74v80h80v-74h74v-80h-80z" />
    <glyph glyph-name="a" unicode="a" horiz-adv-x="442" 
d="M329 0v74h-68v-74h-154v74h-74v155h74v74h148v67h-148v81h154v-74h74v-296h74v-81h-80zM255 222h-141v-141h141v141z" />
    <glyph glyph-name="b" unicode="b" horiz-adv-x="378" 
d="M268 74v-74h-228v599h80v-148h148v-74h74v-303h-74zM261 370h-141v-289h141v289z" />
    <glyph glyph-name="c" unicode="c" horiz-adv-x="375" 
d="M114 0v74h-74v303h74v74h154v-74h74v-81h-81v74h-141v-289h141v74h81v-81h-74v-74h-154z" />
    <glyph glyph-name="d" unicode="d" horiz-adv-x="378" 
d="M109 0v74h-74v303h74v74h148v148h81v-599h-229zM257 370h-141v-289h141v289z" />
    <glyph glyph-name="e" unicode="e" horiz-adv-x="382" 
d="M114 0v74h-74v303h74v74h154v-74h74v-155h-222v-141h141v74h81v-81h-74v-74h-154zM261 370h-141v-67h141v67z" />
    <glyph glyph-name="f" unicode="f" horiz-adv-x="295" 
d="M114 0v370h-74v81h74v74h73v74h81v-81h-74v-67h74v-81h-74v-370h-80z" />
    <glyph glyph-name="g" unicode="g" horiz-adv-x="378" 
d="M109 -222v74h-74v81h81v-74h141v141h-148v74h-74v303h74v74h229v-599h-74v-74h-155zM257 370h-141v-289h141v289z" />
    <glyph glyph-name="h" unicode="h" horiz-adv-x="380" 
d="M261 0v370h-141v-370h-80v599h80v-148h148v-74h74v-377h-81z" />
    <glyph glyph-name="i" unicode="i" horiz-adv-x="170" 
d="M46 0v451h81v-451h-81zM46 518v81h81v-81h-81z" />
    <glyph glyph-name="j" unicode="j" horiz-adv-x="206" 
d="M12 -222v81h74v592h81v-599h-74v-74h-81zM86 518v81h81v-81h-81z" />
    <glyph glyph-name="k" unicode="k" horiz-adv-x="375" 
d="M261 0v74h-74v74h-67v-156h-80v607h80v-296h67v74h74v74h81v-81h-74v-74h-74v-141h74v-74h74v-81h-81z" />
    <glyph glyph-name="l" unicode="l" horiz-adv-x="160" 
d="M40 0v599h80v-599h-80z" />
    <glyph glyph-name="m" unicode="m" horiz-adv-x="602" 
d="M483 0v370h-141v-370h-81v370h-141v-370h-80v451h228v-74h67v74h155v-74h74v-377h-81z" />
    <glyph glyph-name="n" unicode="n" horiz-adv-x="380" 
d="M261 0v370h-141v-370h-80v451h228v-74h74v-377h-81z" />
    <glyph glyph-name="o" unicode="o" horiz-adv-x="373" 
d="M109 0v74h-74v303h74v74h155v-74h74v-303h-74v-74h-155zM257 370h-141v-289h141v289z" />
    <glyph glyph-name="p" unicode="p" horiz-adv-x="375" 
d="M40 -222v673h228v-74h74v-303h-74v-74h-148v-222h-80zM261 370h-141v-289h141v289z" />
    <glyph glyph-name="q" unicode="q" horiz-adv-x="375" 
d="M255 -222v222h-148v74h-74v303h74v74h228v-673h-80zM255 370h-141v-289h141v289z" />
    <glyph glyph-name="r" unicode="r" horiz-adv-x="292" 
d="M40 0v451h80v-74h67v74h81v-81h-74v-74h-74v-296h-80z" />
    <glyph glyph-name="s" unicode="s" horiz-adv-x="372" 
d="M37 0v81h222v141h-148v74h-74v81h74v74h155v-81h-148v-67h148v-74h74v-155h-74v-74h-229z" />
    <glyph glyph-name="t" unicode="t" horiz-adv-x="284" 
d="M171 0v74h-74v296h-74v81h74v148h81v-148h74v-81h-74v-289h74v-81h-81z" />
    <glyph glyph-name="u" unicode="u" horiz-adv-x="378" 
d="M109 0v74h-74v377h81v-370h141v370h81v-451h-229z" />
    <glyph glyph-name="v" unicode="v" horiz-adv-x="430" 
d="M171 0v148h-74v148h-74v155h81v-148h74v-148h67v148h74v148h81v-155h-74v-148h-74v-148h-81z" />
    <glyph glyph-name="w" unicode="w" horiz-adv-x="576" 
d="M319 0v148h-67v-148h-81v148h-74v148h-74v155h81v-148h74v-148h67v148h81v-148h67v148h74v148h81v-155h-74v-148h-74v-148h-81z" />
    <glyph glyph-name="x" unicode="x" horiz-adv-x="382" 
d="M261 0v222h-141v-222h-80v229h74v67h-74v155h80v-148h141v148h81v-155h-74v-67h74v-229h-81z" />
    <glyph glyph-name="y" unicode="y" horiz-adv-x="378" 
d="M109 -222v74h-74v81h81v-74h141v141h-148v74h-74v377h81v-370h141v370h81v-599h-74v-74h-155z" />
    <glyph glyph-name="z" unicode="z" horiz-adv-x="366" 
d="M30 0v155h74v74h74v74h74v67h-222v81h303v-155h-74v-74h-74v-74h-74v-67h222v-81h-303z" />
    <glyph glyph-name="braceleft" unicode="{" horiz-adv-x="308" 
d="M187 -74v74h-73v222h-74v81h74v222h73v74h81v-81h-74v-222h-74v-67h74v-222h74v-81h-81z" />
    <glyph glyph-name="bar" unicode="|" horiz-adv-x="230" 
d="M80 -222v895h81v-895h-81z" />
    <glyph glyph-name="braceright" unicode="}" horiz-adv-x="308" 
d="M40 -74v81h74v222h73v67h-73v222h-74v81h80v-74h74v-222h74v-81h-74v-222h-74v-74h-80z" />
    <glyph glyph-name="asciitilde" unicode="~" 
d="M187 222v74h-67v-74h-80v81h74v74h154v-74h67v74h81v-81h-74v-74h-155z" />
    <glyph glyph-name="nonbreakingspace" unicode="&#xa0;" horiz-adv-x="184" 
 />
    <glyph glyph-name="exclamdown" unicode="&#xa1;" horiz-adv-x="171" 
d="M46 -148v451h81v-451h-81zM46 370v81h81v-81h-81z" />
    <glyph glyph-name="cent" unicode="&#xa2;" 
d="M187 0v74h-73v74h-74v304h74v73h73v74h81v-74h74v-73h74v-81h-81v74h-67v-290h67v74h81v-81h-74v-74h-74v-74h-81zM187 445h-67v-290h67v290z" />
    <glyph glyph-name="sterling" unicode="&#xa3;" horiz-adv-x="382" 
d="M187 0v74h-67v-74h-80v81h74v215h-74v81h74v148h73v74h155v-81h-148v-141h74v-81h-74v-215h148v-81h-155z" />
    <glyph glyph-name="currency" unicode="&#xa4;" horiz-adv-x="604" 
d="M483 0v74h-363v-74h-80v81h74v363h-74v81h80v-74h363v74h81v-81h-74v-363h74v-81h-81zM409 370h-215v-215h215v215z" />
    <glyph glyph-name="yen" unicode="&#xa5;" 
d="M268 74v-74h-81v74h-147v81h147v67h-147v81h147v67h-73v148h-74v81h80v-74h74v-148h67v148h74v74h81v-81h-74v-148h-74v-67h148v-81h-148v-67h148v-81h-148z" />
    <glyph glyph-name="brokenbar" unicode="&#xa6;" horiz-adv-x="230" 
d="M80 296v377h81v-377h-81zM80 -222v377h81v-377h-81z" />
    <glyph glyph-name="section" unicode="&#xa7;" horiz-adv-x="382" 
d="M114 -148v81h147v141h-147v74h-74v155h74v67h-74v155h74v74h154v-81h-148v-141h148v-74h74v-155h-74v-67h74v-155h-74v-74h-154zM261 296h-141v-141h141v141z" />
    <glyph glyph-name="dieresis" unicode="&#xa8;" horiz-adv-x="308" 
d="M40 520v80h80v-80h-80zM187 520v80h81v-80h-81z" />
    <glyph glyph-name="ordfeminine" unicode="&#xaa;" 
d="M335 148v74h-67v-74h-154v74h-74v81h74v74h147v67h-147v81h154v-74h74v-222h74v-81h-81zM261 296h-141v-67h141v67z" />
    <glyph glyph-name="guillemotleft" unicode="&#xab;" horiz-adv-x="558" 
d="M173 74v74h-74v74h-74v81h74v74h74v74h81v-81h-74v-74h-74v-67h74v-74h74v-81h-81zM452 74v74h-74v74h-74v81h74v74h74v74h81v-81h-74v-74h-74v-67h74v-74h74v-81h-81z" />
    <glyph glyph-name="logicalnot" unicode="&#xac;" 
d="M335 74v148h-295v81h376v-229h-81z" />
    <glyph glyph-name="macron" unicode="&#xaf;" horiz-adv-x="382" 
d="M40 520v80h302v-80h-302z" />
    <glyph glyph-name="degree" unicode="&#xb0;" horiz-adv-x="382" 
d="M114 370v74h-74v155h74v74h154v-74h74v-155h-74v-74h-154zM261 592h-141v-141h141v141z" />
    <glyph glyph-name="plusminus" unicode="&#xb1;" 
d="M187 74v148h-147v81h147v148h81v-148h148v-81h-148v-148h-81zM40 -74v81h376v-81h-376z" />
    <glyph glyph-name="twosuperior" unicode="&#xb2;" horiz-adv-x="322" 
d="M40 269v124h59v59h59v59h59v54h-113v-59h-64v65h59v59h123v-59h60v-65h-60v-59h-59v-60h-59v-53h178v-65h-242z" />
    <glyph glyph-name="threesuperior" unicode="&#xb3;" horiz-adv-x="322" 
d="M99 269v59h-59v65h64v-59h113v86h-66v65h66v81h-113v-59h-64v64h59v60h123v-60h60v-92h-60v-53h60v-98h-60v-59h-123z" />
    <glyph glyph-name="acute" unicode="&#xb4;" horiz-adv-x="234" 
d="M10 520v80h74v74h80v-80h-74v-74h-80z" />
    <glyph glyph-name="paragraph" unicode="&#xb6;" 
d="M335 -74v592h-67v-592h-81v444h-73v74h-74v81h74v74h302v-673h-81z" />
    <glyph glyph-name="periodcentered" unicode="&#xb7;" horiz-adv-x="160" 
d="M40 222v81h80v-81h-80z" />
    <glyph glyph-name="cedilla" unicode="&#xb8;" horiz-adv-x="234" 
d="M40 -222v81h74v74h80v-81h-74v-74h-80z" />
    <glyph glyph-name="onesuperior" unicode="&#xb9;" horiz-adv-x="203" 
d="M99 269v237h-59v65h59v59h64v-361h-64z" />
    <glyph glyph-name="ordmasculine" unicode="&#xba;" horiz-adv-x="382" 
d="M114 148v74h-74v229h74v74h154v-74h74v-229h-74v-74h-154zM261 444h-141v-215h141v215z" />
    <glyph glyph-name="guillemotright" unicode="&#xbb;" horiz-adv-x="558" 
d="M25 74v81h74v74h74v67h-74v74h-74v81h81v-74h74v-74h74v-81h-74v-74h-74v-74h-81zM304 74v81h74v74h74v67h-74v74h-74v81h81v-74h74v-74h74v-81h-74v-74h-74v-74h-81z" />
    <glyph glyph-name="onequarter" unicode="&#xbc;" horiz-adv-x="782" 
d="M99 269v237h-59v65h59v59h64v-361h-64zM176 0v155h74v148h74v148h73v148h81v-155h-74v-148h-74v-148h-74v-148h-80zM618 -36v110h-177v65h59v67h59v60h59v59h65v-186h59v-65h-59v-110h-65zM618 201h-54v-62h54v62z" />
    <glyph glyph-name="onehalf" unicode="&#xbd;" horiz-adv-x="723" 
d="M99 269v237h-59v65h59v59h64v-361h-64zM176 0v155h74v148h74v148h73v148h81v-155h-74v-148h-74v-148h-74v-148h-80zM441 -36v124h59v59h59v59h59v54h-113v-59h-64v65h59v59h123v-59h60v-65h-60v-59h-59v-60h-59v-53h178v-65h-242z" />
    <glyph glyph-name="threequarters" unicode="&#xbe;" horiz-adv-x="851" 
d="M99 269v59h-59v65h64v-59h113v86h-66v65h66v81h-113v-59h-64v64h59v60h123v-60h60v-92h-60v-53h60v-98h-60v-59h-123zM245 0v155h74v148h74v148h73v148h81v-155h-74v-148h-74v-148h-74v-148h-80zM687 -36v110h-177v65h59v67h59v60h59v59h65v-186h59v-65h-59v-110h-65z
M687 201h-54v-62h54v62z" />
    <glyph glyph-name="questiondown" unicode="&#xbf;" horiz-adv-x="382" 
d="M114 -148v74h-74v155h74v74h73v148h81v-155h-74v-74h-74v-141h141v148h81v-155h-74v-74h-154zM187 370v81h81v-81h-81z" />
    <glyph glyph-name="Agrave" unicode="&#xc0;" horiz-adv-x="530" 
d="M409 0v222h-289v-222h-80v229h74v222h73v148h155v-148h74v-222h74v-229h-81zM335 444h-141v-141h141v141zM262 668v74h-74v80h80v-74h74v-80h-80z" />
    <glyph glyph-name="Aacute" unicode="&#xc1;" horiz-adv-x="530" 
d="M409 0v222h-289v-222h-80v229h74v222h73v148h155v-148h74v-222h74v-229h-81zM335 444h-141v-141h141v141zM188 668v80h74v74h80v-80h-74v-74h-80z" />
    <glyph glyph-name="Acircumflex" unicode="&#xc2;" horiz-adv-x="530" 
d="M409 0v222h-289v-222h-80v229h74v222h73v148h155v-148h74v-222h74v-229h-81zM335 444h-141v-141h141v141zM298 668v74h-67v-74h-80v80h74v74h80v-74h74v-80h-81z" />
    <glyph glyph-name="Atilde" unicode="&#xc3;" horiz-adv-x="530" 
d="M409 0v222h-289v-222h-80v229h74v222h73v148h155v-148h74v-222h74v-229h-81zM335 444h-141v-141h141v141zM261 668v74h-67v-74h-80v80h74v74h80v-74h67v74h81v-80h-74v-74h-81z" />
    <glyph glyph-name="Adieresis" unicode="&#xc4;" horiz-adv-x="530" 
d="M409 0v222h-289v-222h-80v229h74v222h73v148h155v-148h74v-222h74v-229h-81zM335 444h-141v-141h141v141zM151 668v80h80v-80h-80zM298 668v80h81v-80h-81z" />
    <glyph glyph-name="Aring" unicode="&#xc5;" horiz-adv-x="530" 
d="M409 0v222h-289v-222h-80v229h74v222h73v148h155v-148h74v-222h74v-229h-81zM335 444h-141v-141h141v141zM225 668v74h-74v80h74v74h80v-74h74v-80h-74v-74h-80zM298 816h-67v-68h67v68z" />
    <glyph glyph-name="AE" unicode="&#xc6;" horiz-adv-x="654" 
d="M319 0v222h-141v-74h-74v-148h-81v155h74v148h74v148h74v148h377v-81h-222v-141h222v-81h-222v-215h222v-81h-303zM319 444h-67v-141h67v141z" />
    <glyph glyph-name="Ccedilla" unicode="&#xc7;" 
d="M114 0v74h-74v451h74v74h228v-74h74v-81h-81v74h-215v-437h215v74h81v-81h-74v-74h-228zM121 -222v81h74v74h80v-81h-74v-74h-80z" />
    <glyph glyph-name="Egrave" unicode="&#xc8;" horiz-adv-x="377" 
d="M40 0v599h302v-81h-222v-141h222v-81h-222v-215h222v-81h-302zM185 668v74h-74v80h80v-74h74v-80h-80z" />
    <glyph glyph-name="Eacute" unicode="&#xc9;" horiz-adv-x="377" 
d="M40 0v599h302v-81h-222v-141h222v-81h-222v-215h222v-81h-302zM111 668v80h74v74h80v-80h-74v-74h-80z" />
    <glyph glyph-name="Ecircumflex" unicode="&#xca;" horiz-adv-x="377" 
d="M40 0v599h302v-81h-222v-141h222v-81h-222v-215h222v-81h-302zM221 668v74h-67v-74h-80v80h74v74h80v-74h74v-80h-81z" />
    <glyph glyph-name="Edieresis" unicode="&#xcb;" horiz-adv-x="377" 
d="M40 0v599h302v-81h-222v-141h222v-81h-222v-215h222v-81h-302zM74 668v80h80v-80h-80zM221 668v80h81v-80h-81z" />
    <glyph glyph-name="Igrave" unicode="&#xcc;" horiz-adv-x="160" 
d="M40 0v599h80v-599h-80zM78 668v74h-74v80h80v-74h74v-80h-80z" />
    <glyph glyph-name="Iacute" unicode="&#xcd;" horiz-adv-x="160" 
d="M40 0v599h80v-599h-80zM4 668v80h74v74h80v-80h-74v-74h-80z" />
    <glyph glyph-name="Icircumflex" unicode="&#xce;" horiz-adv-x="160" 
d="M40 0v599h80v-599h-80zM114 668v74h-67v-74h-80v80h74v74h80v-74h74v-80h-81z" />
    <glyph glyph-name="Idieresis" unicode="&#xcf;" horiz-adv-x="160" 
d="M40 0v599h80v-599h-80zM-33 668v80h80v-80h-80zM114 668v80h81v-80h-81z" />
    <glyph glyph-name="Eth" unicode="&#xd0;" horiz-adv-x="488" 
d="M71 0v296h-31v81h31v222h229v-74h74v-74h74v-303h-74v-74h-74v-74h-229zM367 444h-74v74h-141v-141h74v-81h-74v-215h141v74h74v289z" />
    <glyph glyph-name="Ntilde" unicode="&#xd1;" 
d="M335 0v74h-74v148h-74v148h-67v-370h-80v599h80v-74h74v-148h74v-148h67v370h81v-599h-81zM224 668v74h-67v-74h-80v80h74v74h80v-74h67v74h81v-80h-74v-74h-81z" />
    <glyph glyph-name="Ograve" unicode="&#xd2;" 
d="M114 0v74h-74v451h74v74h228v-74h74v-451h-74v-74h-228zM335 518h-215v-437h215v437zM225 668v74h-74v80h80v-74h74v-80h-80z" />
    <glyph glyph-name="Oacute" unicode="&#xd3;" 
d="M114 0v74h-74v451h74v74h228v-74h74v-451h-74v-74h-228zM335 518h-215v-437h215v437zM151 668v80h74v74h80v-80h-74v-74h-80z" />
    <glyph glyph-name="Ocircumflex" unicode="&#xd4;" 
d="M114 0v74h-74v451h74v74h228v-74h74v-451h-74v-74h-228zM335 518h-215v-437h215v437zM261 668v74h-67v-74h-80v80h74v74h80v-74h74v-80h-81z" />
    <glyph glyph-name="Otilde" unicode="&#xd5;" 
d="M114 0v74h-74v451h74v74h228v-74h74v-451h-74v-74h-228zM335 518h-215v-437h215v437zM224 668v74h-67v-74h-80v80h74v74h80v-74h67v74h81v-80h-74v-74h-81z" />
    <glyph glyph-name="Odieresis" unicode="&#xd6;" 
d="M114 0v74h-74v451h74v74h228v-74h74v-451h-74v-74h-228zM335 518h-215v-437h215v437zM114 668v80h80v-80h-80zM261 668v80h81v-80h-81z" />
    <glyph glyph-name="multiply" unicode="&#xd7;" 
d="M335 74v74h-74v74h-67v-74h-74v-74h-80v81h74v74h73v67h-73v74h-74v81h80v-74h74v-74h67v74h74v74h81v-81h-74v-74h-74v-67h74v-74h74v-81h-81z" />
    <glyph glyph-name="Oslash" unicode="&#xd8;" 
d="M120 0v-74h-80v81h74v67h-74v451h74v74h221v74h81v-81h-74v-67h74v-451h-74v-74h-222zM335 370h-67v-148h-74v-141h141v289zM187 377h74v141h-141v-289h67v148z" />
    <glyph glyph-name="Ugrave" unicode="&#xd9;" 
d="M114 0v74h-74v525h80v-518h215v518h81v-525h-74v-74h-228zM225 668v74h-74v80h80v-74h74v-80h-80z" />
    <glyph glyph-name="Uacute" unicode="&#xda;" 
d="M114 0v74h-74v525h80v-518h215v518h81v-525h-74v-74h-228zM151 668v80h74v74h80v-80h-74v-74h-80z" />
    <glyph glyph-name="Ucircumflex" unicode="&#xdb;" 
d="M114 0v74h-74v525h80v-518h215v518h81v-525h-74v-74h-228zM261 668v74h-67v-74h-80v80h74v74h80v-74h74v-80h-81z" />
    <glyph glyph-name="Udieresis" unicode="&#xdc;" 
d="M114 0v74h-74v525h80v-518h215v518h81v-525h-74v-74h-228zM114 668v80h80v-80h-80zM261 668v80h81v-80h-81z" />
    <glyph glyph-name="Yacute" unicode="&#xdd;" 
d="M187 0v370h-73v148h-74v81h80v-74h74v-148h67v148h74v74h81v-81h-74v-148h-74v-370h-81zM151 668v80h74v74h80v-80h-74v-74h-80z" />
    <glyph glyph-name="Thorn" unicode="&#xde;" horiz-adv-x="362" 
d="M268 222v-74h-148v-148h-80v599h80v-148h148v-74h74v-155h-74zM261 370h-141v-141h141v141z" />
    <glyph glyph-name="germandbls" unicode="&#xdf;" horiz-adv-x="382" 
d="M187 0v81h74v289h-74v81h74v67h-141v-518h-80v525h74v74h154v-74h74v-81h-74v-67h74v-303h-74v-74h-81z" />
    <glyph glyph-name="agrave" unicode="&#xe0;" horiz-adv-x="442" 
d="M329 0v74h-68v-74h-154v74h-74v155h74v74h148v67h-148v81h154v-74h74v-296h74v-81h-80zM255 222h-141v-141h141v141zM218 520v74h-74v80h80v-74h74v-80h-80z" />
    <glyph glyph-name="aacute" unicode="&#xe1;" horiz-adv-x="442" 
d="M329 0v74h-68v-74h-154v74h-74v155h74v74h148v67h-148v81h154v-74h74v-296h74v-81h-80zM255 222h-141v-141h141v141zM144 520v80h74v74h80v-80h-74v-74h-80z" />
    <glyph glyph-name="acircumflex" unicode="&#xe2;" horiz-adv-x="442" 
d="M329 0v74h-68v-74h-154v74h-74v155h74v74h148v67h-148v81h154v-74h74v-296h74v-81h-80zM255 222h-141v-141h141v141zM254 520v74h-67v-74h-80v80h74v74h80v-74h74v-80h-81z" />
    <glyph glyph-name="atilde" unicode="&#xe3;" horiz-adv-x="442" 
d="M329 0v74h-68v-74h-154v74h-74v155h74v74h148v67h-148v81h154v-74h74v-296h74v-81h-80zM255 222h-141v-141h141v141zM217 520v74h-67v-74h-80v80h74v74h80v-74h67v74h81v-80h-74v-74h-81z" />
    <glyph glyph-name="adieresis" unicode="&#xe4;" horiz-adv-x="442" 
d="M329 0v74h-68v-74h-154v74h-74v155h74v74h148v67h-148v81h154v-74h74v-296h74v-81h-80zM255 222h-141v-141h141v141zM107 520v80h80v-80h-80zM254 520v80h81v-80h-81z" />
    <glyph glyph-name="aring" unicode="&#xe5;" horiz-adv-x="442" 
d="M329 0v74h-68v-74h-154v74h-74v155h74v74h148v67h-148v81h154v-74h74v-296h74v-81h-80zM255 222h-141v-141h141v141zM181 520v74h-74v80h74v74h80v-74h74v-80h-74v-74h-80zM254 668h-67v-68h67v68z" />
    <glyph glyph-name="ae" unicode="&#xe6;" horiz-adv-x="593" 
d="M327 0v74h-67v-74h-155v74h-74v155h74v74h148v67h-148v81h155v-74h67v74h155v-74h74v-155h-222v-141h141v74h81v-81h-74v-74h-155zM253 222h-141v-141h141v141zM475 370h-141v-67h141v67z" />
    <glyph glyph-name="ccedilla" unicode="&#xe7;" horiz-adv-x="375" 
d="M114 0v74h-74v303h74v74h154v-74h74v-81h-81v74h-141v-289h141v74h81v-81h-74v-74h-154zM80 -222v81h74v74h80v-81h-74v-74h-80z" />
    <glyph glyph-name="egrave" unicode="&#xe8;" horiz-adv-x="382" 
d="M114 0v74h-74v303h74v74h154v-74h74v-155h-222v-141h141v74h81v-81h-74v-74h-154zM261 370h-141v-67h141v67zM188 520v74h-74v80h80v-74h74v-80h-80z" />
    <glyph glyph-name="eacute" unicode="&#xe9;" horiz-adv-x="382" 
d="M114 0v74h-74v303h74v74h154v-74h74v-155h-222v-141h141v74h81v-81h-74v-74h-154zM261 370h-141v-67h141v67zM114 520v80h74v74h80v-80h-74v-74h-80z" />
    <glyph glyph-name="ecircumflex" unicode="&#xea;" horiz-adv-x="382" 
d="M114 0v74h-74v303h74v74h154v-74h74v-155h-222v-141h141v74h81v-81h-74v-74h-154zM261 370h-141v-67h141v67zM224 520v74h-67v-74h-80v80h74v74h80v-74h74v-80h-81z" />
    <glyph glyph-name="edieresis" unicode="&#xeb;" horiz-adv-x="382" 
d="M114 0v74h-74v303h74v74h154v-74h74v-155h-222v-141h141v74h81v-81h-74v-74h-154zM261 370h-141v-67h141v67zM77 520v80h80v-80h-80zM224 520v80h81v-80h-81z" />
    <glyph glyph-name="igrave" unicode="&#xec;" horiz-adv-x="169" 
d="M45 0v451h81v-451h-81zM83 520v74h-74v80h80v-74h74v-80h-80z" />
    <glyph glyph-name="iacute" unicode="&#xed;" horiz-adv-x="169" 
d="M45 0v451h81v-451h-81zM9 520v80h74v74h80v-80h-74v-74h-80z" />
    <glyph glyph-name="icircumflex" unicode="&#xee;" horiz-adv-x="169" 
d="M45 0v451h81v-451h-81zM119 520v74h-67v-74h-80v80h74v74h80v-74h74v-80h-81z" />
    <glyph glyph-name="idieresis" unicode="&#xef;" horiz-adv-x="169" 
d="M45 0v451h81v-451h-81zM-28 520v80h80v-80h-80zM119 520v80h81v-80h-81z" />
    <glyph glyph-name="eth" unicode="&#xf0;" 
d="M114 0v74h-74v229h74v74h221v67h-74v74h-147v81h154v-74h67v74h81v-81h-74v-67h74v-303h-81v148h-215v-215h141v74h71v-81h-64v-74h-154z" />
    <glyph glyph-name="ntilde" unicode="&#xf1;" horiz-adv-x="380" 
d="M261 0v370h-141v-370h-80v451h228v-74h74v-377h-81zM187 520v74h-67v-74h-80v80h74v74h80v-74h67v74h81v-80h-74v-74h-81z" />
    <glyph glyph-name="ograve" unicode="&#xf2;" horiz-adv-x="373" 
d="M109 0v74h-74v303h74v74h155v-74h74v-303h-74v-74h-155zM257 370h-141v-289h141v289zM183 520v74h-74v80h80v-74h74v-80h-80z" />
    <glyph glyph-name="oacute" unicode="&#xf3;" horiz-adv-x="373" 
d="M109 0v74h-74v303h74v74h155v-74h74v-303h-74v-74h-155zM257 370h-141v-289h141v289zM109 520v80h74v74h80v-80h-74v-74h-80z" />
    <glyph glyph-name="ocircumflex" unicode="&#xf4;" horiz-adv-x="373" 
d="M109 0v74h-74v303h74v74h155v-74h74v-303h-74v-74h-155zM257 370h-141v-289h141v289zM219 520v74h-67v-74h-80v80h74v74h80v-74h74v-80h-81z" />
    <glyph glyph-name="otilde" unicode="&#xf5;" horiz-adv-x="373" 
d="M109 0v74h-74v303h74v74h155v-74h74v-303h-74v-74h-155zM257 370h-141v-289h141v289zM184 520v74h-67v-74h-80v80h74v74h80v-74h67v74h81v-80h-74v-74h-81z" />
    <glyph glyph-name="odieresis" unicode="&#xf6;" horiz-adv-x="373" 
d="M109 0v74h-74v303h74v74h155v-74h74v-303h-74v-74h-155zM257 370h-141v-289h141v289zM72 520v80h80v-80h-80zM219 520v80h81v-80h-81z" />
    <glyph glyph-name="divide" unicode="&#xf7;" 
d="M187 370v81h81v-81h-81zM187 74v81h81v-81h-81zM40 222v81h376v-81h-376z" />
    <glyph glyph-name="oslash" unicode="&#xf8;" horiz-adv-x="382" 
d="M120 0v-74h-80v81h74v67h-74v303h74v74h147v74h81v-81h-74v-67h74v-303h-74v-74h-148zM187 370h-67v-141h67v141zM261 222h-67v-141h67v141z" />
    <glyph glyph-name="ugrave" unicode="&#xf9;" horiz-adv-x="378" 
d="M109 0v74h-74v377h81v-370h141v370h81v-451h-229zM186 520v74h-74v80h80v-74h74v-80h-80z" />
    <glyph glyph-name="uacute" unicode="&#xfa;" horiz-adv-x="378" 
d="M109 0v74h-74v377h81v-370h141v370h81v-451h-229zM112 520v80h74v74h80v-80h-74v-74h-80z" />
    <glyph glyph-name="ucircumflex" unicode="&#xfb;" horiz-adv-x="378" 
d="M109 0v74h-74v377h81v-370h141v370h81v-451h-229zM222 520v74h-67v-74h-80v80h74v74h80v-74h74v-80h-81z" />
    <glyph glyph-name="udieresis" unicode="&#xfc;" horiz-adv-x="378" 
d="M109 0v74h-74v377h81v-370h141v370h81v-451h-229zM75 520v80h80v-80h-80zM222 520v80h81v-80h-81z" />
    <glyph glyph-name="yacute" unicode="&#xfd;" horiz-adv-x="378" 
d="M109 -222v74h-74v81h81v-74h141v141h-148v74h-74v377h81v-370h141v370h81v-599h-74v-74h-155zM112 520v80h74v74h80v-80h-74v-74h-80z" />
    <glyph glyph-name="thorn" unicode="&#xfe;" horiz-adv-x="382" 
d="M40 -222v821h80v-148h148v-74h74v-303h-74v-74h-148v-222h-80zM261 370h-141v-289h141v289z" />
    <glyph glyph-name="ydieresis" unicode="&#xff;" horiz-adv-x="378" 
d="M109 -222v74h-74v81h81v-74h141v141h-148v74h-74v377h81v-370h141v370h81v-599h-74v-74h-155zM75 520v80h80v-80h-80zM222 520v80h81v-80h-81z" />
    <glyph glyph-name="Amacron" unicode="&#x100;" horiz-adv-x="530" 
d="M409 0v222h-289v-222h-80v229h74v222h73v148h155v-148h74v-222h74v-229h-81zM335 444h-141v-141h141v141zM114 668v80h302v-80h-302z" />
    <glyph glyph-name="amacron" unicode="&#x101;" horiz-adv-x="442" 
d="M329 0v74h-68v-74h-154v74h-74v155h74v74h148v67h-148v81h154v-74h74v-296h74v-81h-80zM255 222h-141v-141h141v141zM70 520v80h302v-80h-302z" />
    <glyph glyph-name="Abreve" unicode="&#x102;" horiz-adv-x="530" 
d="M409 0v222h-289v-222h-80v229h74v222h73v148h155v-148h74v-222h74v-229h-81zM335 444h-141v-141h141v141zM188 668v74h-74v80h80v-74h141v74h81v-80h-74v-74h-154z" />
    <glyph glyph-name="abreve" unicode="&#x103;" horiz-adv-x="442" 
d="M329 0v74h-68v-74h-154v74h-74v155h74v74h148v67h-148v81h154v-74h74v-296h74v-81h-80zM255 222h-141v-141h141v141zM144 520v74h-74v80h80v-74h141v74h81v-80h-74v-74h-154z" />
    <glyph glyph-name="Aogonek" unicode="&#x104;" horiz-adv-x="530" 
d="M335 -222v74h-74v81h74v74h74v215h-289v-222h-80v229h74v222h73v148h155v-148h74v-222h74v-229h-74v-74h-74v-67h148v-81h-155zM335 444h-141v-141h141v141z" />
    <glyph glyph-name="aogonek" unicode="&#x105;" 
d="M261 -222v74h-74v81h74v67h-147v74h-74v155h74v74h147v67h-147v81h154v-74h74v-296h74v-81h-74v-74h-74v-67h148v-81h-155zM261 222h-141v-141h141v141zM335 74h-67v-67h67v67z" />
    <glyph glyph-name="Cacute" unicode="&#x106;" 
d="M114 0v74h-74v451h74v74h228v-74h74v-81h-81v74h-215v-437h215v74h81v-81h-74v-74h-228zM151 668v80h74v74h80v-80h-74v-74h-80z" />
    <glyph glyph-name="cacute" unicode="&#x107;" horiz-adv-x="375" 
d="M114 0v74h-74v303h74v74h154v-74h74v-81h-81v74h-141v-289h141v74h81v-81h-74v-74h-154zM110 520v80h74v74h80v-80h-74v-74h-80z" />
    <glyph glyph-name="Cdotaccent" unicode="&#x10a;" 
d="M114 0v74h-74v451h74v74h228v-74h74v-81h-81v74h-215v-437h215v74h81v-81h-74v-74h-228zM188 668v80h80v-80h-80z" />
    <glyph glyph-name="cdotaccent" unicode="&#x10b;" horiz-adv-x="375" 
d="M114 0v74h-74v303h74v74h154v-74h74v-81h-81v74h-141v-289h141v74h81v-81h-74v-74h-154zM147 520v80h80v-80h-80z" />
    <glyph glyph-name="Ccaron" unicode="&#x10c;" 
d="M114 0v74h-74v451h74v74h228v-74h74v-81h-81v74h-215v-437h215v74h81v-81h-74v-74h-228zM188 668v74h-74v80h80v-74h67v74h81v-80h-74v-74h-80z" />
    <glyph glyph-name="ccaron" unicode="&#x10d;" horiz-adv-x="375" 
d="M114 0v74h-74v303h74v74h154v-74h74v-81h-81v74h-141v-289h141v74h81v-81h-74v-74h-154zM147 520v74h-74v80h80v-74h67v74h81v-80h-74v-74h-80z" />
    <glyph glyph-name="Dcaron" unicode="&#x10e;" 
d="M342 148v-74h-74v-74h-228v599h228v-74h74v-74h74v-303h-74zM335 444h-74v74h-141v-437h141v74h74v289zM188 668v74h-74v80h80v-74h67v74h81v-80h-74v-74h-80z" />
    <glyph glyph-name="dcaron" unicode="&#x10f;" horiz-adv-x="547" 
d="M107 0v74h-74v303h74v74h148v148h80v-599h-228zM255 370h-141v-289h141v289zM396 444v81h74v148h80v-155h-74v-74h-80z" />
    <glyph glyph-name="Dcroat" unicode="&#x110;" horiz-adv-x="488" 
d="M71 0v296h-31v81h31v222h229v-74h74v-74h74v-303h-74v-74h-74v-74h-229zM367 444h-74v74h-141v-141h74v-81h-74v-215h141v74h74v289z" />
    <glyph glyph-name="dcroat" unicode="&#x111;" horiz-adv-x="406" 
d="M107 0v74h-74v230h74v74h148v66h-148v81h148v74h80v-74h74v-81h-74v-444h-228zM255 297h-141v-216h141v216z" />
    <glyph glyph-name="Emacron" unicode="&#x112;" horiz-adv-x="377" 
d="M40 0v599h302v-81h-222v-141h222v-81h-222v-215h222v-81h-302zM39 668v80h302v-80h-302z" />
    <glyph glyph-name="emacron" unicode="&#x113;" horiz-adv-x="382" 
d="M114 0v74h-74v303h74v74h154v-74h74v-155h-222v-141h141v74h81v-81h-74v-74h-154zM261 370h-141v-67h141v67zM40 520v80h302v-80h-302z" />
    <glyph glyph-name="Ebreve" unicode="&#x114;" horiz-adv-x="377" 
d="M40 0v599h302v-81h-222v-141h222v-81h-222v-215h222v-81h-302zM113 668v74h-74v80h80v-74h141v74h81v-80h-74v-74h-154z" />
    <glyph glyph-name="ebreve" unicode="&#x115;" horiz-adv-x="382" 
d="M114 0v74h-74v303h74v74h154v-74h74v-155h-222v-141h141v74h81v-81h-74v-74h-154zM261 370h-141v-67h141v67zM114 520v74h-74v80h80v-74h141v74h81v-80h-74v-74h-154z" />
    <glyph glyph-name="Edotaccent" unicode="&#x116;" horiz-adv-x="377" 
d="M40 0v599h302v-81h-222v-141h222v-81h-222v-215h222v-81h-302zM148 668v80h80v-80h-80z" />
    <glyph glyph-name="edotaccent" unicode="&#x117;" horiz-adv-x="382" 
d="M114 0v74h-74v303h74v74h154v-74h74v-155h-222v-141h141v74h81v-81h-74v-74h-154zM261 370h-141v-67h141v67zM151 520v80h80v-80h-80z" />
    <glyph glyph-name="Eogonek" unicode="&#x118;" horiz-adv-x="377" 
d="M187 -222v74h-73v81h73v67h-147v599h302v-81h-222v-141h222v-81h-222v-215h222v-81h-74v-74h-74v-67h148v-81h-155z" />
    <glyph glyph-name="eogonek" unicode="&#x119;" horiz-adv-x="382" 
d="M187 -222v74h-73v81h73v67h-73v74h-74v303h74v74h154v-74h74v-155h-222v-141h141v74h81v-81h-74v-148h-74v-67h148v-81h-155zM261 370h-141v-67h141v67z" />
    <glyph glyph-name="Ecaron" unicode="&#x11a;" horiz-adv-x="377" 
d="M40 0v599h302v-81h-222v-141h222v-81h-222v-215h222v-81h-302zM148 668v74h-74v80h80v-74h67v74h81v-80h-74v-74h-80z" />
    <glyph glyph-name="ecaron" unicode="&#x11b;" horiz-adv-x="382" 
d="M114 0v74h-74v303h74v74h154v-74h74v-155h-222v-141h141v74h81v-81h-74v-74h-154zM261 370h-141v-67h141v67zM151 520v74h-74v80h80v-74h67v74h81v-80h-74v-74h-80z" />
    <glyph glyph-name="Gbreve" unicode="&#x11e;" 
d="M335 0v74h-67v-74h-154v74h-74v451h74v74h228v-74h74v-81h-81v74h-215v-437h141v74h74v141h-148v81h229v-377h-81zM151 668v74h-74v80h80v-74h141v74h81v-80h-74v-74h-154z" />
    <glyph glyph-name="gbreve" unicode="&#x11f;" horiz-adv-x="378" 
d="M109 -222v74h-74v81h81v-74h141v141h-148v74h-74v303h74v74h229v-599h-74v-74h-155zM257 370h-141v-289h141v289zM113 520v74h-74v80h80v-74h141v74h81v-80h-74v-74h-154z" />
    <glyph glyph-name="Gdotaccent" unicode="&#x120;" 
d="M335 0v74h-67v-74h-154v74h-74v451h74v74h228v-74h74v-81h-81v74h-215v-437h141v74h74v141h-148v81h229v-377h-81zM188 668v80h80v-80h-80z" />
    <glyph glyph-name="gdotaccent" unicode="&#x121;" horiz-adv-x="378" 
d="M109 -222v74h-74v81h81v-74h141v141h-148v74h-74v303h74v74h229v-599h-74v-74h-155zM257 370h-141v-289h141v289zM149 520v80h80v-80h-80z" />
    <glyph glyph-name="Gcommaaccent" unicode="&#x122;" 
d="M335 0v74h-67v-74h-154v74h-74v451h74v74h228v-74h74v-81h-81v74h-215v-437h141v74h74v141h-148v81h229v-377h-81zM121 -222v81h74v74h80v-81h-74v-74h-80z" />
    <glyph glyph-name="gcommaaccent" unicode="&#x123;" horiz-adv-x="382" 
d="M114 -222v74h-74v81h80v-74h141v141h-147v74h-74v303h74v74h228v-599h-74v-74h-154zM261 370h-141v-289h141v289zM187 518v81h74v74h81v-81h-74v-74h-81z" />
    <glyph glyph-name="Hbar" unicode="&#x126;" 
d="M335 0v296h-215v-296h-80v599h80v-74h215v74h81v-599h-81zM335 444h-215v-67h215v67z" />
    <glyph glyph-name="hbar" unicode="&#x127;" horiz-adv-x="409" 
d="M293 0v296h-141v-296h-81v444h-74v81h74v74h81v-74h147v-81h-147v-67h148v-74h74v-303h-81z" />
    <glyph glyph-name="Itilde" unicode="&#x128;" horiz-adv-x="160" 
d="M40 0v599h80v-599h-80zM77 668v74h-67v-74h-80v80h74v74h80v-74h67v74h81v-80h-74v-74h-81z" />
    <glyph glyph-name="itilde" unicode="&#x129;" horiz-adv-x="169" 
d="M45 0v451h81v-451h-81zM82 520v74h-67v-74h-80v80h74v74h80v-74h67v74h81v-80h-74v-74h-81z" />
    <glyph glyph-name="uni012A" unicode="&#x12a;" horiz-adv-x="160" 
d="M40 0v599h80v-599h-80zM-70 668v80h302v-80h-302z" />
    <glyph glyph-name="imacron" unicode="&#x12b;" horiz-adv-x="169" 
d="M45 0v451h81v-451h-81zM-65 520v80h302v-80h-302z" />
    <glyph glyph-name="Ibreve" unicode="&#x12c;" horiz-adv-x="160" 
d="M40 0v599h80v-599h-80zM4 668v74h-74v80h80v-74h141v74h81v-80h-74v-74h-154z" />
    <glyph glyph-name="ibreve" unicode="&#x12d;" horiz-adv-x="169" 
d="M45 0v451h81v-451h-81zM9 520v74h-74v80h80v-74h141v74h81v-80h-74v-74h-154z" />
    <glyph glyph-name="Iogonek" unicode="&#x12e;" horiz-adv-x="160" 
d="M40 -222v74h-74v81h74v666h80v-673h-74v-67h148v-81h-154z" />
    <glyph glyph-name="iogonek" unicode="&#x12f;" horiz-adv-x="160" 
d="M40 -222v74h-74v81h74v518h80v-525h-74v-67h148v-81h-154z" />
    <glyph glyph-name="Idotaccent" unicode="&#x130;" horiz-adv-x="160" 
d="M40 0v599h80v-599h-80zM40 668v80h80v-80h-80z" />
    <glyph glyph-name="dotlessi" unicode="&#x131;" horiz-adv-x="169" 
d="M45 0v451h81v-451h-81z" />
    <glyph glyph-name="IJ" unicode="&#x132;" horiz-adv-x="500" 
d="M40 0v599h80v-599h-80zM232 0v74h-74v155h81v-148h141v518h81v-525h-74v-74h-155z" />
    <glyph glyph-name="ij" unicode="&#x133;" horiz-adv-x="303" 
d="M46 0v451h81v-451h-81zM46 518v81h81v-81h-81zM109 -222v81h74v592h81v-599h-74v-74h-81zM183 518v81h81v-81h-81z" />
    <glyph glyph-name="Kcommaaccent" unicode="&#x136;" horiz-adv-x="438" 
d="M335 0v74h-74v148h-74v148h-67v-370h-80v599h80v-148h67v74h74v74h81v-81h-74v-74h-74v-67h74v-148h74v-148h74v-81h-81zM95 -222v81h74v74h80v-81h-74v-74h-80z" />
    <glyph glyph-name="kcommaaccent" unicode="&#x137;" horiz-adv-x="375" 
d="M261 0v74h-74v74h-67v-156h-80v607h80v-296h67v74h74v74h81v-81h-74v-74h-74v-141h74v-74h74v-81h-81zM110 -222v81h74v74h80v-81h-74v-74h-80z" />
    <glyph glyph-name="Lacute" unicode="&#x139;" horiz-adv-x="355" 
d="M40 0v599h80v-518h222v-81h-302zM8 668v80h74v74h80v-80h-74v-74h-80z" />
    <glyph glyph-name="lacute" unicode="&#x13a;" horiz-adv-x="160" 
d="M40 0v599h80v-599h-80zM4 668v80h74v74h80v-80h-74v-74h-80z" />
    <glyph glyph-name="Lcommaaccent" unicode="&#x13b;" horiz-adv-x="355" 
d="M40 0v599h80v-518h222v-81h-302zM84 -222v81h74v74h80v-81h-74v-74h-80z" />
    <glyph glyph-name="lcommaaccent" unicode="&#x13c;" horiz-adv-x="160" 
d="M40 0v599h80v-599h-80zM-34 -222v81h74v74h80v-81h-74v-74h-80z" />
    <glyph glyph-name="Lcaron" unicode="&#x13d;" horiz-adv-x="355" 
d="M40 0v599h80v-518h222v-81h-302zM167 444v81h74v74h81v-81h-74v-74h-81z" />
    <glyph glyph-name="lcaron" unicode="&#x13e;" horiz-adv-x="298" 
d="M40 0v599h80v-599h-80zM146 444v81h74v74h81v-81h-74v-74h-81z" />
    <glyph glyph-name="Ldot" unicode="&#x13f;" horiz-adv-x="355" 
d="M40 0v599h80v-518h222v-81h-302zM176 296v81h81v-81h-81z" />
    <glyph glyph-name="ldot" unicode="&#x140;" horiz-adv-x="228" 
d="M40 0v599h80v-599h-80zM140 296v81h81v-81h-81z" />
    <glyph glyph-name="Lslash" unicode="&#x141;" horiz-adv-x="396" 
d="M80 0v222h-74v81h74v296h81v-222h67v74h81v-81h-74v-74h-74v-215h222v-81h-303z" />
    <glyph glyph-name="lslash" unicode="&#x142;" horiz-adv-x="247" 
d="M82 0v222h-74v81h74v296h81v-222h74v-81h-74v-296h-81z" />
    <glyph glyph-name="Nacute" unicode="&#x143;" 
d="M335 0v74h-74v148h-74v148h-67v-370h-80v599h80v-74h74v-148h74v-148h67v370h81v-599h-81zM151 668v80h74v74h80v-80h-74v-74h-80z" />
    <glyph glyph-name="nacute" unicode="&#x144;" horiz-adv-x="380" 
d="M261 0v370h-141v-370h-80v451h228v-74h74v-377h-81zM113 520v80h74v74h80v-80h-74v-74h-80z" />
    <glyph glyph-name="Ncommaaccent" unicode="&#x145;" 
d="M335 0v74h-74v148h-74v148h-67v-370h-80v599h80v-74h74v-148h74v-148h67v370h81v-599h-81zM108 -222v81h74v74h80v-81h-74v-74h-80z" />
    <glyph glyph-name="ncommaaccent" unicode="&#x146;" horiz-adv-x="380" 
d="M261 0v370h-141v-370h-80v451h228v-74h74v-377h-81zM70 -222v81h74v74h80v-81h-74v-74h-80z" />
    <glyph glyph-name="Ncaron" unicode="&#x147;" 
d="M335 0v74h-74v148h-74v148h-67v-370h-80v599h80v-74h74v-148h74v-148h67v370h81v-599h-81zM188 668v74h-74v80h80v-74h67v74h81v-80h-74v-74h-80z" />
    <glyph glyph-name="ncaron" unicode="&#x148;" horiz-adv-x="380" 
d="M261 0v370h-141v-370h-80v451h228v-74h74v-377h-81zM150 520v74h-74v80h80v-74h67v74h81v-80h-74v-74h-80z" />
    <glyph glyph-name="Eng" unicode="&#x14a;" 
d="M261 -222v81h74v215h-74v148h-74v148h-67v-370h-80v599h80v-74h74v-148h74v-148h67v370h81v-747h-74v-74h-81z" />
    <glyph glyph-name="eng" unicode="&#x14b;" horiz-adv-x="382" 
d="M187 -222v81h74v511h-141v-370h-80v451h228v-74h74v-525h-74v-74h-81z" />
    <glyph glyph-name="Omacron" unicode="&#x14c;" 
d="M114 0v74h-74v451h74v74h228v-74h74v-451h-74v-74h-228zM335 518h-215v-437h215v437zM77 668v80h302v-80h-302z" />
    <glyph glyph-name="omacron" unicode="&#x14d;" horiz-adv-x="373" 
d="M109 0v74h-74v303h74v74h155v-74h74v-303h-74v-74h-155zM257 370h-141v-289h141v289zM37 520v80h302v-80h-302z" />
    <glyph glyph-name="Obreve" unicode="&#x14e;" 
d="M114 0v74h-74v451h74v74h228v-74h74v-451h-74v-74h-228zM335 518h-215v-437h215v437zM151 668v74h-74v80h80v-74h141v74h81v-80h-74v-74h-154z" />
    <glyph glyph-name="obreve" unicode="&#x14f;" horiz-adv-x="373" 
d="M109 0v74h-74v303h74v74h155v-74h74v-303h-74v-74h-155zM257 370h-141v-289h141v289zM111 520v74h-74v80h80v-74h141v74h81v-80h-74v-74h-154z" />
    <glyph glyph-name="Ohungarumlaut" unicode="&#x150;" 
d="M114 0v74h-74v451h74v74h228v-74h74v-451h-74v-74h-228zM335 518h-215v-437h215v437zM261 668v80h74v148h81v-154h-74v-74h-81zM40 668v80h74v148h80v-154h-74v-74h-80z" />
    <glyph glyph-name="ohungarumlaut" unicode="&#x151;" horiz-adv-x="373" 
d="M109 0v74h-74v303h74v74h155v-74h74v-303h-74v-74h-155zM257 370h-141v-289h141v289zM221 520v80h74v148h81v-154h-74v-74h-81zM0 520v80h74v148h80v-154h-74v-74h-80z" />
    <glyph glyph-name="OE" unicode="&#x152;" horiz-adv-x="666" 
d="M110 0v74h-74v451h74v74h525v-81h-222v-141h222v-81h-222v-215h222v-81h-525zM332 518h-215v-437h215v437z" />
    <glyph glyph-name="oe" unicode="&#x153;" horiz-adv-x="597" 
d="M329 0v74h-68v-74h-154v74h-74v303h74v74h154v-74h68v74h154v-74h74v-155h-222v-141h141v74h81v-81h-74v-74h-154zM255 370h-141v-289h141v289zM476 370h-141v-67h141v67z" />
    <glyph glyph-name="Racute" unicode="&#x154;" 
d="M335 0v148h-74v148h-141v-296h-80v599h302v-74h74v-155h-74v-215h74v-155h-81zM335 518h-215v-141h215v141zM151 668v80h74v74h80v-80h-74v-74h-80z" />
    <glyph glyph-name="racute" unicode="&#x155;" horiz-adv-x="292" 
d="M40 0v451h80v-74h67v74h81v-81h-74v-74h-74v-296h-80zM69 520v80h74v74h80v-80h-74v-74h-80z" />
    <glyph glyph-name="Rcommaaccent" unicode="&#x156;" 
d="M335 0v148h-74v148h-141v-296h-80v599h302v-74h74v-155h-74v-215h74v-155h-81zM335 518h-215v-141h215v141zM105 -222v81h74v74h80v-81h-74v-74h-80z" />
    <glyph glyph-name="rcommaaccent" unicode="&#x157;" horiz-adv-x="292" 
d="M40 0v451h80v-74h67v74h81v-81h-74v-74h-74v-296h-80zM-37 -222v81h74v74h80v-81h-74v-74h-80z" />
    <glyph glyph-name="Rcaron" unicode="&#x158;" 
d="M335 0v148h-74v148h-141v-296h-80v599h302v-74h74v-155h-74v-215h74v-155h-81zM335 518h-215v-141h215v141zM188 668v74h-74v80h80v-74h67v74h81v-80h-74v-74h-80z" />
    <glyph glyph-name="rcaron" unicode="&#x159;" horiz-adv-x="292" 
d="M40 0v451h80v-74h67v74h81v-81h-74v-74h-74v-296h-80zM107 520v74h-74v80h80v-74h67v74h81v-80h-74v-74h-80z" />
    <glyph glyph-name="Sacute" unicode="&#x15a;" 
d="M114 0v74h-74v155h80v-148h215v215h-221v74h-74v155h74v74h228v-74h74v-81h-81v74h-215v-141h222v-74h74v-229h-74v-74h-228zM151 668v80h74v74h80v-80h-74v-74h-80z" />
    <glyph glyph-name="sacute" unicode="&#x15b;" horiz-adv-x="372" 
d="M37 0v81h222v141h-148v74h-74v81h74v74h155v-81h-148v-67h148v-74h74v-155h-74v-74h-229zM109 520v80h74v74h80v-80h-74v-74h-80z" />
    <glyph glyph-name="Scedilla" unicode="&#x15e;" 
d="M114 0v74h-74v155h80v-148h215v215h-221v74h-74v155h74v74h228v-74h74v-81h-81v74h-215v-141h222v-74h74v-229h-74v-74h-228zM111 -222v81h74v74h80v-81h-74v-74h-80z" />
    <glyph glyph-name="scedilla" unicode="&#x15f;" horiz-adv-x="372" 
d="M37 0v81h222v141h-148v74h-74v81h74v74h155v-81h-148v-67h148v-74h74v-155h-74v-74h-229zM59 -222v81h74v74h80v-81h-74v-74h-80z" />
    <glyph glyph-name="Scaron" unicode="&#x160;" 
d="M114 0v74h-74v155h80v-148h215v215h-221v74h-74v155h74v74h228v-74h74v-81h-81v74h-215v-141h222v-74h74v-229h-74v-74h-228zM188 668v74h-74v80h80v-74h67v74h81v-80h-74v-74h-80z" />
    <glyph glyph-name="scaron" unicode="&#x161;" horiz-adv-x="372" 
d="M37 0v81h222v141h-148v74h-74v81h74v74h155v-81h-148v-67h148v-74h74v-155h-74v-74h-229zM146 520v74h-74v80h80v-74h67v74h81v-80h-74v-74h-80z" />
    <glyph glyph-name="Tcommaaccent" unicode="&#x162;" horiz-adv-x="409" 
d="M164 0v518h-148v81h377v-81h-148v-518h-81zM91 -222v81h74v74h80v-81h-74v-74h-80z" />
    <glyph glyph-name="tcommaaccent" unicode="&#x163;" horiz-adv-x="284" 
d="M171 0v74h-74v296h-74v81h74v148h81v-148h74v-81h-74v-289h74v-81h-81zM23 -222v81h74v74h80v-81h-74v-74h-80z" />
    <glyph glyph-name="Tcaron" unicode="&#x164;" horiz-adv-x="409" 
d="M164 0v518h-148v81h377v-81h-148v-518h-81zM164 668v74h-74v80h80v-74h67v74h81v-80h-74v-74h-80z" />
    <glyph glyph-name="tcaron" unicode="&#x165;" horiz-adv-x="427" 
d="M187 0v74h-73v296h-74v81h74v148h80v-148h74v-81h-74v-289h74v-81h-81zM293 444v81h74v74h81v-81h-74v-74h-81z" />
    <glyph glyph-name="Tbar" unicode="&#x166;" horiz-adv-x="407" 
d="M164 0v296h-69v81h69v141h-148v81h377v-81h-148v-141h79v-81h-79v-296h-81z" />
    <glyph glyph-name="tbar" unicode="&#x167;" horiz-adv-x="308" 
d="M187 0v74h-73v148h-74v81h74v67h-74v81h74v148h80v-148h74v-81h-74v-67h74v-81h-74v-141h74v-81h-81z" />
    <glyph glyph-name="Utilde" unicode="&#x168;" 
d="M114 0v74h-74v525h80v-518h215v518h81v-525h-74v-74h-228zM224 668v74h-67v-74h-80v80h74v74h80v-74h67v74h81v-80h-74v-74h-81z" />
    <glyph glyph-name="utilde" unicode="&#x169;" horiz-adv-x="378" 
d="M109 0v74h-74v377h81v-370h141v370h81v-451h-229zM186 520v74h-67v-74h-80v80h74v74h80v-74h67v74h81v-80h-74v-74h-81z" />
    <glyph glyph-name="Umacron" unicode="&#x16a;" 
d="M114 0v74h-74v525h80v-518h215v518h81v-525h-74v-74h-228zM77 668v80h302v-80h-302z" />
    <glyph glyph-name="umacron" unicode="&#x16b;" horiz-adv-x="378" 
d="M109 0v74h-74v377h81v-370h141v370h81v-451h-229zM39 520v80h302v-80h-302z" />
    <glyph glyph-name="Ubreve" unicode="&#x16c;" 
d="M114 0v74h-74v525h80v-518h215v518h81v-525h-74v-74h-228zM151 668v74h-74v80h80v-74h141v74h81v-80h-74v-74h-154z" />
    <glyph glyph-name="ubreve" unicode="&#x16d;" horiz-adv-x="378" 
d="M109 0v74h-74v377h81v-370h141v370h81v-451h-229zM113 520v74h-74v80h80v-74h141v74h81v-80h-74v-74h-154z" />
    <glyph glyph-name="Uring" unicode="&#x16e;" 
d="M114 0v74h-74v525h80v-518h215v518h81v-525h-74v-74h-228zM188 668v74h-74v80h74v74h80v-74h74v-80h-74v-74h-80zM261 816h-67v-68h67v68z" />
    <glyph glyph-name="uring" unicode="&#x16f;" horiz-adv-x="378" 
d="M109 0v74h-74v377h81v-370h141v370h81v-451h-229zM149 520v74h-74v80h74v74h80v-74h74v-80h-74v-74h-80zM222 668h-67v-68h67v68z" />
    <glyph glyph-name="Uhungarumlaut" unicode="&#x170;" 
d="M114 0v74h-74v525h80v-518h215v518h81v-525h-74v-74h-228zM261 668v80h74v148h81v-154h-74v-74h-81zM40 668v80h74v148h80v-154h-74v-74h-80z" />
    <glyph glyph-name="uhungarumlaut" unicode="&#x171;" horiz-adv-x="378" 
d="M109 0v74h-74v377h81v-370h141v370h81v-451h-229zM223 520v80h74v148h81v-154h-74v-74h-81zM2 520v80h74v148h80v-154h-74v-74h-80z" />
    <glyph glyph-name="Uogonek" unicode="&#x172;" 
d="M187 -222v74h-73v81h73v67h-73v74h-74v525h80v-518h215v518h81v-525h-74v-74h-74v-74h-74v-67h148v-81h-155z" />
    <glyph glyph-name="uogonek" unicode="&#x173;" horiz-adv-x="382" 
d="M187 -222v74h-73v81h73v67h-73v74h-74v377h80v-370h141v370h81v-451h-74v-74h-74v-67h148v-81h-155z" />
    <glyph glyph-name="Wcircumflex" unicode="&#x174;" horiz-adv-x="604" 
d="M335 0v148h-67v-148h-81v148h-73v222h-74v229h80v-222h74v-222h67v444h81v-444h67v222h74v222h81v-229h-74v-222h-74v-148h-81zM335 668v74h-67v-74h-80v80h74v74h80v-74h74v-80h-81z" />
    <glyph glyph-name="wcircumflex" unicode="&#x175;" horiz-adv-x="576" 
d="M319 0v148h-67v-148h-81v148h-74v148h-74v155h81v-148h74v-148h67v148h81v-148h67v148h74v148h81v-155h-74v-148h-74v-148h-81zM321 520v74h-67v-74h-80v80h74v74h80v-74h74v-80h-81z" />
    <glyph glyph-name="Ycircumflex" unicode="&#x176;" 
d="M187 0v370h-73v148h-74v81h80v-74h74v-148h67v148h74v74h81v-81h-74v-148h-74v-370h-81zM261 668v74h-67v-74h-80v80h74v74h80v-74h74v-80h-81z" />
    <glyph glyph-name="ycircumflex" unicode="&#x177;" horiz-adv-x="378" 
d="M109 -222v74h-74v81h81v-74h141v141h-148v74h-74v377h81v-370h141v370h81v-599h-74v-74h-155zM222 520v74h-67v-74h-80v80h74v74h80v-74h74v-80h-81z" />
    <glyph glyph-name="Ydieresis" unicode="&#x178;" 
d="M187 0v370h-73v148h-74v81h80v-74h74v-148h67v148h74v74h81v-81h-74v-148h-74v-370h-81zM114 668v80h80v-80h-80zM261 668v80h81v-80h-81z" />
    <glyph glyph-name="Zacute" unicode="&#x179;" horiz-adv-x="382" 
d="M40 0v155h74v148h73v148h74v67h-221v81h302v-155h-74v-148h-74v-148h-74v-67h222v-81h-302zM114 668v80h74v74h80v-80h-74v-74h-80z" />
    <glyph glyph-name="zacute" unicode="&#x17a;" horiz-adv-x="366" 
d="M30 0v155h74v74h74v74h74v67h-222v81h303v-155h-74v-74h-74v-74h-74v-67h222v-81h-303zM106 520v80h74v74h80v-80h-74v-74h-80z" />
    <glyph glyph-name="Zdotaccent" unicode="&#x17b;" horiz-adv-x="382" 
d="M40 0v155h74v148h73v148h74v67h-221v81h302v-155h-74v-148h-74v-148h-74v-67h222v-81h-302zM151 668v80h80v-80h-80z" />
    <glyph glyph-name="zdotaccent" unicode="&#x17c;" horiz-adv-x="366" 
d="M30 0v155h74v74h74v74h74v67h-222v81h303v-155h-74v-74h-74v-74h-74v-67h222v-81h-303zM143 520v80h80v-80h-80z" />
    <glyph glyph-name="Zcaron" unicode="&#x17d;" horiz-adv-x="382" 
d="M40 0v155h74v148h73v148h74v67h-221v81h302v-155h-74v-148h-74v-148h-74v-67h222v-81h-302zM151 668v74h-74v80h80v-74h67v74h81v-80h-74v-74h-80z" />
    <glyph glyph-name="zcaron" unicode="&#x17e;" horiz-adv-x="366" 
d="M30 0v155h74v74h74v74h74v67h-222v81h303v-155h-74v-74h-74v-74h-74v-67h222v-81h-303zM143 520v74h-74v80h80v-74h67v74h81v-80h-74v-74h-80z" />
    <glyph glyph-name="florin" unicode="&#x192;" 
d="M40 -148v81h74v74h73v289h-73v81h73v74h74v74h74v74h81v-81h-74v-74h-74v-67h148v-81h-148v-296h-74v-74h-74v-74h-80z" />
    <glyph glyph-name="Ohorn" unicode="&#x1a0;" horiz-adv-x="547" 
d="M114 0v74h-74v451h74v74h228v-74h67v74h74v74h81v-81h-74v-74h-74v-444h-74v-74h-228zM335 518h-215v-437h215v437z" />
    <glyph glyph-name="ohorn" unicode="&#x1a1;" horiz-adv-x="473" 
d="M114 0v74h-74v303h74v74h154v-74h67v74h74v74h81v-81h-74v-74h-74v-296h-74v-74h-154zM261 370h-141v-289h141v289z" />
    <glyph glyph-name="Uhorn" unicode="&#x1af;" horiz-adv-x="544" 
d="M114 0v74h-74v525h80v-518h215v518h148v74h81v-81h-74v-74h-74v-444h-74v-74h-228z" />
    <glyph glyph-name="uhorn" unicode="&#x1b0;" horiz-adv-x="475" 
d="M114 0v74h-74v377h80v-370h141v370h148v74h81v-81h-74v-74h-74v-370h-228z" />
    <glyph glyph-name="Scommaaccent" unicode="&#x218;" 
d="M114 0v74h-74v155h80v-148h215v215h-221v74h-74v155h74v74h228v-74h74v-81h-81v74h-215v-141h222v-74h74v-229h-74v-74h-228zM111 -222v81h74v74h80v-81h-74v-74h-80z" />
    <glyph glyph-name="scommaaccent" unicode="&#x219;" horiz-adv-x="372" 
d="M37 0v81h222v141h-148v74h-74v81h74v74h155v-81h-148v-67h148v-74h74v-155h-74v-74h-229zM59 -222v81h74v74h80v-81h-74v-74h-80z" />
    <glyph glyph-name="uni021A" unicode="&#x21a;" horiz-adv-x="409" 
d="M164 0v518h-148v81h377v-81h-148v-518h-81zM91 -222v81h74v74h80v-81h-74v-74h-80z" />
    <glyph glyph-name="uni021B" unicode="&#x21b;" horiz-adv-x="284" 
d="M171 0v74h-74v296h-74v81h74v148h81v-148h74v-81h-74v-289h74v-81h-81zM23 -222v81h74v74h80v-81h-74v-74h-80z" />
    <glyph glyph-name="circumflex" unicode="&#x2c6;" horiz-adv-x="308" 
d="M187 520v74h-67v-74h-80v80h74v74h80v-74h74v-80h-81z" />
    <glyph glyph-name="caron" unicode="&#x2c7;" horiz-adv-x="308" 
d="M114 520v74h-74v80h80v-74h67v74h81v-80h-74v-74h-80z" />
    <glyph glyph-name="uni02C9" unicode="&#x2c9;" horiz-adv-x="382" 
d="M40 520v80h302v-80h-302z" />
    <glyph glyph-name="breve" unicode="&#x2d8;" horiz-adv-x="382" 
d="M114 520v74h-74v80h80v-74h141v74h81v-80h-74v-74h-154z" />
    <glyph glyph-name="dotaccent" unicode="&#x2d9;" horiz-adv-x="160" 
d="M40 520v80h80v-80h-80z" />
    <glyph glyph-name="ring" unicode="&#x2da;" horiz-adv-x="308" 
d="M114 520v74h-74v80h74v74h80v-74h74v-80h-74v-74h-80zM187 668h-67v-68h67v68z" />
    <glyph glyph-name="ogonek" unicode="&#x2db;" horiz-adv-x="308" 
d="M114 -222v74h-74v81h74v74h80v-81h-74v-67h148v-81h-154z" />
    <glyph glyph-name="tilde" unicode="&#x2dc;" horiz-adv-x="382" 
d="M187 520v74h-67v-74h-80v80h74v74h80v-74h67v74h81v-80h-74v-74h-81z" />
    <glyph glyph-name="hungarumlaut" unicode="&#x2dd;" 
d="M231 520v80h74v148h81v-154h-74v-74h-81zM10 520v80h74v148h80v-154h-74v-74h-80z" />
    <glyph glyph-name="tildecomb" unicode="&#x303;" horiz-adv-x="308" 
d="M187 520v74h-67v-74h-80v80h74v74h80v-74h74v-80h-81zM40 742v80h228v-80h-228z" />
    <glyph glyph-name="hookabovecomb" unicode="&#x309;" horiz-adv-x="308" 
d="M114 520v80h73v68h-147v80h154v-74h74v-80h-74v-74h-80z" />
    <glyph glyph-name="dotbelowcomb" unicode="&#x323;" horiz-adv-x="160" 
d="M40 -203v80h80v-80h-80z" />
    <glyph glyph-name="commaaccent" unicode="&#x326;" horiz-adv-x="234" 
d="M40 -222v81h74v74h80v-81h-74v-74h-80z" />
    <glyph glyph-name="uni037E" unicode="&#x37e;" horiz-adv-x="234" 
d="M40 -148v81h74v148h80v-155h-74v-74h-80zM114 296v81h80v-81h-80z" />
    <glyph glyph-name="tonos" unicode="&#x384;" horiz-adv-x="160" 
d="M40 576v154h80v-154h-80z" />
    <glyph glyph-name="dieresistonos" unicode="&#x385;" 
d="M187 576v154h81v-154h-81zM335 576v80h81v-80h-81zM40 576v80h80v-80h-80z" />
    <glyph glyph-name="Alphatonos" unicode="&#x386;" horiz-adv-x="530" 
d="M409 0v222h-289v-222h-80v229h74v222h73v148h155v-148h74v-222h74v-229h-81zM335 444h-141v-141h141v141zM2 576v154h80v-154h-80z" />
    <glyph glyph-name="Epsilontonos" unicode="&#x388;" horiz-adv-x="493" 
d="M156 0v599h302v-81h-222v-141h222v-81h-222v-215h222v-81h-302zM1 576v154h80v-154h-80z" />
    <glyph glyph-name="Etatonos" unicode="&#x389;" horiz-adv-x="561" 
d="M440 0v296h-215v-296h-80v599h80v-222h215v222h81v-599h-81zM2 576v154h80v-154h-80z" />
    <glyph glyph-name="Iotatonos" unicode="&#x38a;" horiz-adv-x="263" 
d="M143 0v599h80v-599h-80zM1 576v154h80v-154h-80z" />
    <glyph glyph-name="Omicrontonos" unicode="&#x38c;" horiz-adv-x="536" 
d="M194 0v74h-74v451h74v74h228v-74h74v-451h-74v-74h-228zM415 518h-215v-437h215v437zM1 576v154h80v-154h-80z" />
    <glyph glyph-name="Upsilontonos" unicode="&#x38e;" horiz-adv-x="551" 
d="M282 0v370h-73v148h-74v81h80v-74h74v-148h67v148h74v74h81v-81h-74v-148h-74v-370h-81zM1 576v154h80v-154h-80z" />
    <glyph glyph-name="Omegatonos" unicode="&#x38f;" horiz-adv-x="513" 
d="M318 0v229h74v289h-215v-289h74v-229h-154v81h74v141h-74v303h74v74h228v-74h74v-303h-74v-141h74v-81h-155zM1 576v154h80v-154h-80z" />
    <glyph glyph-name="iotadieresistonos" unicode="&#x390;" horiz-adv-x="169" 
d="M45 0v451h81v-451h-81zM45 576v154h81v-154h-81zM193 576v80h81v-80h-81zM-102 576v80h80v-80h-80z" />
    <glyph glyph-name="Alpha" unicode="&#x391;" horiz-adv-x="530" 
d="M409 0v222h-289v-222h-80v229h74v222h73v148h155v-148h74v-222h74v-229h-81zM335 444h-141v-141h141v141z" />
    <glyph glyph-name="Beta" unicode="&#x392;" 
d="M40 0v599h302v-74h74v-155h-74v-67h74v-229h-74v-74h-302zM335 518h-215v-141h215v141zM335 296h-215v-215h215v215z" />
    <glyph glyph-name="Gamma" unicode="&#x393;" horiz-adv-x="365" 
d="M40 0v599h302v-81h-222v-518h-80z" />
    <glyph glyph-name="Delta" unicode="&#x394;" horiz-adv-x="530" 
d="M40 0v229h74v222h73v148h155v-148h74v-222h74v-229h-450zM409 222h-74v222h-141v-222h-74v-141h289v141z" />
    <glyph glyph-name="Epsilon" unicode="&#x395;" horiz-adv-x="377" 
d="M40 0v599h302v-81h-222v-141h222v-81h-222v-215h222v-81h-302z" />
    <glyph glyph-name="Zeta" unicode="&#x396;" horiz-adv-x="382" 
d="M40 0v155h74v148h73v148h74v67h-221v81h302v-155h-74v-148h-74v-148h-74v-67h222v-81h-302z" />
    <glyph glyph-name="Eta" unicode="&#x397;" 
d="M335 0v296h-215v-296h-80v599h80v-222h215v222h81v-599h-81z" />
    <glyph glyph-name="Theta" unicode="&#x398;" 
d="M114 0v74h-74v451h74v74h228v-74h74v-451h-74v-74h-228zM335 296h-215v-215h215v215zM335 518h-215v-141h215v141z" />
    <glyph glyph-name="Iota" unicode="&#x399;" horiz-adv-x="160" 
d="M40 0v599h80v-599h-80z" />
    <glyph glyph-name="Kappa" unicode="&#x39a;" horiz-adv-x="438" 
d="M335 0v74h-74v148h-74v148h-67v-370h-80v599h80v-148h67v74h74v74h81v-81h-74v-74h-74v-67h74v-148h74v-148h74v-81h-81z" />
    <glyph glyph-name="Lambda" unicode="&#x39b;" horiz-adv-x="517" 
d="M402 0v222h-73v222h-142v-222h-73v-222h-81v229h74v222h74v148h154v-148h74v-222h74v-229h-81z" />
    <glyph glyph-name="Mu" unicode="&#x39c;" horiz-adv-x="604" 
d="M483 0v296h-72v-148h-69v-148h-81v148h-74v148h-67v-296h-80v599h80v-148h74v-148h74v-148h67v148h74v148h74v148h81v-599h-81z" />
    <glyph glyph-name="Nu" unicode="&#x39d;" 
d="M335 0v74h-74v148h-74v148h-67v-370h-80v599h80v-74h74v-148h74v-148h67v370h81v-599h-81z" />
    <glyph glyph-name="Xi" unicode="&#x39e;" 
d="M40 518v81h376v-81h-376zM40 0v81h376v-81h-376zM40 296v81h376v-81h-376z" />
    <glyph glyph-name="Omicron" unicode="&#x39f;" 
d="M114 0v74h-74v451h74v74h228v-74h74v-451h-74v-74h-228zM335 518h-215v-437h215v437z" />
    <glyph glyph-name="Pi" unicode="&#x3a0;" 
d="M335 0v518h-215v-518h-80v599h376v-599h-81z" />
    <glyph glyph-name="Rho" unicode="&#x3a1;" 
d="M40 0v599h302v-74h74v-155h-74v-74h-222v-296h-80zM335 518h-215v-141h215v141z" />
    <glyph glyph-name="Sigma" unicode="&#x3a3;" horiz-adv-x="378" 
d="M40 0v229h74v74h73v67h-73v74h-74v155h302v-81h-222v-67h74v-74h74v-81h-74v-74h-74v-141h222v-81h-302z" />
    <glyph glyph-name="Tau" unicode="&#x3a4;" horiz-adv-x="409" 
d="M164 0v518h-148v81h377v-81h-148v-518h-81z" />
    <glyph glyph-name="Upsilon" unicode="&#x3a5;" 
d="M187 0v370h-73v148h-74v81h80v-74h74v-148h67v148h74v74h81v-81h-74v-148h-74v-370h-81z" />
    <glyph glyph-name="Phi" unicode="&#x3a6;" horiz-adv-x="581" 
d="M249 0v149h-148v74h-73v302h73v74h377v-74h74v-302h-74v-74h-148v-149h-81zM471 519h-141v-289h141v289zM249 519h-141v-289h141v289z" />
    <glyph glyph-name="Chi" unicode="&#x3a7;" 
d="M335 0v148h-74v148h-67v-148h-74v-148h-80v155h74v148h73v67h-73v148h-74v81h80v-74h74v-148h67v148h74v74h81v-81h-74v-148h-74v-67h74v-148h74v-155h-81z" />
    <glyph glyph-name="Psi" unicode="&#x3a8;" 
d="M187 0v148h-73v74h-74v377h80v-370h67v370h81v-370h67v370h81v-377h-74v-74h-74v-148h-81z" />
    <glyph glyph-name="Omega" unicode="&#x3a9;" 
d="M261 0v229h74v289h-215v-289h74v-229h-154v81h74v141h-74v303h74v74h228v-74h74v-303h-74v-141h74v-81h-155z" />
    <glyph glyph-name="Iotadieresis" unicode="&#x3aa;" horiz-adv-x="160" 
d="M40 0v599h80v-599h-80zM-33 668v80h80v-80h-80zM114 668v80h81v-80h-81z" />
    <glyph glyph-name="Upsilondieresis" unicode="&#x3ab;" 
d="M187 0v370h-73v148h-74v81h80v-74h74v-148h67v148h74v74h81v-81h-74v-148h-74v-370h-81zM114 668v80h80v-80h-80zM261 668v80h81v-80h-81z" />
    <glyph glyph-name="alphatonos" unicode="&#x3ac;" horiz-adv-x="442" 
d="M329 0v74h-68v-74h-154v74h-74v155h74v74h148v67h-148v81h154v-74h74v-296h74v-81h-80zM255 222h-141v-141h141v141zM181 576v154h80v-154h-80z" />
    <glyph glyph-name="epsilontonos" unicode="&#x3ad;" horiz-adv-x="368" 
d="M108 0v74h-74v155h74v67h-74v81h74v74h155v-74h74v-81h-81v74h-141v-67h74v-81h-74v-141h141v74h81v-81h-74v-74h-155zM144 576v154h80v-154h-80z" />
    <glyph glyph-name="etatonos" unicode="&#x3ae;" horiz-adv-x="380" 
d="M261 0v370h-141v-370h-80v451h228v-74h74v-377h-81zM150 576v154h80v-154h-80z" />
    <glyph glyph-name="iotatonos" unicode="&#x3af;" horiz-adv-x="169" 
d="M45 0v451h81v-451h-81zM44 576v154h80v-154h-80z" />
    <glyph glyph-name="upsilondieresistonos" unicode="&#x3b0;" horiz-adv-x="382" 
d="M114 0v74h-74v377h80v-370h141v370h81v-377h-74v-74h-154zM151 576v154h81v-154h-81zM299 576v80h81v-80h-81zM4 576v80h80v-80h-80z" />
    <glyph glyph-name="alpha" unicode="&#x3b1;" horiz-adv-x="443" 
d="M329 0v74h-68v-74h-154v74h-74v303h74v74h154v-74h68v74h80v-81h-74v-289h74v-81h-80zM255 370h-141v-289h141v289z" />
    <glyph glyph-name="beta" unicode="&#x3b2;" horiz-adv-x="382" 
d="M187 0v81h74v215h-74v81h74v141h-141v-518h-80v525h74v74h154v-74h74v-155h-74v-67h74v-229h-74v-74h-81z" />
    <glyph glyph-name="gamma" unicode="&#x3b3;" horiz-adv-x="438" 
d="M179 -222v370h-74v148h-74v155h81v-148h74v-148h67v148h74v148h81v-155h-74v-148h-74v-370h-81z" />
    <glyph glyph-name="delta" unicode="&#x3b4;" horiz-adv-x="483" 
d="M164 0v80h-74v149h68v148h80v67h-141v-74h-81v81h74v74h229v-74h67v74h81v-81h-74v-370h-74v-74h-155zM312 370h-67v-148h-80v-141h147v289z" />
    <glyph glyph-name="epsilon" unicode="&#x3b5;" horiz-adv-x="368" 
d="M108 0v74h-74v155h74v67h-74v81h74v74h155v-74h74v-81h-81v74h-141v-67h74v-81h-74v-141h141v74h81v-81h-74v-74h-155z" />
    <glyph glyph-name="zeta" unicode="&#x3b6;" horiz-adv-x="378" 
d="M184 -222v81h74v141h-148v74h-74v229h74v74h74v74h74v67h-222v81h303v-155h-74v-74h-74v-74h-74v-215h222v-229h-74v-74h-81z" />
    <glyph glyph-name="eta" unicode="&#x3b7;" horiz-adv-x="380" 
d="M261 0v370h-141v-370h-80v451h228v-74h74v-377h-81z" />
    <glyph glyph-name="theta" unicode="&#x3b8;" horiz-adv-x="382" 
d="M114 0v74h-74v451h74v74h154v-74h74v-451h-74v-74h-154zM261 296h-141v-215h141v215zM261 518h-141v-141h141v141z" />
    <glyph glyph-name="iota" unicode="&#x3b9;" horiz-adv-x="169" 
d="M45 0v451h81v-451h-81z" />
    <glyph glyph-name="kappa" unicode="&#x3ba;" horiz-adv-x="373" 
d="M261 0v74h-74v74h-67v-156h-80v459h80v-148h67v74h74v74h81v-81h-74v-74h-74v-141h74v-74h74v-81h-81z" />
    <glyph glyph-name="lambda" unicode="&#x3bb;" horiz-adv-x="382" 
d="M261 0v296h-141v-296h-80v303h74v74h147v141h-141v-74h-80v81h74v74h154v-74h74v-525h-81z" />
    <glyph glyph-name="mu" unicode="&#x3bc;" horiz-adv-x="382" 
d="M120 0v-222h-80v673h80v-370h141v370h81v-451h-222z" />
    <glyph glyph-name="nu" unicode="&#x3bd;" horiz-adv-x="430" 
d="M171 0v148h-74v148h-74v155h81v-148h74v-148h67v148h74v148h81v-155h-74v-148h-74v-148h-81z" />
    <glyph glyph-name="xi" unicode="&#x3be;" horiz-adv-x="382" 
d="M187 -148v81h74v67h-147v74h-74v229h74v67h-74v155h74v74h154v-74h74v-81h-81v74h-141v-141h148v-81h-148v-215h222v-155h-74v-74h-81z" />
    <glyph glyph-name="omicron" unicode="&#x3bf;" horiz-adv-x="373" 
d="M109 0v74h-74v303h74v74h155v-74h74v-303h-74v-74h-155zM257 370h-141v-289h141v289z" />
    <glyph glyph-name="pi" unicode="&#x3c0;" horiz-adv-x="382" 
d="M261 0v370h-141v-370h-80v451h302v-451h-81z" />
    <glyph glyph-name="rho" unicode="&#x3c1;" horiz-adv-x="382" 
d="M40 -222v599h74v74h154v-74h74v-303h-74v-74h-148v-222h-80zM261 370h-141v-289h141v289z" />
    <glyph glyph-name="sigma1" unicode="&#x3c2;" horiz-adv-x="382" 
d="M187 -148v81h74v67h-147v74h-74v303h74v74h154v-74h74v-81h-81v74h-141v-289h222v-155h-74v-74h-81z" />
    <glyph glyph-name="sigma" unicode="&#x3c3;" horiz-adv-x="420" 
d="M114 0v74h-74v303h74v74h302v-81h-74v-296h-74v-74h-154zM261 370h-141v-289h141v289z" />
    <glyph glyph-name="tau" unicode="&#x3c4;" horiz-adv-x="402" 
d="M161 0v370h-148v81h377v-81h-148v-370h-81z" />
    <glyph glyph-name="upsilon" unicode="&#x3c5;" horiz-adv-x="382" 
d="M114 0v74h-74v377h80v-370h141v370h81v-377h-74v-74h-154z" />
    <glyph glyph-name="phi" unicode="&#x3c6;" 
d="M187 -222v222h-73v74h-74v303h74v74h228v-74h74v-303h-74v-74h-74v-222h-81zM187 370h-67v-289h67v289zM335 370h-67v-289h67v289z" />
    <glyph glyph-name="chi" unicode="&#x3c7;" horiz-adv-x="382" 
d="M261 0v222h-141v-222h-80v229h74v67h-74v155h80v-148h141v148h81v-155h-74v-67h74v-229h-81z" />
    <glyph glyph-name="psi" unicode="&#x3c8;" 
d="M187 -222v222h-73v74h-74v377h80v-370h67v370h81v-370h67v370h81v-377h-74v-74h-74v-222h-81z" />
    <glyph glyph-name="omega" unicode="&#x3c9;" 
d="M261 0v74h-67v-74h-80v74h-74v377h80v-370h67v370h81v-370h67v370h81v-377h-74v-74h-81z" />
    <glyph glyph-name="iotadieresis" unicode="&#x3ca;" horiz-adv-x="169" 
d="M45 0v451h81v-451h-81zM-28 520v80h80v-80h-80zM119 520v80h81v-80h-81z" />
    <glyph glyph-name="upsilondieresis" unicode="&#x3cb;" horiz-adv-x="382" 
d="M114 0v74h-74v377h80v-370h141v370h81v-377h-74v-74h-154zM77 520v80h80v-80h-80zM224 520v80h81v-80h-81z" />
    <glyph glyph-name="omicrontonos" unicode="&#x3cc;" horiz-adv-x="373" 
d="M109 0v74h-74v303h74v74h155v-74h74v-303h-74v-74h-155zM257 370h-141v-289h141v289zM146 576v154h80v-154h-80z" />
    <glyph glyph-name="upsilontonos" unicode="&#x3cd;" horiz-adv-x="382" 
d="M114 0v74h-74v377h80v-370h141v370h81v-377h-74v-74h-154zM151 576v154h80v-154h-80z" />
    <glyph glyph-name="omegatonos" unicode="&#x3ce;" 
d="M261 0v74h-67v-74h-80v74h-74v377h80v-370h67v370h81v-370h67v370h81v-377h-74v-74h-81zM188 576v154h80v-154h-80z" />
    <glyph glyph-name="Wgrave" unicode="&#x1e80;" horiz-adv-x="604" 
d="M335 0v148h-67v-148h-81v148h-73v222h-74v229h80v-222h74v-222h67v444h81v-444h67v222h74v222h81v-229h-74v-222h-74v-148h-81zM299 668v74h-74v80h80v-74h74v-80h-80z" />
    <glyph glyph-name="wgrave" unicode="&#x1e81;" horiz-adv-x="576" 
d="M319 0v148h-67v-148h-81v148h-74v148h-74v155h81v-148h74v-148h67v148h81v-148h67v148h74v148h81v-155h-74v-148h-74v-148h-81zM285 520v74h-74v80h80v-74h74v-80h-80z" />
    <glyph glyph-name="Wacute" unicode="&#x1e82;" horiz-adv-x="604" 
d="M335 0v148h-67v-148h-81v148h-73v222h-74v229h80v-222h74v-222h67v444h81v-444h67v222h74v222h81v-229h-74v-222h-74v-148h-81zM225 668v80h74v74h80v-80h-74v-74h-80z" />
    <glyph glyph-name="wacute" unicode="&#x1e83;" horiz-adv-x="576" 
d="M319 0v148h-67v-148h-81v148h-74v148h-74v155h81v-148h74v-148h67v148h81v-148h67v148h74v148h81v-155h-74v-148h-74v-148h-81zM211 520v80h74v74h80v-80h-74v-74h-80z" />
    <glyph glyph-name="Wdieresis" unicode="&#x1e84;" horiz-adv-x="604" 
d="M335 0v148h-67v-148h-81v148h-73v222h-74v229h80v-222h74v-222h67v444h81v-444h67v222h74v222h81v-229h-74v-222h-74v-148h-81zM188 668v80h80v-80h-80zM335 668v80h81v-80h-81z" />
    <glyph glyph-name="wdieresis" unicode="&#x1e85;" horiz-adv-x="576" 
d="M319 0v148h-67v-148h-81v148h-74v148h-74v155h81v-148h74v-148h67v148h81v-148h67v148h74v148h81v-155h-74v-148h-74v-148h-81zM174 520v80h80v-80h-80zM321 520v80h81v-80h-81z" />
    <glyph glyph-name="uni1EA0" unicode="&#x1ea0;" horiz-adv-x="530" 
d="M409 0v222h-289v-222h-80v229h74v222h73v148h155v-148h74v-222h74v-229h-81zM335 444h-141v-141h141v141zM225 -203v80h80v-80h-80z" />
    <glyph glyph-name="uni1EA1" unicode="&#x1ea1;" horiz-adv-x="442" 
d="M329 0v74h-68v-74h-154v74h-74v155h74v74h148v67h-148v81h154v-74h74v-296h74v-81h-80zM255 222h-141v-141h141v141zM181 -203v80h80v-80h-80z" />
    <glyph glyph-name="uni1EA2" unicode="&#x1ea2;" horiz-adv-x="530" 
d="M409 0v222h-289v-222h-80v229h74v222h73v148h155v-148h74v-222h74v-229h-81zM335 444h-141v-141h141v141zM225 668v80h73v68h-147v80h154v-74h74v-80h-74v-74h-80z" />
    <glyph glyph-name="uni1EA3" unicode="&#x1ea3;" horiz-adv-x="442" 
d="M329 0v74h-68v-74h-154v74h-74v155h74v74h148v67h-148v81h154v-74h74v-296h74v-81h-80zM255 222h-141v-141h141v141zM181 520v80h73v68h-147v80h154v-74h74v-80h-74v-74h-80z" />
    <glyph glyph-name="uni1EA4" unicode="&#x1ea4;" horiz-adv-x="530" 
d="M409 0v222h-289v-222h-80v229h74v222h73v148h155v-148h74v-222h74v-229h-81zM335 444h-141v-141h141v141zM298 668v74h-67v-74h-80v80h74v74h80v-74h74v-80h-81zM446 668v80h74v74h81v-80h-74v-74h-81z" />
    <glyph glyph-name="uni1EA5" unicode="&#x1ea5;" horiz-adv-x="442" 
d="M329 0v74h-68v-74h-154v74h-74v155h74v74h148v67h-148v81h154v-74h74v-296h74v-81h-80zM255 222h-141v-141h141v141zM219 520v74h-67v-74h-80v80h74v74h80v-74h74v-80h-81zM367 520v80h74v74h81v-80h-74v-74h-81z" />
    <glyph glyph-name="uni1EA6" unicode="&#x1ea6;" horiz-adv-x="530" 
d="M409 0v222h-289v-222h-80v229h74v222h73v148h155v-148h74v-222h74v-229h-81zM335 444h-141v-141h141v141zM303 668v74h-67v-74h-81v80h74v74h81v-74h74v-80h-81zM8 668v74h-74v80h80v-74h74v-80h-80z" />
    <glyph glyph-name="uni1EA7" unicode="&#x1ea7;" horiz-adv-x="442" 
d="M329 0v74h-68v-74h-154v74h-74v155h74v74h148v67h-148v81h154v-74h74v-296h74v-81h-80zM255 222h-141v-141h141v141zM229 520v74h-67v-74h-81v80h74v74h81v-74h74v-80h-81zM-66 520v74h-74v80h80v-74h74v-80h-80z" />
    <glyph glyph-name="uni1EA8" unicode="&#x1ea8;" horiz-adv-x="530" 
d="M409 0v222h-289v-222h-80v229h74v222h73v148h155v-148h74v-222h74v-229h-81zM335 444h-141v-141h141v141zM445 668v80h74v68h-148v80h155v-74h74v-80h-74v-74h-81zM297 668v74h-67v-74h-80v80h74v74h80v-74h74v-80h-81z" />
    <glyph glyph-name="uni1EA9" unicode="&#x1ea9;" horiz-adv-x="442" 
d="M329 0v74h-68v-74h-154v74h-74v155h74v74h148v67h-148v81h154v-74h74v-296h74v-81h-80zM255 222h-141v-141h141v141zM365 520v80h74v68h-148v80h155v-74h74v-80h-74v-74h-81zM217 520v74h-67v-74h-80v80h74v74h80v-74h74v-80h-81z" />
    <glyph glyph-name="uni1EAA" unicode="&#x1eaa;" horiz-adv-x="530" 
d="M409 0v222h-289v-222h-80v229h74v222h73v148h155v-148h74v-222h74v-229h-81zM335 444h-141v-141h141v141zM298 668v74h-67v-74h-80v80h74v74h80v-74h74v-80h-81zM151 890v80h228v-80h-228z" />
    <glyph glyph-name="uni1EAB" unicode="&#x1eab;" horiz-adv-x="442" 
d="M329 0v74h-68v-74h-154v74h-74v155h74v74h148v67h-148v81h154v-74h74v-296h74v-81h-80zM255 222h-141v-141h141v141zM226 520v74h-67v-74h-80v80h74v74h80v-74h74v-80h-81zM79 742v80h228v-80h-228z" />
    <glyph glyph-name="uni1EAC" unicode="&#x1eac;" horiz-adv-x="530" 
d="M409 0v222h-289v-222h-80v229h74v222h73v148h155v-148h74v-222h74v-229h-81zM335 444h-141v-141h141v141zM298 668v74h-67v-74h-80v80h74v74h80v-74h74v-80h-81zM225 -203v80h80v-80h-80z" />
    <glyph glyph-name="uni1EAD" unicode="&#x1ead;" horiz-adv-x="442" 
d="M329 0v74h-68v-74h-154v74h-74v155h74v74h148v67h-148v81h154v-74h74v-296h74v-81h-80zM255 222h-141v-141h141v141zM237 520v74h-67v-74h-80v80h74v74h80v-74h74v-80h-81zM181 -203v80h80v-80h-80z" />
    <glyph glyph-name="uni1EAE" unicode="&#x1eae;" horiz-adv-x="530" 
d="M409 0v222h-289v-222h-80v229h74v222h73v148h155v-148h74v-222h74v-229h-81zM335 444h-141v-141h141v141zM188 668v74h-74v80h74v74h73v74h81v-80h-74v-74h-74v-68h141v74h81v-80h-74v-74h-154z" />
    <glyph glyph-name="uni1EAF" unicode="&#x1eaf;" horiz-adv-x="442" 
d="M329 0v74h-68v-74h-154v74h-74v155h74v74h148v67h-148v81h154v-74h74v-296h74v-81h-80zM255 222h-141v-141h141v141zM114 520v74h-74v80h74v74h73v74h81v-80h-74v-74h-74v-68h141v74h81v-80h-74v-74h-154z" />
    <glyph glyph-name="uni1EB0" unicode="&#x1eb0;" horiz-adv-x="530" 
d="M409 0v222h-289v-222h-80v229h74v222h73v148h155v-148h74v-222h74v-229h-81zM335 444h-141v-141h141v141zM188 668v74h-74v80h80v-74h141v68h-74v74h-73v80h80v-74h74v-74h74v-80h-74v-74h-154z" />
    <glyph glyph-name="uni1EB1" unicode="&#x1eb1;" horiz-adv-x="442" 
d="M329 0v74h-68v-74h-154v74h-74v155h74v74h148v67h-148v81h154v-74h74v-296h74v-81h-80zM255 222h-141v-141h141v141zM107 520v74h-74v80h80v-74h141v68h-74v74h-73v80h80v-74h74v-74h74v-80h-74v-74h-154z" />
    <glyph glyph-name="uni1EB2" unicode="&#x1eb2;" horiz-adv-x="530" 
d="M409 0v222h-289v-222h-80v229h74v222h73v148h155v-148h74v-222h74v-229h-81zM335 444h-141v-141h141v141zM188 668v74h-74v80h80v-74h141v68h-74v74h-73v80h154v-148h74v-80h-74v-74h-154z" />
    <glyph glyph-name="uni1EB3" unicode="&#x1eb3;" horiz-adv-x="442" 
d="M329 0v74h-68v-74h-154v74h-74v155h74v74h148v67h-148v81h154v-74h74v-296h74v-81h-80zM255 222h-141v-141h141v141zM112 520v74h-74v80h80v-74h141v68h-74v74h-73v80h154v-148h74v-80h-74v-74h-154z" />
    <glyph glyph-name="uni1EB4" unicode="&#x1eb4;" horiz-adv-x="530" 
d="M409 0v222h-289v-222h-80v229h74v222h73v148h155v-148h74v-222h74v-229h-81zM335 444h-141v-141h141v141zM188 668v74h-74v80h80v-74h141v74h81v-80h-74v-74h-154zM114 890v80h302v-80h-302z" />
    <glyph glyph-name="uni1EB5" unicode="&#x1eb5;" horiz-adv-x="442" 
d="M329 0v74h-68v-74h-154v74h-74v155h74v74h148v67h-148v81h154v-74h74v-296h74v-81h-80zM255 222h-141v-141h141v141zM108 520v74h-74v80h80v-74h141v74h81v-80h-74v-74h-154zM34 742v80h302v-80h-302z" />
    <glyph glyph-name="uni1EB6" unicode="&#x1eb6;" horiz-adv-x="530" 
d="M409 0v222h-289v-222h-80v229h74v222h73v148h155v-148h74v-222h74v-229h-81zM335 444h-141v-141h141v141zM188 668v74h-74v80h80v-74h141v74h81v-80h-74v-74h-154zM225 -203v80h80v-80h-80z" />
    <glyph glyph-name="uni1EB7" unicode="&#x1eb7;" horiz-adv-x="442" 
d="M329 0v74h-68v-74h-154v74h-74v155h74v74h148v67h-148v81h154v-74h74v-296h74v-81h-80zM255 222h-141v-141h141v141zM110 520v74h-74v80h80v-74h141v74h81v-80h-74v-74h-154zM181 -203v80h80v-80h-80z" />
    <glyph glyph-name="uni1EB8" unicode="&#x1eb8;" horiz-adv-x="377" 
d="M40 0v599h302v-81h-222v-141h222v-81h-222v-215h222v-81h-302zM151 -203v80h80v-80h-80z" />
    <glyph glyph-name="uni1EB9" unicode="&#x1eb9;" horiz-adv-x="382" 
d="M114 0v74h-74v303h74v74h154v-74h74v-155h-222v-141h141v74h81v-81h-74v-74h-154zM261 370h-141v-67h141v67zM151 -203v80h80v-80h-80z" />
    <glyph glyph-name="uni1EBA" unicode="&#x1eba;" horiz-adv-x="377" 
d="M40 0v599h302v-81h-222v-141h222v-81h-222v-215h222v-81h-302zM144 668v80h73v68h-147v80h154v-74h74v-80h-74v-74h-80z" />
    <glyph glyph-name="uni1EBB" unicode="&#x1ebb;" horiz-adv-x="382" 
d="M114 0v74h-74v303h74v74h154v-74h74v-155h-222v-141h141v74h81v-81h-74v-74h-154zM261 370h-141v-67h141v67zM144 520v80h73v68h-147v80h154v-74h74v-80h-74v-74h-80z" />
    <glyph glyph-name="uni1EBC" unicode="&#x1ebc;" horiz-adv-x="377" 
d="M40 0v599h302v-81h-222v-141h222v-81h-222v-215h222v-81h-302zM204 668v74h-67v-74h-80v80h74v74h80v-74h67v74h81v-80h-74v-74h-81z" />
    <glyph glyph-name="uni1EBD" unicode="&#x1ebd;" horiz-adv-x="382" 
d="M114 0v74h-74v303h74v74h154v-74h74v-155h-222v-141h141v74h81v-81h-74v-74h-154zM261 370h-141v-67h141v67zM187 520v74h-67v-74h-80v80h74v74h80v-74h67v74h81v-80h-74v-74h-81z" />
    <glyph glyph-name="uni1EBE" unicode="&#x1ebe;" horiz-adv-x="377" 
d="M40 0v599h302v-81h-222v-141h222v-81h-222v-215h222v-81h-302zM224 668v74h-67v-74h-80v80h74v74h80v-74h74v-80h-81zM372 668v80h74v74h81v-80h-74v-74h-81z" />
    <glyph glyph-name="uni1EBF" unicode="&#x1ebf;" horiz-adv-x="382" 
d="M114 0v74h-74v303h74v74h154v-74h74v-155h-222v-141h141v74h81v-81h-74v-74h-154zM261 370h-141v-67h141v67zM222 520v74h-67v-74h-80v80h74v74h80v-74h74v-80h-81zM370 520v80h74v74h81v-80h-74v-74h-81z" />
    <glyph glyph-name="uni1EC0" unicode="&#x1ec0;" horiz-adv-x="377" 
d="M40 0v599h302v-81h-222v-141h222v-81h-222v-215h222v-81h-302zM231 668v74h-67v-74h-81v80h74v74h81v-74h74v-80h-81zM-64 668v74h-74v80h80v-74h74v-80h-80z" />
    <glyph glyph-name="uni1EC1" unicode="&#x1ec1;" horiz-adv-x="382" 
d="M114 0v74h-74v303h74v74h154v-74h74v-155h-222v-141h141v74h81v-81h-74v-74h-154zM261 370h-141v-67h141v67zM231 520v74h-67v-74h-81v80h74v74h81v-74h74v-80h-81zM-64 520v74h-74v80h80v-74h74v-80h-80z" />
    <glyph glyph-name="uni1EC2" unicode="&#x1ec2;" horiz-adv-x="377" 
d="M40 0v599h302v-81h-222v-141h222v-81h-222v-215h222v-81h-302zM380 668v80h74v68h-148v80h155v-74h74v-80h-74v-74h-81zM232 668v74h-67v-74h-80v80h74v74h80v-74h74v-80h-81z" />
    <glyph glyph-name="uni1EC3" unicode="&#x1ec3;" horiz-adv-x="382" 
d="M114 0v74h-74v303h74v74h154v-74h74v-155h-222v-141h141v74h81v-81h-74v-74h-154zM261 370h-141v-67h141v67zM373 520v80h74v68h-148v80h155v-74h74v-80h-74v-74h-81zM225 520v74h-67v-74h-80v80h74v74h80v-74h74v-80h-81z" />
    <glyph glyph-name="uni1EC4" unicode="&#x1ec4;" horiz-adv-x="377" 
d="M40 0v599h302v-81h-222v-141h222v-81h-222v-215h222v-81h-302zM230 668v74h-67v-74h-80v80h74v74h80v-74h74v-80h-81zM83 890v80h228v-80h-228z" />
    <glyph glyph-name="uni1EC5" unicode="&#x1ec5;" horiz-adv-x="382" 
d="M114 0v74h-74v303h74v74h154v-74h74v-155h-222v-141h141v74h81v-81h-74v-74h-154zM261 370h-141v-67h141v67zM224 520v74h-67v-74h-80v80h74v74h80v-74h74v-80h-81zM77 742v80h228v-80h-228z" />
    <glyph glyph-name="uni1EC6" unicode="&#x1ec6;" horiz-adv-x="377" 
d="M40 0v599h302v-81h-222v-141h222v-81h-222v-215h222v-81h-302zM217 668v74h-67v-74h-80v80h74v74h80v-74h74v-80h-81zM148 -203v80h80v-80h-80z" />
    <glyph glyph-name="uni1EC7" unicode="&#x1ec7;" horiz-adv-x="382" 
d="M114 0v74h-74v303h74v74h154v-74h74v-155h-222v-141h141v74h81v-81h-74v-74h-154zM261 370h-141v-67h141v67zM224 520v74h-67v-74h-80v80h74v74h80v-74h74v-80h-81zM151 -203v80h80v-80h-80z" />
    <glyph glyph-name="uni1EC8" unicode="&#x1ec8;" horiz-adv-x="160" 
d="M40 0v599h80v-599h-80zM41 668v80h73v68h-147v80h154v-74h74v-80h-74v-74h-80z" />
    <glyph glyph-name="uni1EC9" unicode="&#x1ec9;" horiz-adv-x="169" 
d="M45 0v451h81v-451h-81zM46 520v80h73v68h-147v80h154v-74h74v-80h-74v-74h-80z" />
    <glyph glyph-name="uni1ECA" unicode="&#x1eca;" horiz-adv-x="160" 
d="M40 0v599h80v-599h-80zM40 -203v80h80v-80h-80z" />
    <glyph glyph-name="uni1ECB" unicode="&#x1ecb;" horiz-adv-x="170" 
d="M46 0v451h81v-451h-81zM46 518v81h81v-81h-81zM45 -203v80h80v-80h-80z" />
    <glyph glyph-name="uni1ECC" unicode="&#x1ecc;" 
d="M114 0v74h-74v451h74v74h228v-74h74v-451h-74v-74h-228zM335 518h-215v-437h215v437zM188 -203v80h80v-80h-80z" />
    <glyph glyph-name="uni1ECD" unicode="&#x1ecd;" horiz-adv-x="373" 
d="M109 0v74h-74v303h74v74h155v-74h74v-303h-74v-74h-155zM257 370h-141v-289h141v289zM146 -203v80h80v-80h-80z" />
    <glyph glyph-name="uni1ECE" unicode="&#x1ece;" 
d="M114 0v74h-74v451h74v74h228v-74h74v-451h-74v-74h-228zM335 518h-215v-437h215v437zM188 668v80h73v68h-147v80h154v-74h74v-80h-74v-74h-80z" />
    <glyph glyph-name="uni1ECF" unicode="&#x1ecf;" horiz-adv-x="373" 
d="M109 0v74h-74v303h74v74h155v-74h74v-303h-74v-74h-155zM257 370h-141v-289h141v289zM146 520v80h73v68h-147v80h154v-74h74v-80h-74v-74h-80z" />
    <glyph glyph-name="uni1ED0" unicode="&#x1ed0;" 
d="M114 0v74h-74v451h74v74h228v-74h74v-451h-74v-74h-228zM335 518h-215v-437h215v437zM259 668v74h-67v-74h-80v80h74v74h80v-74h74v-80h-81zM407 668v80h74v74h81v-80h-74v-74h-81z" />
    <glyph glyph-name="uni1ED1" unicode="&#x1ed1;" horiz-adv-x="373" 
d="M109 0v74h-74v303h74v74h155v-74h74v-303h-74v-74h-155zM257 370h-141v-289h141v289zM215 520v74h-67v-74h-80v80h74v74h80v-74h74v-80h-81zM363 520v80h74v74h81v-80h-74v-74h-81z" />
    <glyph glyph-name="uni1ED2" unicode="&#x1ed2;" 
d="M114 0v74h-74v451h74v74h228v-74h74v-451h-74v-74h-228zM335 518h-215v-437h215v437zM261 668v74h-67v-74h-81v80h74v74h81v-74h74v-80h-81zM-34 668v74h-74v80h80v-74h74v-80h-80z" />
    <glyph glyph-name="uni1ED3" unicode="&#x1ed3;" horiz-adv-x="373" 
d="M109 0v74h-74v303h74v74h155v-74h74v-303h-74v-74h-155zM257 370h-141v-289h141v289zM222 520v74h-67v-74h-81v80h74v74h81v-74h74v-80h-81zM-73 520v74h-74v80h80v-74h74v-80h-80z" />
    <glyph glyph-name="uni1ED4" unicode="&#x1ed4;" 
d="M114 0v74h-74v451h74v74h228v-74h74v-451h-74v-74h-228zM335 518h-215v-437h215v437zM408 668v80h74v68h-148v80h155v-74h74v-80h-74v-74h-81zM260 668v74h-67v-74h-80v80h74v74h80v-74h74v-80h-81z" />
    <glyph glyph-name="uni1ED5" unicode="&#x1ed5;" horiz-adv-x="373" 
d="M109 0v74h-74v303h74v74h155v-74h74v-303h-74v-74h-155zM257 370h-141v-289h141v289zM363 520v80h74v68h-148v80h155v-74h74v-80h-74v-74h-81zM215 520v74h-67v-74h-80v80h74v74h80v-74h74v-80h-81z" />
    <glyph glyph-name="uni1ED6" unicode="&#x1ed6;" 
d="M114 0v74h-74v451h74v74h228v-74h74v-451h-74v-74h-228zM335 518h-215v-437h215v437zM261 668v74h-67v-74h-80v80h74v74h80v-74h74v-80h-81zM114 890v80h228v-80h-228z" />
    <glyph glyph-name="uni1ED7" unicode="&#x1ed7;" horiz-adv-x="373" 
d="M109 0v74h-74v303h74v74h155v-74h74v-303h-74v-74h-155zM257 370h-141v-289h141v289zM219 520v74h-67v-74h-80v80h74v74h80v-74h74v-80h-81zM72 742v80h228v-80h-228z" />
    <glyph glyph-name="uni1ED8" unicode="&#x1ed8;" 
d="M114 0v74h-74v451h74v74h228v-74h74v-451h-74v-74h-228zM335 518h-215v-437h215v437zM261 668v74h-67v-74h-80v80h74v74h80v-74h74v-80h-81zM188 -203v80h80v-80h-80z" />
    <glyph glyph-name="uni1ED9" unicode="&#x1ed9;" horiz-adv-x="373" 
d="M109 0v74h-74v303h74v74h155v-74h74v-303h-74v-74h-155zM257 370h-141v-289h141v289zM219 520v74h-67v-74h-80v80h74v74h80v-74h74v-80h-81zM146 -203v80h80v-80h-80z" />
    <glyph glyph-name="uni1EDA" unicode="&#x1eda;" horiz-adv-x="547" 
d="M114 0v74h-74v451h74v74h228v-74h67v74h74v74h81v-81h-74v-74h-74v-444h-74v-74h-228zM335 518h-215v-437h215v437zM155 668v80h74v74h80v-80h-74v-74h-80z" />
    <glyph glyph-name="uni1EDB" unicode="&#x1edb;" horiz-adv-x="473" 
d="M114 0v74h-74v303h74v74h154v-74h67v74h74v74h81v-81h-74v-74h-74v-296h-74v-74h-154zM261 370h-141v-289h141v289zM112 520v80h74v74h80v-80h-74v-74h-80z" />
    <glyph glyph-name="uni1EDC" unicode="&#x1edc;" horiz-adv-x="547" 
d="M114 0v74h-74v451h74v74h228v-74h67v74h74v74h81v-81h-74v-74h-74v-444h-74v-74h-228zM335 518h-215v-437h215v437zM229 668v74h-74v80h80v-74h74v-80h-80z" />
    <glyph glyph-name="uni1EDD" unicode="&#x1edd;" horiz-adv-x="473" 
d="M114 0v74h-74v303h74v74h154v-74h67v74h74v74h81v-81h-74v-74h-74v-296h-74v-74h-154zM261 370h-141v-289h141v289zM188 520v74h-74v80h80v-74h74v-80h-80z" />
    <glyph glyph-name="uni1EDE" unicode="&#x1ede;" horiz-adv-x="547" 
d="M114 0v74h-74v451h74v74h228v-74h67v74h74v74h81v-81h-74v-74h-74v-444h-74v-74h-228zM335 518h-215v-437h215v437zM188 668v80h73v68h-147v80h154v-74h74v-80h-74v-74h-80z" />
    <glyph glyph-name="uni1EDF" unicode="&#x1edf;" horiz-adv-x="473" 
d="M114 0v74h-74v303h74v74h154v-74h67v74h74v74h81v-81h-74v-74h-74v-296h-74v-74h-154zM261 370h-141v-289h141v289zM148 520v80h73v68h-147v80h154v-74h74v-80h-74v-74h-80z" />
    <glyph glyph-name="uni1EE0" unicode="&#x1ee0;" horiz-adv-x="547" 
d="M114 0v74h-74v451h74v74h228v-74h67v74h74v74h81v-81h-74v-74h-74v-444h-74v-74h-228zM335 518h-215v-437h215v437zM229 668v74h-67v-74h-80v80h74v74h80v-74h67v74h81v-80h-74v-74h-81z" />
    <glyph glyph-name="uni1EE1" unicode="&#x1ee1;" horiz-adv-x="473" 
d="M114 0v74h-74v303h74v74h154v-74h67v74h74v74h81v-81h-74v-74h-74v-296h-74v-74h-154zM261 370h-141v-289h141v289zM190 520v74h-67v-74h-80v80h74v74h80v-74h67v74h81v-80h-74v-74h-81z" />
    <glyph glyph-name="uni1EE2" unicode="&#x1ee2;" horiz-adv-x="547" 
d="M114 0v74h-74v451h74v74h228v-74h67v74h74v74h81v-81h-74v-74h-74v-444h-74v-74h-228zM335 518h-215v-437h215v437zM188 -203v80h80v-80h-80z" />
    <glyph glyph-name="uni1EE3" unicode="&#x1ee3;" horiz-adv-x="473" 
d="M114 0v74h-74v303h74v74h154v-74h67v74h74v74h81v-81h-74v-74h-74v-296h-74v-74h-154zM261 370h-141v-289h141v289zM153 -203v80h80v-80h-80z" />
    <glyph glyph-name="uni1EE4" unicode="&#x1ee4;" 
d="M114 0v74h-74v525h80v-518h215v518h81v-525h-74v-74h-228zM188 -203v80h80v-80h-80z" />
    <glyph glyph-name="uni1EE5" unicode="&#x1ee5;" horiz-adv-x="378" 
d="M109 0v74h-74v377h81v-370h141v370h81v-451h-229zM149 -203v80h80v-80h-80z" />
    <glyph glyph-name="uni1EE6" unicode="&#x1ee6;" 
d="M114 0v74h-74v525h80v-518h215v518h81v-525h-74v-74h-228zM188 668v80h73v68h-147v80h154v-74h74v-80h-74v-74h-80z" />
    <glyph glyph-name="uni1EE7" unicode="&#x1ee7;" horiz-adv-x="378" 
d="M109 0v74h-74v377h81v-370h141v370h81v-451h-229zM149 520v80h73v68h-147v80h154v-74h74v-80h-74v-74h-80z" />
    <glyph glyph-name="uni1EE8" unicode="&#x1ee8;" horiz-adv-x="544" 
d="M114 0v74h-74v525h80v-518h215v518h148v74h81v-81h-74v-74h-74v-444h-74v-74h-228zM152 668v80h74v74h80v-80h-74v-74h-80z" />
    <glyph glyph-name="uni1EE9" unicode="&#x1ee9;" horiz-adv-x="475" 
d="M114 0v74h-74v377h80v-370h141v370h148v74h81v-81h-74v-74h-74v-370h-228zM118 520v80h74v74h80v-80h-74v-74h-80z" />
    <glyph glyph-name="uni1EEA" unicode="&#x1eea;" horiz-adv-x="544" 
d="M114 0v74h-74v525h80v-518h215v518h148v74h81v-81h-74v-74h-74v-444h-74v-74h-228zM227 668v74h-74v80h80v-74h74v-80h-80z" />
    <glyph glyph-name="uni1EEB" unicode="&#x1eeb;" horiz-adv-x="475" 
d="M114 0v74h-74v377h80v-370h141v370h148v74h81v-81h-74v-74h-74v-370h-228zM190 520v74h-74v80h80v-74h74v-80h-80z" />
    <glyph glyph-name="uni1EEC" unicode="&#x1eec;" horiz-adv-x="544" 
d="M114 0v74h-74v525h80v-518h215v518h148v74h81v-81h-74v-74h-74v-444h-74v-74h-228zM188 668v80h73v68h-147v80h154v-74h74v-80h-74v-74h-80z" />
    <glyph glyph-name="uni1EED" unicode="&#x1eed;" horiz-adv-x="475" 
d="M114 0v74h-74v377h80v-370h141v370h148v74h81v-81h-74v-74h-74v-370h-228zM152 520v80h73v68h-147v80h154v-74h74v-80h-74v-74h-80z" />
    <glyph glyph-name="uni1EEE" unicode="&#x1eee;" horiz-adv-x="544" 
d="M114 0v74h-74v525h80v-518h215v518h148v74h81v-81h-74v-74h-74v-444h-74v-74h-228zM224 668v74h-67v-74h-80v80h74v74h80v-74h67v74h81v-80h-74v-74h-81z" />
    <glyph glyph-name="uni1EEF" unicode="&#x1eef;" horiz-adv-x="475" 
d="M114 0v74h-74v377h80v-370h141v370h148v74h81v-81h-74v-74h-74v-370h-228zM186 520v74h-67v-74h-80v80h74v74h80v-74h67v74h81v-80h-74v-74h-81z" />
    <glyph glyph-name="uni1EF0" unicode="&#x1ef0;" horiz-adv-x="544" 
d="M114 0v74h-74v525h80v-518h215v518h148v74h81v-81h-74v-74h-74v-444h-74v-74h-228zM191 -203v80h80v-80h-80z" />
    <glyph glyph-name="uni1EF1" unicode="&#x1ef1;" horiz-adv-x="475" 
d="M114 0v74h-74v377h80v-370h141v370h148v74h81v-81h-74v-74h-74v-370h-228zM152 -203v80h80v-80h-80z" />
    <glyph glyph-name="Ygrave" unicode="&#x1ef2;" 
d="M187 0v370h-73v148h-74v81h80v-74h74v-148h67v148h74v74h81v-81h-74v-148h-74v-370h-81zM225 668v74h-74v80h80v-74h74v-80h-80z" />
    <glyph glyph-name="ygrave" unicode="&#x1ef3;" horiz-adv-x="378" 
d="M109 -222v74h-74v81h81v-74h141v141h-148v74h-74v377h81v-370h141v370h81v-599h-74v-74h-155zM186 520v74h-74v80h80v-74h74v-80h-80z" />
    <glyph glyph-name="endash" unicode="&#x2013;" horiz-adv-x="427" 
d="M25 222v81h377v-81h-377z" />
    <glyph glyph-name="emdash" unicode="&#x2014;" horiz-adv-x="575" 
d="M25 222v81h525v-81h-525z" />
    <glyph glyph-name="quoteleft" unicode="&#x2018;" horiz-adv-x="216" 
d="M105 444v74h-74v155h81v-148h74v-81h-81z" />
    <glyph glyph-name="quoteright" unicode="&#x2019;" horiz-adv-x="216" 
d="M31 444v81h74v148h81v-155h-74v-74h-81z" />
    <glyph glyph-name="quotesinglbase" unicode="&#x201a;" horiz-adv-x="216" 
d="M31 -74v81h74v148h81v-155h-74v-74h-81z" />
    <glyph glyph-name="quotedblleft" unicode="&#x201c;" horiz-adv-x="432" 
d="M105 444v74h-74v155h81v-148h74v-81h-81zM321 444v74h-74v155h81v-148h74v-81h-81z" />
    <glyph glyph-name="quotedblright" unicode="&#x201d;" horiz-adv-x="432" 
d="M31 444v81h74v148h81v-155h-74v-74h-81zM247 444v81h74v148h81v-155h-74v-74h-81z" />
    <glyph glyph-name="quotedblbase" unicode="&#x201e;" horiz-adv-x="432" 
d="M31 -74v81h74v148h81v-155h-74v-74h-81zM247 -74v81h74v148h81v-155h-74v-74h-81z" />
    <glyph glyph-name="dagger" unicode="&#x2020;" 
d="M187 0v370h-147v81h147v148h81v-148h148v-81h-148v-370h-81z" />
    <glyph glyph-name="daggerdbl" unicode="&#x2021;" 
d="M187 0v148h-147v81h147v141h-147v81h147v148h81v-148h148v-81h-148v-141h148v-81h-148v-148h-81z" />
    <glyph glyph-name="bullet" unicode="&#x2022;" horiz-adv-x="382" 
d="M114 148v74h-74v155h74v74h154v-74h74v-155h-74v-74h-154z" />
    <glyph glyph-name="ellipsis" unicode="&#x2026;" horiz-adv-x="746" 
d="M40 0v81h80v-81h-80zM325 0v81h81v-81h-81zM611 0v81h80v-81h-80z" />
    <glyph glyph-name="perthousand" unicode="&#x2030;" horiz-adv-x="826" 
d="M631 0v74h-67v-74h-81v74h-74v155h74v74h81v-74h67v74h81v-74h74v-155h-74v-74h-81zM187 0v155h74v148h74v148h74v148h81v-155h-74v-148h-74v-148h-74v-148h-81zM114 296v74h-74v155h74v74h80v-74h74v-155h-74v-74h-80zM557 222h-67v-141h67v141zM187 518h-67v-141h67
v141zM705 222h-67v-141h67v141z" />
    <glyph glyph-name="guilsinglleft" unicode="&#x2039;" horiz-adv-x="279" 
d="M173 74v74h-74v74h-74v81h74v74h74v74h81v-81h-74v-74h-74v-67h74v-74h74v-81h-81z" />
    <glyph glyph-name="guilsinglright" unicode="&#x203a;" horiz-adv-x="279" 
d="M25 74v81h74v74h74v67h-74v74h-74v81h81v-74h74v-74h74v-81h-74v-74h-74v-74h-81z" />
    <glyph glyph-name="fraction" unicode="&#x2044;" horiz-adv-x="148" 
d="M-77 0v155h74v148h74v148h73v148h81v-155h-74v-148h-74v-148h-74v-148h-80z" />
    <glyph glyph-name="zerosuperior" unicode="&#x2070;" horiz-adv-x="322" 
d="M99 269v59h-59v243h59v59h123v-59h60v-243h-60v-59h-123zM217 565h-113v-231h113v231z" />
    <glyph glyph-name="foursuperior" unicode="&#x2074;" horiz-adv-x="381" 
d="M217 269v110h-177v65h59v67h59v60h59v59h65v-186h59v-65h-59v-110h-65zM217 506h-54v-62h54v62z" />
    <glyph glyph-name="fivesuperior" unicode="&#x2075;" horiz-adv-x="322" 
d="M99 269v59h-59v65h64v-59h113v113h-177v183h242v-65h-178v-54h118v-59h60v-124h-60v-59h-123z" />
    <glyph glyph-name="sixsuperior" unicode="&#x2076;" horiz-adv-x="322" 
d="M222 328v-59h-123v59h-59v243h59v59h123v-65h-118v-54h118v-59h60v-124h-60zM217 447h-113v-113h113v113z" />
    <glyph glyph-name="sevensuperior" unicode="&#x2077;" horiz-adv-x="322" 
d="M99 269v183h59v59h59v54h-177v65h242v-124h-60v-59h-59v-178h-64z" />
    <glyph glyph-name="eightsuperior" unicode="&#x2078;" horiz-adv-x="322" 
d="M99 269v59h-59v103h59v53h-59v87h59v59h123v-59h60v-87h-60v-53h60v-103h-60v-59h-123zM217 425h-113v-91h113v91zM217 565h-113v-75h113v75z" />
    <glyph glyph-name="ninesuperior" unicode="&#x2079;" horiz-adv-x="322" 
d="M99 269v59h-59v65h60v-59h117v76h-118v59h-59v102h59v59h123v-59h60v-243h-60v-59h-123zM217 565h-113v-90h113v90z" />
    <glyph glyph-name="zeroinferior" unicode="&#x2080;" horiz-adv-x="322" 
d="M99 -36v59h-59v243h59v59h123v-59h60v-243h-60v-59h-123zM217 260h-113v-231h113v231z" />
    <glyph glyph-name="oneinferior" unicode="&#x2081;" horiz-adv-x="203" 
d="M99 -36v237h-59v65h59v59h64v-361h-64z" />
    <glyph glyph-name="twoinferior" unicode="&#x2082;" horiz-adv-x="322" 
d="M40 -36v124h59v59h59v59h59v54h-113v-59h-64v65h59v59h123v-59h60v-65h-60v-59h-59v-60h-59v-53h178v-65h-242z" />
    <glyph glyph-name="threeinferior" unicode="&#x2083;" horiz-adv-x="322" 
d="M99 -36v59h-59v65h64v-59h113v86h-66v65h66v81h-113v-59h-64v64h59v60h123v-60h60v-92h-60v-53h60v-98h-60v-59h-123z" />
    <glyph glyph-name="fourinferior" unicode="&#x2084;" horiz-adv-x="381" 
d="M217 -36v110h-177v65h59v67h59v60h59v59h65v-186h59v-65h-59v-110h-65zM217 201h-54v-62h54v62z" />
    <glyph glyph-name="fiveinferior" unicode="&#x2085;" horiz-adv-x="322" 
d="M99 -36v59h-59v65h64v-59h113v113h-177v183h242v-65h-178v-54h118v-59h60v-124h-60v-59h-123z" />
    <glyph glyph-name="sixinferior" unicode="&#x2086;" horiz-adv-x="322" 
d="M222 23v-59h-123v59h-59v243h59v59h123v-65h-118v-54h118v-59h60v-124h-60zM217 142h-113v-113h113v113z" />
    <glyph glyph-name="seveninferior" unicode="&#x2087;" horiz-adv-x="322" 
d="M99 -36v183h59v59h59v54h-177v65h242v-124h-60v-59h-59v-178h-64z" />
    <glyph glyph-name="eightinferior" unicode="&#x2088;" horiz-adv-x="322" 
d="M99 -36v59h-59v103h59v53h-59v87h59v59h123v-59h60v-87h-60v-53h60v-103h-60v-59h-123zM217 120h-113v-91h113v91zM217 260h-113v-75h113v75z" />
    <glyph glyph-name="nineinferior" unicode="&#x2089;" horiz-adv-x="322" 
d="M99 -36v59h-59v65h60v-59h117v76h-118v59h-59v102h59v59h123v-59h60v-243h-60v-59h-123zM217 260h-113v-90h113v90z" />
    <glyph glyph-name="dong" unicode="&#x20ab;" horiz-adv-x="438" 
d="M122 74v74h-82v155h82v74h148v67h-74v81h74v74h81v-74h74v-81h-74v-370h-229zM48 -74v81h303v-81h-303zM270 296h-141v-141h141v141z" />
    <glyph glyph-name="Euro" unicode="&#x20ac;" horiz-adv-x="442" 
d="M174 0v74h-74v148h-74v81h74v67h-74v81h74v74h74v74h228v-81h-221v-67h148v-81h-148v-67h74v-81h-74v-141h221v-81h-228z" />
    <glyph glyph-name="trademark" unicode="&#x2122;" horiz-adv-x="752" 
d="M631 296v222h-67v-222h-81v222h-67v-222h-81v303h155v-74h67v74h155v-303h-81zM114 296v222h-74v81h228v-81h-74v-222h-80z" />
    <glyph glyph-name="uni2126" unicode="&#x2126;" 
d="M261 0v229h74v289h-215v-289h74v-229h-154v81h74v141h-74v303h74v74h228v-74h74v-303h-74v-141h74v-81h-155z" />
    <glyph glyph-name="onethird" unicode="&#x2153;" horiz-adv-x="723" 
d="M99 269v237h-59v65h59v59h64v-361h-64zM176 0v155h74v148h74v148h73v148h81v-155h-74v-148h-74v-148h-74v-148h-80zM500 -36v59h-59v65h64v-59h113v86h-66v65h66v81h-113v-59h-64v64h59v60h123v-60h60v-92h-60v-53h60v-98h-60v-59h-123z" />
    <glyph glyph-name="twothirds" unicode="&#x2154;" horiz-adv-x="792" 
d="M40 269v124h59v59h59v59h59v54h-113v-59h-64v65h59v59h123v-59h60v-65h-60v-59h-59v-60h-59v-53h178v-65h-242zM245 0v155h74v148h74v148h73v148h81v-155h-74v-148h-74v-148h-74v-148h-80zM569 -36v59h-59v65h64v-59h113v86h-66v65h66v81h-113v-59h-64v64h59v60h123v-60
h60v-92h-60v-53h60v-98h-60v-59h-123z" />
    <glyph glyph-name="oneeighth" unicode="&#x215b;" horiz-adv-x="723" 
d="M99 269v237h-59v65h59v59h64v-361h-64zM176 0v155h74v148h74v148h73v148h81v-155h-74v-148h-74v-148h-74v-148h-80zM500 -36v59h-59v103h59v53h-59v87h59v59h123v-59h60v-87h-60v-53h60v-103h-60v-59h-123zM618 120h-113v-91h113v91zM618 260h-113v-75h113v75z" />
    <glyph glyph-name="threeeighths" unicode="&#x215c;" horiz-adv-x="792" 
d="M99 269v59h-59v65h64v-59h113v86h-66v65h66v81h-113v-59h-64v64h59v60h123v-60h60v-92h-60v-53h60v-98h-60v-59h-123zM245 0v155h74v148h74v148h73v148h81v-155h-74v-148h-74v-148h-74v-148h-80zM569 -36v59h-59v103h59v53h-59v87h59v59h123v-59h60v-87h-60v-53h60v-103
h-60v-59h-123zM687 120h-113v-91h113v91zM687 260h-113v-75h113v75z" />
    <glyph glyph-name="fiveeighths" unicode="&#x215d;" horiz-adv-x="792" 
d="M99 269v59h-59v65h64v-59h113v113h-177v183h242v-65h-178v-54h118v-59h60v-124h-60v-59h-123zM245 0v155h74v148h74v148h73v148h81v-155h-74v-148h-74v-148h-74v-148h-80zM569 -36v59h-59v103h59v53h-59v87h59v59h123v-59h60v-87h-60v-53h60v-103h-60v-59h-123zM687 120
h-113v-91h113v91zM687 260h-113v-75h113v75z" />
    <glyph glyph-name="seveneighths" unicode="&#x215e;" horiz-adv-x="742" 
d="M99 269v183h59v59h59v54h-177v65h242v-124h-60v-59h-59v-178h-64zM195 0v155h74v148h74v148h73v148h81v-155h-74v-148h-74v-148h-74v-148h-80zM519 -36v59h-59v103h59v53h-59v87h59v59h123v-59h60v-87h-60v-53h60v-103h-60v-59h-123zM637 120h-113v-91h113v91zM637 260
h-113v-75h113v75z" />
    <glyph glyph-name="partialdiff" unicode="&#x2202;" horiz-adv-x="382" 
d="M114 0v74h-74v229h74v74h147v141h-141v-74h-80v81h74v74h154v-74h74v-377h-74v-74h-74v-74h-80zM261 296h-141v-215h67v74h74v141z" />
    <glyph glyph-name="uni2206" unicode="&#x2206;" horiz-adv-x="530" 
d="M40 0v229h74v222h73v148h155v-148h74v-222h74v-229h-450zM409 222h-74v222h-141v-222h-74v-141h289v141z" />
    <glyph glyph-name="product" unicode="&#x220f;" 
d="M335 -148v666h-215v-666h-80v747h376v-747h-81z" />
    <glyph glyph-name="summation" unicode="&#x2211;" 
d="M40 -74v155h74v74h73v74h74v67h-74v74h-73v74h-74v155h376v-81h-296v-67h74v-74h74v-74h74v-81h-74v-74h-74v-74h-74v-67h296v-81h-376z" />
    <glyph glyph-name="minus" unicode="&#x2212;" 
d="M40 222v81h376v-81h-376z" />
    <glyph glyph-name="radical" unicode="&#x221a;" horiz-adv-x="604" 
d="M335 86v143h74v148h74v222h81v-229h-74v-148h-74v-136h-81zM261 0v74h-74v148h-147v81h154v-74h74v-148h74v-81h-81z" />
    <glyph glyph-name="infinity" unicode="&#x221e;" horiz-adv-x="604" 
d="M335 74v74h-67v-74h-154v74h-74v229h74v74h154v-74h67v74h155v-74h74v-229h-74v-74h-155zM261 370h-141v-215h141v215zM483 370h-141v-215h141v215z" />
    <glyph glyph-name="integral" unicode="&#x222b;" horiz-adv-x="308" 
d="M40 -222v81h74v814h73v73h81v-80h-74v-814h-74v-74h-80z" />
    <glyph glyph-name="approxequal" unicode="&#x2248;" 
d="M187 369v74h-67v-74h-80v81h74v74h154v-74h67v74h81v-81h-74v-74h-155zM187 74v74h-67v-74h-80v81h74v74h154v-74h67v74h81v-81h-74v-74h-155z" />
    <glyph glyph-name="notequal" unicode="&#x2260;" 
d="M194 148v-148h-80v148h-74v81h147v67h-147v81h221v148h81v-148h74v-81h-148v-67h148v-81h-222z" />
    <glyph glyph-name="lessequal" unicode="&#x2264;" 
d="M262 74v74h-74v74h-74v81h74v74h74v74h81v-81h-74v-74h-74v-67h74v-74h74v-81h-81zM40 -74v81h376v-81h-376z" />
    <glyph glyph-name="greaterequal" unicode="&#x2265;" 
d="M113 74v81h74v74h74v67h-74v74h-74v81h81v-74h73v-74h74v-81h-74v-74h-73v-74h-81zM40 -74v81h376v-81h-376z" />
    <glyph glyph-name="dotmath" unicode="&#x22c5;" horiz-adv-x="160" 
d="M40 222v81h80v-81h-80z" />
    <glyph glyph-name="uni2579" unicode="&#x2579;" horiz-adv-x="234" 
d="M40 222v155h154v-155h-154z" />
    <glyph glyph-name="lozenge" unicode="&#x25ca;" 
d="M187 74v74h-73v74h-74v81h74v74h73v74h81v-74h74v-74h74v-81h-74v-74h-74v-74h-81zM335 296h-74v74h-67v-74h-74v-67h74v-74h67v74h74v67z" />
    <glyph glyph-name="musicalnote" unicode="&#x266a;" 
d="M40 0v155h147v444h81v-74h74v-74h74v-229h-81v148h-67v-222h-74v-148h-154z" />
    <glyph glyph-name="fi" unicode="&#xfb01;" horiz-adv-x="465" 
d="M114 0v370h-74v81h74v74h73v74h81v-81h-74v-67h74v-81h-74v-370h-80zM341 0v451h81v-451h-81zM341 518v81h81v-81h-81z" />
    <glyph glyph-name="fl" unicode="&#xfb02;" horiz-adv-x="455" 
d="M114 0v370h-74v81h74v74h73v74h81v-81h-74v-67h74v-81h-74v-370h-80zM335 0v599h80v-599h-80z" />
    <glyph glyph-name="gravecircumflex" horiz-adv-x="530" 
d="M409 520v74h-67v-74h-81v80h74v74h81v-74h74v-80h-81zM114 520v74h-74v80h80v-74h74v-80h-80z" />
    <glyph glyph-name="brevetilde" horiz-adv-x="382" 
d="M114 520v74h-74v80h80v-74h141v74h81v-80h-74v-74h-154zM40 742v80h302v-80h-302z" />
    <glyph glyph-name="breveacute" horiz-adv-x="382" 
d="M114 520v74h-74v80h74v74h73v74h81v-80h-74v-74h-74v-68h141v74h81v-80h-74v-74h-154z" />
    <glyph glyph-name="circumflexhook" horiz-adv-x="530" 
d="M335 520v80h74v68h-148v80h155v-74h74v-80h-74v-74h-81zM187 520v74h-67v-74h-80v80h74v74h80v-74h74v-80h-81z" />
    <glyph glyph-name="circumflexacute" horiz-adv-x="530" 
d="M187 520v74h-67v-74h-80v80h74v74h80v-74h74v-80h-81zM335 520v80h74v74h81v-80h-74v-74h-81z" />
    <glyph glyph-name="brevehook" horiz-adv-x="382" 
d="M114 520v74h-74v80h80v-74h141v68h-74v74h-73v80h154v-148h74v-80h-74v-74h-154z" />
    <glyph glyph-name="brevegrave" horiz-adv-x="382" 
d="M114 520v74h-74v80h80v-74h141v68h-74v74h-73v80h80v-74h74v-74h74v-80h-74v-74h-154z" />
    </font>
</defs>
</svg>
